<svg width="147" height="43" viewBox="0 0 147 43" fill="none" xmlns="http://www.w3.org/2000/svg">
<path d="M0 21.5C0 9.62588 9.62588 0 21.5 0H122.076C133.95 0 143.576 9.62588 143.576 21.5C143.576 33.3741 133.95 43 122.076 43H21.5C9.62586 43 0 33.3741 0 21.5Z" fill="url(#paint0_linear_78_2402)"/>
<path d="M66.6422 18.644C65.4928 18.644 64.5672 18.2644 63.8654 17.5053C63.1635 16.7462 62.8126 15.7472 62.8126 14.5083C62.8126 13.2944 63.1761 12.3025 63.903 11.5327C64.6298 10.7592 65.5501 10.3725 66.6637 10.3725C67.3225 10.3725 67.8776 10.4978 68.3287 10.7485C68.7799 10.9991 69.0055 11.291 69.0055 11.624C69.0055 11.8388 68.9303 12.0268 68.7799 12.1879C68.6295 12.3491 68.4523 12.4296 68.2482 12.4296C68.13 12.4296 67.8955 12.3795 67.5446 12.2793C67.1972 12.1754 66.9072 12.1235 66.6744 12.1235C66.0944 12.1235 65.6289 12.3437 65.278 12.7841C64.927 13.2246 64.7516 13.8136 64.7516 14.5512C64.7516 15.2745 64.9288 15.8492 65.2833 16.2753C65.6414 16.7015 66.123 16.9145 66.7281 16.9145C67.011 16.9145 67.3297 16.8483 67.6842 16.7158C68.0423 16.5797 68.2786 16.5117 68.3932 16.5117C68.5758 16.5117 68.7405 16.5904 68.8873 16.748C69.0341 16.9056 69.1075 17.0864 69.1075 17.2905C69.1075 17.6557 68.8694 17.9726 68.3932 18.2412C67.9169 18.5097 67.3333 18.644 66.6422 18.644ZM72.3805 15.2548V17.2475C72.3805 17.6772 72.3071 17.9959 72.1603 18.2036C72.0134 18.4077 71.7896 18.5097 71.4889 18.5097C71.1917 18.5097 70.9679 18.4059 70.8175 18.1982C70.6707 17.9905 70.5973 17.6736 70.5973 17.2475V11.7583C70.5973 11.3286 70.6707 11.0099 70.8175 10.8022C70.9643 10.5945 71.1881 10.4907 71.4889 10.4907C71.7896 10.4907 72.0134 10.5963 72.1603 10.8076C72.3071 11.0153 72.3805 11.3321 72.3805 11.7583V13.6059H75.6568V11.7583C75.6568 11.3286 75.7302 11.0099 75.8771 10.8022C76.0239 10.5945 76.2477 10.4907 76.5484 10.4907C76.8492 10.4907 77.073 10.5963 77.2198 10.8076C77.3666 11.0153 77.44 11.3321 77.44 11.7583V17.2475C77.44 17.6772 77.3666 17.9959 77.2198 18.2036C77.073 18.4077 76.8492 18.5097 76.5484 18.5097C76.2512 18.5097 76.0274 18.4059 75.8771 18.1982C75.7302 17.9905 75.6568 17.6736 75.6568 17.2475V15.2548H72.3805ZM80.8741 16.9414L80.6055 17.7309C80.5196 17.9923 80.4032 18.1928 80.2564 18.3325C80.1132 18.4685 79.9449 18.5366 79.7515 18.5366C79.5045 18.5366 79.3004 18.456 79.1392 18.2949C78.9817 18.1302 78.9029 17.9243 78.9029 17.6772C78.9029 17.5734 78.9083 17.4803 78.919 17.3979C78.9333 17.3155 78.9566 17.2368 78.9888 17.1616L81.0245 11.6347C81.1677 11.2408 81.3503 10.9508 81.5723 10.7646C81.7979 10.5748 82.0701 10.4799 82.3888 10.4799C82.6931 10.4799 82.9563 10.5677 83.1783 10.7431C83.4039 10.9186 83.5776 11.1764 83.6993 11.5166L85.6812 17.1347L85.7672 17.4516C85.7887 17.5447 85.7994 17.6271 85.7994 17.6987C85.7994 17.9422 85.717 18.1427 85.5523 18.3002C85.3876 18.4578 85.1763 18.5366 84.9185 18.5366C84.693 18.5366 84.5032 18.4668 84.3492 18.3271C84.1952 18.1839 84.0735 17.9637 83.984 17.6665L83.7638 16.9414H80.8741ZM81.379 15.2978H83.2481L82.3458 12.3974L81.379 15.2978ZM89.024 17.2475C89.024 17.6772 88.9506 17.9959 88.8038 18.2036C88.657 18.4077 88.4332 18.5097 88.1324 18.5097C87.8352 18.5097 87.6114 18.4059 87.461 18.1982C87.3142 17.9905 87.2408 17.6736 87.2408 17.2475V11.6938C87.2408 11.2963 87.3088 10.9991 87.4449 10.8022C87.581 10.6017 87.7886 10.5014 88.0679 10.5014C88.247 10.5014 88.4063 10.5444 88.546 10.6303C88.6892 10.7163 88.845 10.8649 89.0132 11.0761L92.3004 15.4213V11.7583C92.3004 11.3286 92.3738 11.0099 92.5206 10.8022C92.6674 10.5945 92.8912 10.4907 93.192 10.4907C93.4927 10.4907 93.7165 10.5963 93.8633 10.8076C94.0102 11.0153 94.0836 11.3321 94.0836 11.7583V17.4462C94.0836 17.8222 94.0173 18.1015 93.8848 18.2841C93.7559 18.4668 93.55 18.5581 93.2672 18.5581C93.081 18.5581 92.9055 18.5061 92.7408 18.4023C92.5797 18.2985 92.4149 18.1337 92.2466 17.9082L89.024 13.6489V17.2475ZM101.32 15.3676H100.692C100.259 15.3676 99.9418 15.3014 99.7413 15.1689C99.5407 15.0328 99.4405 14.8234 99.4405 14.5405C99.4405 14.2612 99.5425 14.0517 99.7466 13.9121C99.9507 13.7724 100.266 13.7026 100.692 13.7026H102.002C102.443 13.7026 102.76 13.7957 102.953 13.9819C103.15 14.1645 103.249 14.4689 103.249 14.895C103.249 16.0086 102.912 16.9127 102.239 17.6074C101.569 18.2985 100.688 18.644 99.5962 18.644C98.5005 18.644 97.6018 18.2591 96.8999 17.4892C96.2017 16.7194 95.8526 15.7221 95.8526 14.4975C95.8526 13.2335 96.2089 12.2291 96.9214 11.4843C97.6376 10.736 98.599 10.3618 99.8057 10.3618C100.604 10.3618 101.283 10.5265 101.841 10.8559C102.404 11.1853 102.685 11.5631 102.685 11.9892C102.685 12.2076 102.609 12.4028 102.459 12.5747C102.309 12.743 102.131 12.8271 101.927 12.8271C101.791 12.8271 101.494 12.7 101.036 12.4458C100.581 12.1915 100.151 12.0644 99.7466 12.0644C99.1486 12.0644 98.6706 12.2793 98.3125 12.7089C97.9581 13.135 97.7808 13.7205 97.7808 14.4653C97.7808 15.2172 97.9581 15.8188 98.3125 16.27C98.667 16.7176 99.1415 16.9414 99.7359 16.9414C100.209 16.9414 100.588 16.7999 100.875 16.517C101.018 16.3738 101.127 16.2055 101.202 16.0122C101.281 15.8188 101.32 15.604 101.32 15.3676ZM108.192 10.5927C108.611 10.5927 108.926 10.6626 109.137 10.8022C109.352 10.9383 109.459 11.1477 109.459 11.4306C109.459 11.7063 109.354 11.9122 109.143 12.0483C108.935 12.1844 108.618 12.2524 108.192 12.2524H106.742V13.6489H107.993C108.423 13.6489 108.742 13.7169 108.949 13.853C109.157 13.989 109.261 14.1967 109.261 14.476C109.261 14.7553 109.155 14.963 108.944 15.0991C108.733 15.2316 108.416 15.2978 107.993 15.2978H106.742V16.7641H108.246C108.679 16.7641 108.998 16.8321 109.202 16.9682C109.409 17.1043 109.513 17.3102 109.513 17.5859C109.513 17.8616 109.409 18.0693 109.202 18.2089C108.994 18.345 108.675 18.413 108.246 18.413H106.167C105.702 18.413 105.383 18.3343 105.211 18.1767C105.043 18.0192 104.959 17.7237 104.959 17.2905V11.8442C104.959 11.3715 105.05 11.0457 105.232 10.8667C105.419 10.684 105.737 10.5927 106.188 10.5927H108.192ZM55.8605 25.7583C55.8605 25.3286 55.9339 25.0099 56.0807 24.8022C56.2275 24.5945 56.4513 24.4907 56.7521 24.4907C57.0529 24.4907 57.2767 24.5963 57.4235 24.8076C57.5703 25.0153 57.6437 25.3321 57.6437 25.7583V30.7641H59.1476C59.5809 30.7641 59.8996 30.8321 60.1037 30.9682C60.3113 31.1043 60.4152 31.3102 60.4152 31.5859C60.4152 31.8616 60.3113 32.0693 60.1037 32.2089C59.896 32.345 59.5773 32.413 59.1476 32.413H57.069C56.6035 32.413 56.2848 32.3343 56.1129 32.1767C55.9446 32.0192 55.8605 31.7237 55.8605 31.2905V25.7583ZM62.9791 30.9414L62.7106 31.7309C62.6246 31.9923 62.5083 32.1928 62.3614 32.3325C62.2182 32.4685 62.0499 32.5366 61.8566 32.5366C61.6095 32.5366 61.4054 32.456 61.2443 32.2949C61.0867 32.1302 61.0079 31.9243 61.0079 31.6772C61.0079 31.5734 61.0133 31.4803 61.024 31.3979C61.0384 31.3155 61.0616 31.2368 61.0939 31.1616L63.1295 25.6347C63.2727 25.2408 63.4554 24.9508 63.6774 24.7646C63.903 24.5748 64.1751 24.4799 64.4938 24.4799C64.7981 24.4799 65.0613 24.5677 65.2833 24.7431C65.5089 24.9186 65.6826 25.1764 65.8043 25.5166L67.7863 31.1347L67.8722 31.4516C67.8937 31.5447 67.9044 31.6271 67.9044 31.6987C67.9044 31.9422 67.8221 32.1427 67.6573 32.3002C67.4926 32.4578 67.2814 32.5366 67.0236 32.5366C66.798 32.5366 66.6082 32.4668 66.4542 32.3271C66.3002 32.1839 66.1785 31.9637 66.089 31.6665L65.8688 30.9414H62.9791ZM63.484 29.2978H65.3531L64.4508 26.3974L63.484 29.2978ZM71.129 31.2475C71.129 31.6772 71.0556 31.9959 70.9088 32.2036C70.762 32.4077 70.5382 32.5097 70.2374 32.5097C69.9402 32.5097 69.7164 32.4059 69.566 32.1982C69.4192 31.9905 69.3458 31.6736 69.3458 31.2475V25.6938C69.3458 25.2963 69.4138 24.9991 69.5499 24.8022C69.686 24.6017 69.8937 24.5014 70.173 24.5014C70.352 24.5014 70.5113 24.5444 70.651 24.6303C70.7942 24.7163 70.95 24.8649 71.1183 25.0761L74.4054 29.4213V25.7583C74.4054 25.3286 74.4788 25.0099 74.6256 24.8022C74.7724 24.5945 74.9962 24.4907 75.297 24.4907C75.5978 24.4907 75.8216 24.5963 75.9684 24.8076C76.1152 25.0153 76.1886 25.3321 76.1886 25.7583V31.4462C76.1886 31.8222 76.1223 32.1015 75.9898 32.2841C75.8609 32.4668 75.655 32.5581 75.3722 32.5581C75.186 32.5581 75.0105 32.5061 74.8458 32.4023C74.6847 32.2985 74.52 32.1337 74.3517 31.9082L71.129 27.6489V31.2475ZM83.4254 29.3676H82.797C82.3637 29.3676 82.0468 29.3014 81.8463 29.1689C81.6457 29.0328 81.5455 28.8234 81.5455 28.5405C81.5455 28.2612 81.6475 28.0517 81.8516 27.9121C82.0557 27.7724 82.3708 27.7026 82.797 27.7026H84.1075C84.5479 27.7026 84.8648 27.7957 85.0582 27.9819C85.2551 28.1645 85.3536 28.4689 85.3536 28.895C85.3536 30.0086 85.017 30.9127 84.3438 31.6074C83.6742 32.2985 82.7934 32.644 81.7012 32.644C80.6055 32.644 79.7068 32.2591 79.005 31.4892C78.3067 30.7194 77.9576 29.7221 77.9576 28.4975C77.9576 27.2335 78.3139 26.2291 79.0264 25.4843C79.7426 24.736 80.704 24.3618 81.9107 24.3618C82.7092 24.3618 83.3878 24.5265 83.9464 24.8559C84.5085 25.1853 84.7896 25.5631 84.7896 25.9892C84.7896 26.2076 84.7144 26.4028 84.564 26.5747C84.4137 26.743 84.2364 26.8271 84.0323 26.8271C83.8962 26.8271 83.599 26.7 83.1407 26.4458C82.6859 26.1915 82.2563 26.0644 81.8516 26.0644C81.2537 26.0644 80.7756 26.2793 80.4176 26.7089C80.0631 27.135 79.8858 27.7205 79.8858 28.4653C79.8858 29.2172 80.0631 29.8188 80.4176 30.27C80.772 30.7176 81.2465 30.9414 81.8409 30.9414C82.3136 30.9414 82.6931 30.7999 82.9796 30.517C83.1228 30.3738 83.232 30.2055 83.3072 30.0122C83.386 29.8188 83.4254 29.604 83.4254 29.3676ZM87.0635 29.0561V25.7583C87.0635 25.3286 87.1369 25.0099 87.2838 24.8022C87.4306 24.5945 87.6544 24.4907 87.9551 24.4907C88.2559 24.4907 88.4797 24.5963 88.6265 24.8076C88.7733 25.0153 88.8467 25.3321 88.8467 25.7583V28.8574C88.8467 29.5485 88.9774 30.0695 89.2388 30.4204C89.5038 30.7677 89.8977 30.9414 90.4205 30.9414C90.9361 30.9414 91.3264 30.7677 91.5914 30.4204C91.8599 30.0695 91.9942 29.5485 91.9942 28.8574V25.7583C91.9942 25.3286 92.0676 25.0099 92.2144 24.8022C92.3612 24.5945 92.5832 24.4907 92.8804 24.4907C93.1812 24.4907 93.405 24.5963 93.5518 24.8076C93.6986 25.0153 93.772 25.3321 93.772 25.7583V29.0561C93.772 30.1876 93.4748 31.0685 92.8804 31.6987C92.2896 32.3289 91.4696 32.644 90.4205 32.644C89.3677 32.644 88.5442 32.3307 87.9498 31.7041C87.3589 31.0738 87.0635 30.1912 87.0635 29.0561ZM97.2115 30.9414L96.9429 31.7309C96.857 31.9923 96.7406 32.1928 96.5938 32.3325C96.4506 32.4685 96.2823 32.5366 96.0889 32.5366C95.8418 32.5366 95.6377 32.456 95.4766 32.2949C95.319 32.1302 95.2403 31.9243 95.2403 31.6772C95.2403 31.5734 95.2456 31.4803 95.2564 31.3979C95.2707 31.3155 95.294 31.2368 95.3262 31.1616L97.3619 25.6347C97.5051 25.2408 97.6877 24.9508 97.9097 24.7646C98.1353 24.5748 98.4074 24.4799 98.7261 24.4799C99.0305 24.4799 99.2937 24.5677 99.5157 24.7431C99.7412 24.9186 99.9149 25.1764 100.037 25.5166L102.019 31.1347L102.105 31.4516C102.126 31.5447 102.137 31.6271 102.137 31.6987C102.137 31.9422 102.054 32.1427 101.89 32.3002C101.725 32.4578 101.514 32.5366 101.256 32.5366C101.03 32.5366 100.841 32.4668 100.687 32.3271C100.533 32.1839 100.411 31.9637 100.321 31.6665L100.101 30.9414H97.2115ZM97.7163 29.2978H99.5855L98.6831 26.3974L97.7163 29.2978ZM108.659 29.3676H108.031C107.598 29.3676 107.281 29.3014 107.08 29.1689C106.88 29.0328 106.779 28.8234 106.779 28.5405C106.779 28.2612 106.881 28.0517 107.085 27.9121C107.29 27.7724 107.605 27.7026 108.031 27.7026H109.341C109.782 27.7026 110.099 27.7957 110.292 27.9819C110.489 28.1645 110.587 28.4689 110.587 28.895C110.587 30.0086 110.251 30.9127 109.578 31.6074C108.908 32.2985 108.027 32.644 106.935 32.644C105.839 32.644 104.941 32.2591 104.239 31.4892C103.541 30.7194 103.191 29.7221 103.191 28.4975C103.191 27.2335 103.548 26.2291 104.26 25.4843C104.976 24.736 105.938 24.3618 107.145 24.3618C107.943 24.3618 108.622 24.5265 109.18 24.8559C109.742 25.1853 110.023 25.5631 110.023 25.9892C110.023 26.2076 109.948 26.4028 109.798 26.5747C109.647 26.743 109.47 26.8271 109.266 26.8271C109.13 26.8271 108.833 26.7 108.375 26.4458C107.92 26.1915 107.49 26.0644 107.085 26.0644C106.487 26.0644 106.009 26.2793 105.651 26.7089C105.297 27.135 105.12 27.7205 105.12 28.4653C105.12 29.2172 105.297 29.8188 105.651 30.27C106.006 30.7176 106.48 30.9414 107.075 30.9414C107.547 30.9414 107.927 30.7999 108.213 30.517C108.357 30.3738 108.466 30.2055 108.541 30.0122C108.62 29.8188 108.659 29.604 108.659 29.3676ZM115.531 24.5927C115.95 24.5927 116.265 24.6626 116.476 24.8022C116.691 24.9383 116.798 25.1477 116.798 25.4306C116.798 25.7063 116.693 25.9122 116.481 26.0483C116.274 26.1844 115.957 26.2524 115.531 26.2524H114.081V27.6489H115.332C115.762 27.6489 116.08 27.7169 116.288 27.853C116.496 27.989 116.6 28.1967 116.6 28.476C116.6 28.7553 116.494 28.963 116.283 29.0991C116.071 29.2316 115.755 29.2978 115.332 29.2978H114.081V30.7641H115.584C116.018 30.7641 116.336 30.8321 116.541 30.9682C116.748 31.1043 116.852 31.3102 116.852 31.5859C116.852 31.8616 116.748 32.0693 116.541 32.2089C116.333 32.345 116.014 32.413 115.584 32.413H113.506C113.04 32.413 112.722 32.3343 112.55 32.1767C112.382 32.0192 112.297 31.7237 112.297 31.2905V25.8442C112.297 25.3715 112.389 25.0457 112.571 24.8667C112.757 24.684 113.076 24.5927 113.527 24.5927H115.531Z" fill="white"/>
<ellipse cx="26.1292" cy="20.0978" rx="17.4931" ry="14.4891" fill="#FFFCFC"/>
<path d="M17.1519 27.4072V15.1385C17.6442 14.9738 18.1305 14.7844 18.6304 14.6444C18.9693 14.5473 19.0998 14.3702 19.0947 14.0252C19.0786 12.9285 19.0854 11.8325 19.0947 10.7357C19.0947 10.282 19.1515 10.2466 19.5845 10.3948C21.085 10.9045 22.6076 11.3681 24.0819 11.9527C25.0385 12.3298 25.8909 12.3644 26.8704 11.9939C28.7734 11.2751 30.7256 10.6764 32.6574 10.0334H33.081C33.1988 10.2195 33.1903 10.4261 33.1903 10.632C33.1903 11.9074 33.1997 13.1845 33.1853 14.4583C33.1853 14.7712 33.2937 14.9384 33.6089 15.0183C34.0326 15.1261 34.446 15.2653 34.8637 15.3855V27.4072C34.6002 27.4344 34.3681 27.3191 34.1291 27.2425C31.5505 26.4482 28.9742 25.6495 26.4001 24.8464C26.122 24.7532 25.8194 24.7552 25.5427 24.8522C23.0053 25.6887 20.4662 26.5138 17.9255 27.3273C17.6772 27.4072 17.4273 27.5439 17.1519 27.4072ZM25.5325 18.6832C25.5325 16.9266 25.5325 15.1717 25.5325 13.4184C25.5325 13.1549 25.5384 12.9532 25.1419 13.0833C22.7921 13.8556 20.438 14.6167 18.0797 15.3666C17.7747 15.4637 17.656 15.6243 17.656 15.9322C17.6628 19.4012 17.656 22.8702 17.662 26.3384C17.662 26.8012 17.7264 26.8399 18.1907 26.69C20.4784 25.9489 22.7661 25.2038 25.0538 24.4759C25.4088 24.3631 25.5376 24.1844 25.5342 23.8246C25.524 22.1102 25.5325 20.3967 25.5325 18.6832ZM32.9217 23.4318L32.5557 22.1547C32.0575 20.4113 31.5599 18.6679 31.0628 16.9244C30.9391 16.4938 30.6103 16.2657 30.046 16.2344C29.6427 16.2114 29.6876 16.5761 29.5987 16.7836C28.9327 18.3259 28.2921 19.8788 27.6423 21.4276C27.3881 22.0444 27.3881 22.0271 28.021 22.2379C28.3557 22.349 28.5599 22.3111 28.6607 21.9595C28.698 21.8286 28.7776 21.7125 28.8183 21.5791C28.9183 21.2564 29.0911 21.1361 29.4453 21.2737C29.7828 21.4144 30.1359 21.5167 30.4976 21.5783C31.2746 21.6886 31.6678 22.0888 31.7686 22.8505C31.8381 23.3577 32.2227 23.5973 32.7497 23.6187C32.8845 23.6195 32.9455 23.5924 32.9217 23.4318ZM26.3323 12.6979C26.4171 12.7654 26.4357 12.7901 26.4594 12.7975C28.393 13.3986 30.3262 13.9997 32.2592 14.6008C32.5981 14.707 32.6421 14.5448 32.6404 14.2764C32.6345 13.2208 32.6404 12.166 32.6404 11.1104C32.6404 10.6509 32.6125 10.632 32.1533 10.781C30.6575 11.2718 29.1623 11.7658 27.6677 12.2631L26.3323 12.6979Z" fill="#0033A1"/>
<path d="M24.7775 29.9597C23.5464 29.7654 22.3543 29.4533 21.2545 28.8597C21.1304 28.7948 21.0099 28.7236 20.8935 28.6464C20.7631 28.5575 20.6343 28.4488 20.7351 28.2742C20.8359 28.0997 20.9893 28.1351 21.1401 28.2084C21.2664 28.2701 21.3884 28.3393 21.5129 28.4027C24.1844 29.7506 26.8729 29.8626 29.58 28.504C30.0952 28.2454 30.1019 28.2347 29.8139 27.7538C29.652 27.4846 29.6605 27.352 30.0265 27.3858C30.4061 27.4204 30.7891 27.4451 31.1645 27.4772C31.4009 27.4969 31.5381 27.5801 31.4373 27.8477C31.2822 28.2594 31.1433 28.6769 30.9975 29.0919C30.9128 29.3257 30.7908 29.3644 30.684 29.1223C30.4951 28.6958 30.2604 28.704 29.8757 28.9247C28.8802 29.4962 27.7744 29.7745 26.6416 29.9597H24.7775Z" fill="#0033A1"/>
<path d="M23.7049 17.6457C23.6659 17.7396 23.6201 17.882 23.5515 18.0171C23.2202 18.6989 22.8788 19.379 22.4382 19.9998C22.2052 20.3292 22.289 20.456 22.6398 20.5828C23.1677 20.7738 23.6803 21.0052 24.1988 21.2218C24.3268 21.2761 24.4751 21.309 24.5547 21.4317C24.6547 21.5832 24.7589 21.7726 24.6657 21.9307C24.5539 22.1185 24.359 21.9851 24.2132 21.9307C23.5679 21.686 22.9688 21.3388 22.4407 20.9031C22.1603 20.6668 21.9849 20.6783 21.7739 20.992C21.2153 21.8004 20.5944 22.5664 19.9166 23.2836C19.7477 23.4864 19.5456 23.6608 19.3184 23.7998C19.2108 23.8591 19.0642 23.9423 18.9668 23.8369C18.8499 23.7051 19.0261 23.6212 19.0998 23.5405C19.8751 22.7022 20.5402 21.785 21.2079 20.8644C21.6892 20.1983 22.0349 19.4646 22.4085 18.7408C22.456 18.6486 22.5534 18.5449 22.456 18.4411C22.3712 18.3539 22.2696 18.4288 22.1797 18.4543C21.7459 18.5762 21.3147 18.7013 20.8817 18.8257C20.7209 18.8749 20.5798 18.9713 20.4775 19.1015C20.2081 19.4119 19.6082 19.4374 19.3294 19.1756C19.1049 18.9648 19.138 18.7804 19.4303 18.7112C20.7478 18.407 22.0296 17.9713 23.255 17.4111C23.4422 17.3238 23.7091 17.1731 23.7049 17.6457Z" fill="#0033A1"/>
<path d="M21.1028 17.509C20.9897 17.5107 20.8773 17.4905 20.7722 17.4495C20.6672 17.4085 20.5716 17.3476 20.4911 17.2702C20.3581 17.1443 20.2115 16.9952 20.2725 16.8091C20.3335 16.623 20.5411 16.7268 20.6826 16.7087C21.0656 16.6716 21.4172 16.5209 21.7891 16.4468C21.9747 16.409 22.2018 16.3381 22.3128 16.5687C22.417 16.7836 22.3128 16.9705 22.1433 17.1179C21.8545 17.3629 21.4861 17.5013 21.1028 17.509Z" fill="#0033A1"/>
<path d="M30.4171 18.1579C30.6256 18.8784 30.8349 19.598 31.0399 20.3193C31.0874 20.484 31.0009 20.5482 30.8349 20.5211C30.8069 20.5161 30.7789 20.5128 30.7501 20.5071C29.3699 20.26 29.3656 20.2518 29.8961 19.0126C30.0198 18.7249 30.1446 18.4379 30.2706 18.1513L30.4171 18.1579Z" fill="#0033A1"/>
<defs>
<linearGradient id="paint0_linear_78_2402" x1="-6.05072e-07" y1="21.8772" x2="143.576" y2="21.8772" gradientUnits="userSpaceOnUse">
<stop stop-color="#0C4C91"/>
<stop offset="0.554606" stop-color="#008ECF"/>
<stop offset="1" stop-color="#0C4C91"/>
</linearGradient>
</defs>
</svg>
