<svg width="36" height="30" viewBox="0 0 36 30" fill="none" xmlns="http://www.w3.org/2000/svg">
<ellipse cx="18.1292" cy="15.0978" rx="17.4931" ry="14.4891" fill="#FFFCFC"/>
<path d="M9.15192 22.4071V10.1384C9.64419 9.97375 10.1305 9.78436 10.6304 9.64439C10.9694 9.54722 11.0998 9.37019 11.0948 9.02519C11.0787 7.92841 11.0854 6.83246 11.0948 5.73569C11.0948 5.28199 11.1515 5.24659 11.5845 5.3948C13.0851 5.90449 14.6076 6.36806 16.0819 6.95268C17.0385 7.3298 17.8909 7.36438 18.8704 6.99385C20.7734 6.27502 22.7256 5.6764 24.6574 5.03333H25.0811C25.1988 5.21941 25.1904 5.42609 25.1904 5.63194C25.1904 6.90739 25.1997 8.18449 25.1853 9.4583C25.1853 9.77119 25.2937 9.93834 25.6089 10.0182C26.0326 10.1261 26.4461 10.2652 26.8638 10.3854V22.4071C26.6003 22.4343 26.3681 22.319 26.1292 22.2425C23.5506 21.4482 20.9742 20.6494 18.4001 19.8464C18.122 19.7531 17.8194 19.7551 17.5427 19.8521C15.0053 20.6887 12.4663 21.5137 9.9255 22.3273C9.67724 22.4071 9.42729 22.5438 9.15192 22.4071ZM17.5325 13.6832C17.5325 11.9266 17.5325 10.1716 17.5325 8.41834C17.5325 8.15485 17.5384 7.95311 17.1419 8.08321C14.7921 8.85556 12.438 9.61666 10.0797 10.3665C9.77468 10.4637 9.65606 10.6242 9.65606 10.9322C9.66284 14.4012 9.65606 17.8702 9.66199 21.3384C9.66199 21.8011 9.72638 21.8398 10.1907 21.69C12.4784 20.9489 14.7661 20.2037 17.0538 19.4758C17.4088 19.363 17.5376 19.1843 17.5342 18.8245C17.524 17.1102 17.5325 15.3967 17.5325 13.6832ZM24.9218 18.4317L24.5557 17.1547C24.0575 15.4112 23.5599 13.6678 23.0628 11.9244C22.9391 11.4938 22.6104 11.2657 22.0461 11.2344C21.6427 11.2113 21.6876 11.5761 21.5987 11.7836C20.9327 13.3258 20.2922 14.8788 19.6423 16.4276C19.3881 17.0443 19.3881 17.027 20.021 17.2378C20.3557 17.349 20.5599 17.3111 20.6607 16.9595C20.698 16.8286 20.7777 16.7125 20.8183 16.5791C20.9183 16.2563 21.0912 16.1361 21.4453 16.2736C21.7828 16.4144 22.1359 16.5166 22.4977 16.5783C23.2746 16.6886 23.6678 17.0888 23.7686 17.8504C23.8381 18.3576 24.2228 18.5973 24.7498 18.6187C24.8845 18.6195 24.9455 18.5923 24.9218 18.4317ZM18.3324 7.69786C18.4171 7.76538 18.4357 7.79008 18.4595 7.79749C20.393 8.39858 22.3262 8.99966 24.2592 9.60074C24.5981 9.70696 24.6422 9.54475 24.6405 9.27632C24.6345 8.22072 24.6405 7.16594 24.6405 6.11034C24.6405 5.65088 24.6125 5.63194 24.1533 5.78098C22.6575 6.27172 21.1623 6.76577 19.6677 7.2631L18.3324 7.69786Z" fill="#0033A1"/>
<path d="M16.7775 24.9597C15.5464 24.7654 14.3543 24.4534 13.2545 23.8597C13.1304 23.7948 13.0099 23.7236 12.8935 23.6464C12.7631 23.5575 12.6343 23.4488 12.7351 23.2742C12.8359 23.0997 12.9893 23.1351 13.1401 23.2084C13.2664 23.2701 13.3884 23.3393 13.5129 23.4027C16.1844 24.7506 18.8729 24.8626 21.58 23.504C22.0952 23.2454 22.1019 23.2347 21.8139 22.7538C21.652 22.4846 21.6605 22.352 22.0265 22.3858C22.4061 22.4204 22.7891 22.4451 23.1645 22.4772C23.4009 22.4969 23.5381 22.5801 23.4373 22.8477C23.2822 23.2594 23.1433 23.6769 22.9975 24.0919C22.9128 24.3257 22.7908 24.3644 22.684 24.1223C22.4951 23.6958 22.2604 23.7041 21.8757 23.9247C20.8802 24.4962 19.7744 24.7745 18.6416 24.9597H16.7775Z" fill="#0033A1"/>
<path d="M15.7049 12.6457C15.6659 12.7395 15.6201 12.882 15.5515 13.017C15.2202 13.6988 14.8788 14.3789 14.4382 14.9998C14.2052 15.3291 14.289 15.4559 14.6398 15.5827C15.1677 15.7738 15.6803 16.0051 16.1988 16.2217C16.3268 16.276 16.4751 16.309 16.5547 16.4317C16.6547 16.5832 16.7589 16.7726 16.6657 16.9307C16.5539 17.1184 16.359 16.985 16.2132 16.9307C15.5679 16.686 14.9688 16.3387 14.4407 15.903C14.1603 15.6667 13.9849 15.6783 13.7739 15.992C13.2153 16.8003 12.5944 17.5664 11.9166 18.2835C11.7477 18.4863 11.5456 18.6607 11.3184 18.7998C11.2108 18.8591 11.0642 18.9422 10.9668 18.8368C10.8499 18.7051 11.0261 18.6211 11.0998 18.5404C11.8751 17.7022 12.5402 16.7849 13.2079 15.8643C13.6892 15.1982 14.0349 14.4646 14.4085 13.7408C14.456 13.6486 14.5534 13.5448 14.456 13.4411C14.3712 13.3538 14.2696 13.4287 14.1797 13.4542C13.7459 13.5761 13.3147 13.7013 12.8817 13.8256C12.7209 13.8749 12.5798 13.9712 12.4775 14.1014C12.2081 14.4119 11.6082 14.4374 11.3294 14.1755C11.1049 13.9648 11.138 13.7803 11.4303 13.7111C12.7478 13.407 14.0296 12.9713 15.255 12.411C15.4422 12.3237 15.7091 12.173 15.7049 12.6457Z" fill="#0033A1"/>
<path d="M13.1028 12.509C12.9897 12.5107 12.8773 12.4905 12.7722 12.4495C12.6672 12.4085 12.5716 12.3475 12.4911 12.2702C12.3581 12.1442 12.2115 11.9952 12.2725 11.8091C12.3335 11.623 12.5411 11.7268 12.6826 11.7086C13.0656 11.6716 13.4172 11.5209 13.7891 11.4468C13.9747 11.4089 14.2018 11.3381 14.3128 11.5687C14.417 11.7836 14.3128 11.9705 14.1433 12.1179C13.8545 12.3629 13.4861 12.5013 13.1028 12.509V12.509Z" fill="#0033A1"/>
<path d="M22.4171 13.1578C22.6256 13.8783 22.8349 14.598 23.0399 15.3193C23.0873 15.4839 23.0009 15.5482 22.8349 15.521C22.8069 15.5161 22.7789 15.5128 22.7501 15.507C21.3699 15.26 21.3656 15.2517 21.896 14.0125C22.0198 13.7249 22.1446 13.4378 22.2706 13.1512L22.4171 13.1578Z" fill="#0033A1"/>
</svg>
