<svg width="31" height="31" viewBox="0 0 31 31" fill="none" xmlns="http://www.w3.org/2000/svg">
<path fill-rule="evenodd" clip-rule="evenodd" d="M15.5 0C6.93959 0 0 6.93959 0 15.5C0 24.0604 6.93959 31 15.5 31C24.0604 31 31 24.0604 31 15.5C31 6.93959 24.0604 0 15.5 0ZM18.2031 15.4778L23.3281 20.3651C23.4297 20.4615 23.4883 20.5914 23.4922 20.725C23.4922 20.8623 23.4336 20.9922 23.332 21.0887L21.8711 22.484C21.7656 22.5879 21.625 22.6362 21.4883 22.6362C21.3477 22.6362 21.2109 22.5842 21.1055 22.484L16 17.619L10.8984 22.4877C10.793 22.5916 10.6523 22.6399 10.5156 22.6399C10.375 22.6399 10.2383 22.5879 10.1328 22.4877L8.67188 21.0924C8.56641 20.9959 8.51172 20.866 8.51172 20.7287C8.51172 20.5914 8.57031 20.4615 8.67188 20.3651L13.793 15.4815L8.65625 10.6573C8.44531 10.4569 8.44531 10.1303 8.65625 9.92991L10.1133 8.53459C10.2148 8.44182 10.3516 8.38616 10.4961 8.38616C10.6406 8.38616 10.7773 8.43811 10.8789 8.53459L16 13.3403L21.1133 8.53088C21.2148 8.43811 21.3516 8.38245 21.4961 8.38245C21.6406 8.38245 21.7773 8.4344 21.8789 8.53088L23.3398 9.9262C23.5508 10.1266 23.5508 10.4531 23.3398 10.6535L18.2031 15.4778Z" fill="white"/>
</svg>
