<?xml version="1.0" encoding="utf-8"?>
<!-- Generator: Adobe Illustrator 22.0.0, SVG Export Plug-In . SVG Version: 6.00 Build 0)  -->
<svg version="1.1" id="Layer_1" xmlns="http://www.w3.org/2000/svg" xmlns:xlink="http://www.w3.org/1999/xlink" x="0px" y="0px"
	 viewBox="0 0 390 108" style="enable-background:new 0 0 390 108;" xml:space="preserve">
<style type="text/css">
	.st0{fill:url(#SVGID_1_);}
	.st1{fill:url(#SVGID_2_);}
	.st2{display:none;}
	.st3{display:inline;fill:#FFFFFF;}
</style>
<g>
	
		<linearGradient id="SVGID_1_" gradientUnits="userSpaceOnUse" x1="0" y1="56.39" x2="390.5" y2="56.39" gradientTransform="matrix(1 0 0 -1 0 107.89)">
		<stop  offset="0" style="stop-color:#74521A"/>
		<stop  offset="0.2987" style="stop-color:#966C23"/>
		<stop  offset="0.7396" style="stop-color:#A57E2E"/>
		<stop  offset="1" style="stop-color:#946423"/>
	</linearGradient>
	<path class="st0" d="M390.5,5C210,104.5,63.2,35.2,0,5v93h390.5V5z"/>
</g>
<linearGradient id="SVGID_2_" gradientUnits="userSpaceOnUse" x1="-2.077491e-03" y1="42.392" x2="390.4979" y2="42.3921" gradientTransform="matrix(1 0 0 -1 0 107.89)">
	<stop  offset="0" style="stop-color:#D2A444"/>
	<stop  offset="0.2987" style="stop-color:#D4A13D"/>
	<stop  offset="0.7396" style="stop-color:#EBBE4A"/>
	<stop  offset="1" style="stop-color:#CB9C45"/>
</linearGradient>
<path class="st1" d="M390.5,23C229.7,95.4,63.2,53.2,0,23v85h390.5V23z"/>
<g class="st2">
	<path class="st3" d="M72.1,88.3c0-2.5-0.1-5.8-0.1-8.6c-0.2,2.8-0.6,6-0.8,8L70.1,97h-1.7l-1.1-9.2c-0.2-2.1-0.6-5.3-0.8-8.2
		c0,2.8-0.1,6.1-0.2,8.7l-0.2,9.1H64l1-26.1h2.6l1,9.4c0.3,3.3,0.7,6.2,0.9,9.1c0.2-2.9,0.5-5.8,0.8-9.1l1-9.4h2.6l0.7,26.1h-2.2
		L72.1,88.3z"/>
	<path class="st3" d="M84,84c0,9.8-1.7,13.8-4,13.8c-2.8,0-3.9-6.3-3.9-13.4c0-7.2,1.3-13.3,4.1-13.3S84,78,84,84z M78.6,84.4
		c0,5.9,0.5,8.9,1.5,8.9c1,0,1.4-3.9,1.4-9.2c0-4.6-0.3-8.7-1.4-8.7C79,75.4,78.6,78.8,78.6,84.4"/>
	<path class="st3" d="M87.1,76.1h-2.2v-4.7h6.8v4.7h-2.2v21.4h-2.4V76.1z"/>
	<path class="st3" d="M95.8,71.4v10.5h2.5V71.4h2.4v26.1h-2.4V86.6h-2.5v10.9h-2.4V71.4H95.8z"/>
	<path class="st3" d="M108.5,86h-2.8v7h3.2v4.4h-5.6V71.4h5.4v4.4h-3v6h2.8V86z"/>
	<path class="st3" d="M110.9,71.8c0.8-0.4,1.7-0.5,2.6-0.6c0.7-0.1,1.3,0.1,1.9,0.4c0.6,0.3,1.1,0.9,1.4,1.5c0.8,1.7,1.1,3.6,1,5.4
		c0.1,1.2,0,2.4-0.3,3.5c-0.3,1.1-0.9,2.2-1.6,3.1v0.1c0.8,0.7,1.3,2.4,1.5,5.2c0.2,2.8,0.6,6.1,0.8,7.1h-2.5
		c-0.1-0.7-0.4-3.4-0.6-6.2c-0.2-3.2-0.6-4.2-1.4-4.2h-0.4v10.4h-2.4V71.8z M113.3,83.1h0.4c1,0,1.7-1.8,1.7-4s-0.4-3.8-1.5-3.9
		c-0.2,0-0.4,0-0.6,0.2L113.3,83.1z"/>
	<path class="st3" d="M122.6,71c-0.5,3.3-1.2,6.6-2.1,9.8l-1.2,0.3c0.6-3.2,1-6.5,1.2-9.7L122.6,71z"/>
	<path class="st3" d="M123.9,92.3c0.5,0.6,1.3,1,2,1c1.1,0,1.7-1.2,1.7-3c0-1.6-0.6-3.1-1.7-4.3c-1.5-2.1-2.3-4.7-2.2-7.3
		c0-4.2,1.3-7.7,3.9-7.7c0.4,0,0.7,0.1,1.1,0.2c0.3,0.2,0.6,0.4,0.9,0.7l-0.5,4.5c-0.2-0.3-0.4-0.5-0.7-0.7
		c-0.3-0.2-0.6-0.2-0.9-0.2c-1,0-1.5,1.3-1.5,2.7c0,0.8,0.1,1.5,0.4,2.2c0.3,0.7,0.7,1.3,1.2,1.8c1.6,2.1,2.4,4.8,2.3,7.5
		c0,4.8-1.7,7.9-4.1,7.9c-0.9,0-1.7-0.4-2.4-1L123.9,92.3z"/>
	<path class="st3" d="M142.7,88.3c0-2.5-0.1-5.8-0.1-8.6c-0.2,2.8-0.5,6-0.8,8l-1.1,9.3H139l-1-9.2c-0.2-2.1-0.6-5.3-0.7-8.2
		c0,2.8-0.1,6.1-0.2,8.7l-0.2,9.1h-2.2l0.9-26.1h2.5l1,9.4c0.3,3.3,0.7,6.2,0.9,9.1c0.2-2.9,0.5-5.8,0.8-9.1l1-9.4h2.6l0.8,26.1
		h-2.2L142.7,88.3z"/>
	<path class="st3" d="M149.6,71.4h-2.4v26.1h2.4V71.4z"/>
	<path class="st3" d="M152.2,71.4h2.4v21.8h3.2v4.3h-5.6V71.4z"/>
	<path class="st3" d="M159.6,71.4h2.4v11.7c0.2-1.1,0.4-2.3,0.6-3.4l1.7-8.4h2.7l-2.7,11.4l2.8,14.7h-2.6l-1.8-10.8l-0.6,2.1v8.7
		h-2.4V71.4z"/>
	<path class="st3" d="M174.1,71.4h-2.4v26.1h2.4V71.4z"/>
	<path class="st3" d="M176.4,92.3c0.6,0.6,1.3,1,2.1,1c1.1,0,1.7-1.2,1.7-3c0-1.6-0.6-3.1-1.7-4.3c-1.6-2.1-2.4-4.6-2.4-7.3
		c0-4.2,1.3-7.7,3.9-7.7c0.4,0,0.7,0.1,1.1,0.2c0.3,0.2,0.6,0.4,0.9,0.7l-0.4,4.5c-0.2-0.3-0.4-0.5-0.7-0.7
		c-0.3-0.2-0.6-0.2-0.9-0.2c-1,0-1.5,1.3-1.5,2.7c0,0.8,0.1,1.5,0.4,2.2c0.3,0.7,0.7,1.3,1.2,1.8c1.6,2.1,2.4,4.8,2.3,7.5
		c0,4.8-1.7,7.9-4.1,7.9c-0.9,0-1.7-0.4-2.4-1L176.4,92.3z"/>
	<path class="st3" d="M187.6,71.8c0.9-0.4,1.8-0.6,2.8-0.6c0.6-0.1,1.3,0.1,1.8,0.4c0.6,0.3,1,0.8,1.3,1.4c0.7,1.5,1,3.1,0.9,4.7
		c0.1,1,0,2.1-0.4,3c-0.3,1-0.8,1.9-1.4,2.6v0.3c1.4,0.9,2.2,3.4,2.2,6.2c0.1,1.8-0.3,3.5-0.9,5.1c-0.3,0.8-0.9,1.6-1.6,2
		c-0.7,0.5-1.6,0.7-2.4,0.6c-0.8,0-1.5-0.1-2.3-0.3V71.8z M190,82.1h0.5c0.9,0,1.5-1.6,1.5-3.7c0-2.1-0.4-3.4-1.4-3.4
		c-0.2,0-0.4,0-0.6,0.2V82.1z M190,93.7c0.2,0.1,0.3,0.1,0.5,0.1c1,0,1.8-1.2,1.8-3.9c0-2.7-0.8-3.9-1.8-4H190V93.7z"/>
	<path class="st3" d="M202.2,86h-2.9v7h3.2v4.4h-5.6V71.4h5.4v4.4h-3v6h2.9V86z"/>
	<path class="st3" d="M204.3,92.3c0.5,0.6,1.3,1,2,1c1.1,0,1.7-1.2,1.7-3c0-1.6-0.6-3.1-1.7-4.3c-1.6-2.1-2.4-4.6-2.4-7.3
		c0-4.2,1.3-7.7,3.9-7.7c0.4,0,0.7,0.1,1.1,0.2c0.3,0.2,0.6,0.4,0.9,0.7l-0.3,4.5c-0.2-0.3-0.4-0.5-0.7-0.7
		c-0.3-0.2-0.6-0.2-0.9-0.2c-1,0-1.5,1.3-1.5,2.7c0,0.8,0.1,1.5,0.4,2.2c0.3,0.7,0.7,1.3,1.2,1.8c1.6,2.1,2.4,4.8,2.3,7.5
		c0,4.8-1.7,7.9-4.1,7.9c-0.9,0-1.7-0.4-2.4-1L204.3,92.3z"/>
	<path class="st3" d="M213.5,76.1h-2.2v-4.7h6.8v4.7h-2.2v21.4h-2.4V76.1z"/>
	<path class="st3" d="M223.1,71.4h5.4v4.4h-3v6.7h2.8v4.2h-2.8v10.7h-2.4V71.4z"/>
	<path class="st3" d="M238.1,84c0,9.8-1.7,13.8-4,13.8c-2.8,0-3.9-6.3-3.9-13.4c0-7.2,1.3-13.3,4.1-13.3
		C237.2,71.1,238.1,78,238.1,84z M232.6,84.4c0,5.9,0.5,8.9,1.5,8.9s1.4-3.9,1.4-9.2c0-4.6-0.3-8.7-1.4-8.7
		C233,75.4,232.6,78.8,232.6,84.4"/>
	<path class="st3" d="M239.9,71.8c0.9-0.4,1.8-0.5,2.7-0.6c0.7-0.1,1.3,0.1,1.9,0.4s1.1,0.9,1.4,1.5c0.8,1.7,1.1,3.6,1,5.4
		c0.2,2.4-0.5,4.7-1.9,6.5v0.1c0.8,0.7,1.3,2.4,1.5,5.2c0.2,2.8,0.6,6.1,0.8,7.1h-2.5c-0.1-0.7-0.4-3.4-0.6-6.2
		c-0.2-3.2-0.6-4.2-1.4-4.2h-0.3v10.4h-2.5V71.8z M242.3,83.1h0.4c1,0,1.7-1.8,1.7-4s-0.4-3.8-1.5-3.9c-0.2,0-0.4,0-0.6,0.2V83.1z"
		/>
	<path class="st3" d="M253.5,97.5v-10l-2.7-16h2.6l0.8,6.2c0.2,1.7,0.5,3.6,0.6,5.5c0.1-1.9,0.3-3.8,0.6-5.6l0.7-6.1h2.5l-2.8,15.8
		v10.2L253.5,97.5z"/>
	<path class="st3" d="M267.1,84c0,9.8-1.7,13.8-4,13.8c-2.8,0-3.9-6.3-3.9-13.4c0-7.2,1.4-13.3,4.1-13.3
		C266.2,71.1,267.1,78,267.1,84z M261.6,84.4c0,5.9,0.5,8.9,1.5,8.9c1,0,1.4-3.9,1.4-9.2c0-4.6-0.3-8.7-1.4-8.7
		C262,75.4,261.6,78.8,261.6,84.4"/>
	<path class="st3" d="M271.4,71v17c0,3.8,0.6,5,1.2,5c0.6,0,1.2-1.1,1.2-5V71h2.4v16c0,6.7-1.2,10.3-3.6,10.3
		c-2.4,0-3.6-3.8-3.6-10.3V71L271.4,71z"/>
	<path class="st3" d="M278.6,71.8c0.8-0.4,1.7-0.5,2.6-0.6c0.7-0.1,1.3,0.1,1.9,0.4c0.6,0.3,1.1,0.9,1.4,1.5c0.8,1.7,1.1,3.6,1,5.4
		c0.2,2.4-0.5,4.7-1.9,6.5v0.1c0.8,0.7,1.3,2.4,1.5,5.2c0.2,2.8,0.6,6.1,0.8,7.1h-2.5c-0.1-0.7-0.4-3.4-0.6-6.2
		c-0.2-3.2-0.6-4.2-1.4-4.2H281v10.4h-2.4V71.8z M281,83.1h0.4c1,0,1.7-1.8,1.7-4s-0.4-3.8-1.5-3.9c-0.2,0-0.4,0-0.6,0.2L281,83.1z"
		/>
	<path class="st3" d="M291,71.8c0.9-0.4,1.8-0.6,2.8-0.6c0.6-0.1,1.3,0.1,1.8,0.4c0.6,0.3,1,0.8,1.3,1.4c0.7,1.5,1,3.1,0.9,4.7
		c0.1,1,0,2.1-0.4,3s-0.8,1.9-1.5,2.6v0.3c1.4,0.9,2.2,3.4,2.2,6.2c0.1,1.8-0.3,3.5-0.9,5.1c-0.3,0.8-0.9,1.6-1.6,2
		c-0.7,0.5-1.6,0.7-2.4,0.6c-0.8,0-1.5-0.1-2.3-0.3V71.8z M293.4,82.1h0.5c0.9,0,1.5-1.6,1.5-3.7c0-2.1-0.4-3.4-1.4-3.4
		c-0.2,0-0.4,0-0.6,0.2V82.1z M293.4,93.7c0.2,0.1,0.4,0.1,0.5,0.1c1,0,1.8-1.2,1.8-3.9c0-2.7-0.9-3.9-1.8-4h-0.5V93.7z"/>
	<path class="st3" d="M302.2,91.5l-0.5,6h-2.3l2.7-26.1h2.9l2.4,26.1H305l-0.5-6H302.2z M304.2,87.6l-0.4-5.5
		c-0.1-1.6-0.3-4.2-0.4-5.9c-0.1,1.8-0.3,4.5-0.4,6l-0.5,5.3L304.2,87.6z"/>
	<path class="st3" d="M309.1,71.8c0.9-0.4,1.8-0.6,2.8-0.6c0.6-0.1,1.3,0.1,1.8,0.4c0.6,0.3,1,0.8,1.3,1.4c0.7,1.5,1,3.1,0.9,4.7
		c0.1,1,0,2.1-0.4,3c-0.3,1-0.8,1.9-1.5,2.6v0.3c1.4,0.9,2.2,3.4,2.2,6.2c0.1,1.8-0.2,3.5-0.9,5.1c-0.3,0.9-0.9,1.6-1.7,2.1
		c-0.7,0.5-1.6,0.7-2.5,0.6c-0.8,0-1.5-0.1-2.3-0.3L309.1,71.8z M311.5,82.1h0.5c0.9,0,1.5-1.6,1.5-3.7c0-2.1-0.4-3.4-1.4-3.4
		c-0.2,0-0.4,0-0.6,0.2V82.1z M311.5,93.7c0.2,0.1,0.4,0.1,0.5,0.1c1,0,1.8-1.2,1.8-3.9c0-2.7-0.8-3.9-1.8-4h-0.5V93.7z"/>
	<path class="st3" d="M319.7,97.5v-10l-2.7-16h2.6l0.9,6.2c0.2,1.7,0.4,3.6,0.6,5.5c0.1-1.9,0.3-3.8,0.6-5.6l0.7-6.1h2.5l-2.8,15.8
		v10.2L319.7,97.5z"/>
	<path class="st3" d="M326,97.8c-0.7,0-1.4-1.3-1.4-3.4c0-2,0.7-3.4,1.4-3.4c0.7,0,1.4,1.3,1.4,3.4C327.5,96.5,326.9,97.8,326,97.8
		L326,97.8z"/>
</g>
</svg>
