<svg width="72" height="87" viewBox="0 0 72 87" fill="none" xmlns="http://www.w3.org/2000/svg">
<path d="M33.9739 26.0151L43.2162 25.7243L43.2866 28.0336L34.0443 28.3244L33.9739 26.0151ZM21.1704 9.16994L18.9357 9.75965L21.2965 18.7057L23.5311 18.116L21.1704 9.16994ZM36.751 13.0651L34.8883 11.6898L29.4271 19.1457L31.2899 20.5211L36.751 13.0651ZM17.3086 32.6626L16.2305 30.6193L8.04806 34.9267L9.12625 36.9699L17.3086 32.6626ZM62.8055 40.0445L66.3476 53.4673C69.1208 63.9761 62.8634 74.7199 52.3472 77.495C45.1904 79.3836 37.149 77.9202 29.5872 70.1045C18.9626 58.7929 7.26084 52.5461 10.5562 46.8881C12.8624 42.9284 18.6113 44.7625 24.1425 47.6069L18.8911 27.7065C18.0643 24.5736 19.8706 21.4723 23.0035 20.6455C26.1365 19.8188 29.2378 21.6251 30.0645 24.758L33.015 35.9387C33.7305 35.0391 34.7265 34.2841 36.0702 33.9295C38.3049 33.3398 40.6678 34.1536 42.1558 36.1512C43.0434 34.9562 44.2549 34.16 45.5987 33.8054C48.7316 32.9787 51.8329 34.7849 52.6597 37.9179C53.3752 37.0182 54.3712 36.2632 55.7149 35.9086C58.8682 35.1 61.9788 36.9116 62.8055 40.0445ZM60.5708 40.6342C60.0987 38.845 58.1142 37.6892 56.325 38.1614C54.5358 38.6335 53.3873 40.6161 53.8595 42.4053L54.1562 43.5299L51.9216 44.1196L50.4473 38.5329C49.9751 36.7437 47.9907 35.5879 46.2088 36.0581C44.4269 36.5284 43.2711 38.5128 43.7432 40.302L44.6297 43.6614L42.395 44.2511L40.9207 38.6644C40.4486 36.8751 38.4661 35.7267 36.6842 36.1969C34.9022 36.6671 33.7465 38.6516 34.2167 40.4335L36.2807 48.2549L34.046 48.8446L27.8444 25.3439C27.3723 23.5546 25.3897 22.4062 23.6005 22.8783C21.8113 23.3505 20.6628 25.333 21.133 27.1149L27.801 52.3829C21.799 48.7019 14.3503 44.9261 12.5479 48.042C10.9535 51.0874 18.9758 56.1491 31.3692 68.6578C37.1064 74.0882 43.2657 77.4778 51.7663 75.2346C60.9315 72.816 66.4082 62.7547 64.1091 54.0424L61.8659 45.5418L60.5708 40.6342ZM16.9707 22.4719L8.54173 18.6813L7.60016 20.7968L16.0291 24.5873L16.9707 22.4719Z" fill="#FFCC6C"/>
</svg>
