<svg width="390" height="87" viewBox="0 0 390 87" fill="none" xmlns="http://www.w3.org/2000/svg">
<g filter="url(#filter0_d_39_745)">
<path d="M0 0H390V79C390 79 268.766 64.9591 192 65C115.622 65.0407 0 79 0 79V0Z" fill="url(#paint0_linear_39_745)"/>
</g>
<path fill-rule="evenodd" clip-rule="evenodd" d="M177.428 65.1604C192.252 52.7724 201 37.5091 201 21C201 13.7103 199.294 6.66358 196.113 0H0L0 78.9938C0.00331635 78.9955 0.00663284 78.9971 0.00994947 78.9988C1.1625 78.8599 102.207 66.7037 177.428 65.1604Z" fill="white"/>
<path d="M53.7188 34.3496H50.1152L50.0957 32.8359H53.3672C53.9076 32.8359 54.3796 32.7448 54.7832 32.5625C55.1868 32.3802 55.4993 32.1198 55.7207 31.7812C55.9486 31.4362 56.0625 31.026 56.0625 30.5508C56.0625 30.0299 55.9616 29.6068 55.7598 29.2812C55.5645 28.9492 55.2617 28.7083 54.8516 28.5586C54.4479 28.4023 53.9336 28.3242 53.3086 28.3242H50.5352V41H48.6504V26.7812H53.3086C54.0378 26.7812 54.6888 26.8561 55.2617 27.0059C55.8346 27.1491 56.3197 27.377 56.7168 27.6895C57.1204 27.9954 57.4264 28.3861 57.6348 28.8613C57.8431 29.3366 57.9473 29.9062 57.9473 30.5703C57.9473 31.1562 57.7975 31.6868 57.498 32.1621C57.1986 32.6309 56.7819 33.015 56.248 33.3145C55.7207 33.6139 55.1022 33.806 54.3926 33.8906L53.7188 34.3496ZM53.6309 41H49.373L50.4375 39.4668H53.6309C54.2298 39.4668 54.7376 39.3626 55.1543 39.1543C55.5775 38.946 55.8997 38.653 56.1211 38.2754C56.3424 37.8913 56.4531 37.4388 56.4531 36.918C56.4531 36.3906 56.3587 35.9349 56.1699 35.5508C55.9811 35.1667 55.6849 34.8704 55.2812 34.6621C54.8776 34.4538 54.3568 34.3496 53.7188 34.3496H51.0332L51.0527 32.8359H54.7246L55.125 33.3828C55.8086 33.4414 56.388 33.6367 56.8633 33.9688C57.3385 34.2943 57.6999 34.7109 57.9473 35.2188C58.2012 35.7266 58.3281 36.2865 58.3281 36.8984C58.3281 37.7839 58.1328 38.5326 57.7422 39.1445C57.3581 39.75 56.8145 40.2122 56.1113 40.5312C55.4082 40.8438 54.5814 41 53.6309 41ZM64.7427 41.1953C64.007 41.1953 63.3397 41.0716 62.7407 40.8242C62.1483 40.5703 61.6372 40.2155 61.2075 39.7598C60.7843 39.304 60.4588 38.7637 60.2309 38.1387C60.0031 37.5137 59.8891 36.8301 59.8891 36.0879V35.6777C59.8891 34.8184 60.0161 34.0534 60.27 33.3828C60.5239 32.7057 60.869 32.1328 61.3052 31.6641C61.7414 31.1953 62.2361 30.8405 62.7895 30.5996C63.3429 30.3587 63.9158 30.2383 64.5083 30.2383C65.2635 30.2383 65.9145 30.3685 66.4614 30.6289C67.0148 30.8893 67.4673 31.2539 67.8188 31.7227C68.1704 32.1849 68.4308 32.7318 68.6001 33.3633C68.7693 33.9883 68.854 34.6719 68.854 35.4141V36.2246H60.9634V34.75H67.0473V34.6133C67.0213 34.1445 66.9236 33.6888 66.7544 33.2461C66.5916 32.8034 66.3312 32.4388 65.9731 32.1523C65.6151 31.8659 65.1268 31.7227 64.5083 31.7227C64.0981 31.7227 63.7205 31.8105 63.3755 31.9863C63.0304 32.1556 62.7342 32.4095 62.4868 32.748C62.2394 33.0866 62.0473 33.5 61.9106 33.9883C61.7739 34.4766 61.7055 35.0397 61.7055 35.6777V36.0879C61.7055 36.5892 61.7739 37.0612 61.9106 37.5039C62.0539 37.9401 62.2589 38.3242 62.5259 38.6562C62.7993 38.9883 63.1281 39.2487 63.5122 39.4375C63.9028 39.6263 64.3455 39.7207 64.8403 39.7207C65.4783 39.7207 66.0187 39.5905 66.4614 39.3301C66.9041 39.0697 67.2915 38.7214 67.6235 38.2852L68.7173 39.1543C68.4894 39.4993 68.1997 39.8281 67.8481 40.1406C67.4966 40.4531 67.0636 40.707 66.5493 40.9023C66.0415 41.0977 65.4393 41.1953 64.7427 41.1953ZM74.9072 30.4336V31.8203H69.1943V30.4336H74.9072ZM71.1279 27.8652H72.9345V38.3828C72.9345 38.7409 72.9899 39.0111 73.1005 39.1934C73.2112 39.3757 73.3545 39.4961 73.5302 39.5547C73.706 39.6133 73.8948 39.6426 74.0966 39.6426C74.2464 39.6426 74.4026 39.6296 74.5654 39.6035C74.7347 39.571 74.8616 39.5449 74.9463 39.5254L74.956 41C74.8128 41.0456 74.624 41.0879 74.3896 41.127C74.1617 41.1725 73.8851 41.1953 73.5595 41.1953C73.1168 41.1953 72.7099 41.1074 72.3388 40.9316C71.9677 40.7559 71.6715 40.4629 71.4502 40.0527C71.2353 39.6361 71.1279 39.0762 71.1279 38.373V27.8652ZM82.7768 39.1934V33.7539C82.7768 33.3372 82.6922 32.9759 82.5229 32.6699C82.3601 32.3574 82.1127 32.1165 81.7807 31.9473C81.4487 31.778 81.0385 31.6934 80.5502 31.6934C80.0945 31.6934 79.6941 31.7715 79.3491 31.9277C79.0105 32.084 78.7436 32.2891 78.5483 32.543C78.3595 32.7969 78.2651 33.0703 78.2651 33.3633H76.4584C76.4584 32.9857 76.5561 32.6113 76.7514 32.2402C76.9467 31.8691 77.2267 31.5339 77.5912 31.2344C77.9623 30.9284 78.4051 30.6875 78.9194 30.5117C79.4402 30.3294 80.0196 30.2383 80.6577 30.2383C81.4259 30.2383 82.103 30.3685 82.6889 30.6289C83.2814 30.8893 83.7436 31.2832 84.0756 31.8105C84.4142 32.3314 84.5834 32.9857 84.5834 33.7734V38.6953C84.5834 39.0469 84.6127 39.4212 84.6713 39.8184C84.7364 40.2155 84.8308 40.5573 84.9545 40.8438V41H83.0698C82.9786 40.7917 82.907 40.515 82.8549 40.1699C82.8028 39.8184 82.7768 39.4928 82.7768 39.1934ZM83.0893 34.5938L83.1088 35.8633H81.2827C80.7683 35.8633 80.3093 35.9056 79.9057 35.9902C79.5021 36.0684 79.1635 36.1888 78.8901 36.3516C78.6166 36.5143 78.4083 36.7194 78.2651 36.9668C78.1218 37.2077 78.0502 37.4909 78.0502 37.8164C78.0502 38.1484 78.1251 38.4512 78.2748 38.7246C78.4246 38.998 78.6492 39.2161 78.9487 39.3789C79.2547 39.5352 79.629 39.6133 80.0717 39.6133C80.6251 39.6133 81.1134 39.4961 81.5366 39.2617C81.9597 39.0273 82.295 38.7409 82.5424 38.4023C82.7963 38.0638 82.933 37.735 82.9526 37.416L83.7241 38.2852C83.6785 38.5586 83.5548 38.8613 83.353 39.1934C83.1511 39.5254 82.881 39.8444 82.5424 40.1504C82.2104 40.4499 81.8133 40.7005 81.351 40.9023C80.8953 41.0977 80.381 41.1953 79.808 41.1953C79.0919 41.1953 78.4636 41.0553 77.9233 40.7754C77.3894 40.4954 76.9728 40.1211 76.6733 39.6523C76.3803 39.1771 76.2338 38.6465 76.2338 38.0605C76.2338 37.4941 76.3445 36.9961 76.5659 36.5664C76.7872 36.1302 77.1062 35.7689 77.5229 35.4824C77.9396 35.1895 78.4409 34.9681 79.0268 34.8184C79.6127 34.6686 80.267 34.5938 80.9897 34.5938H83.0893ZM94.6391 39.3691L97.5297 30.4336H99.3754L95.5766 41H94.3656L94.6391 39.3691ZM92.227 30.4336L95.2055 39.418L95.4105 41H94.1996L90.3715 30.4336H92.227ZM106.376 26.7031V41H104.569V28.959L100.927 30.2871V28.6562L106.093 26.7031H106.376Z" fill="black"/>
<defs>
<filter id="filter0_d_39_745" x="-4" y="0" width="398" height="87" filterUnits="userSpaceOnUse" color-interpolation-filters="sRGB">
<feFlood flood-opacity="0" result="BackgroundImageFix"/>
<feColorMatrix in="SourceAlpha" type="matrix" values="0 0 0 0 0 0 0 0 0 0 0 0 0 0 0 0 0 0 127 0" result="hardAlpha"/>
<feOffset dy="4"/>
<feGaussianBlur stdDeviation="2"/>
<feComposite in2="hardAlpha" operator="out"/>
<feColorMatrix type="matrix" values="0 0 0 0 0 0 0 0 0 0 0 0 0 0 0 0 0 0 0.25 0"/>
<feBlend mode="normal" in2="BackgroundImageFix" result="effect1_dropShadow_39_745"/>
<feBlend mode="normal" in="SourceGraphic" in2="effect1_dropShadow_39_745" result="shape"/>
</filter>
<linearGradient id="paint0_linear_39_745" x1="-2.85853e-06" y1="38.7255" x2="390" y2="38.7255" gradientUnits="userSpaceOnUse">
<stop stop-color="#D2A444"/>
<stop offset="0.298728" stop-color="#D4A13D"/>
<stop offset="0.739583" stop-color="#EBBE4A"/>
<stop offset="1" stop-color="#CB9C45"/>
</linearGradient>
</defs>
</svg>
