<svg width="38" height="50" viewBox="0 0 38 50" fill="none" xmlns="http://www.w3.org/2000/svg">
<path d="M0.442139 42.6043V12.9114C1.47382 12.5129 2.49307 12.0545 3.54074 11.7157C4.25102 11.4806 4.52448 11.0521 4.51382 10.2171C4.48008 7.56272 4.49429 4.91028 4.51382 2.25586C4.51382 1.15782 4.63279 1.07213 5.54018 1.43084C8.68494 2.66439 11.8759 3.78634 14.9656 5.20124C16.9704 6.11394 18.7567 6.19764 20.8094 5.30088C24.7977 3.56115 28.8889 2.11238 32.9375 0.555992H33.8253C34.0721 1.00637 34.0544 1.50656 34.0544 2.00477C34.0544 5.09163 34.0739 8.18248 34.0437 11.2654C34.0437 12.0226 34.271 12.4272 34.9316 12.6205C35.8194 12.8815 36.686 13.2183 37.5614 13.5093V42.6043C37.0091 42.6701 36.5226 42.3911 36.0219 42.2057C30.6178 40.2833 25.2185 38.3503 19.8239 36.4067C19.2411 36.181 18.6069 36.1859 18.0269 36.4206C12.7093 38.4453 7.38809 40.4421 2.06335 42.411C1.54307 42.6043 1.01924 42.9351 0.442139 42.6043ZM18.0056 21.4905C18.0056 17.2391 18.0056 12.9918 18.0056 8.74844C18.0056 8.11074 18.018 7.6225 17.187 7.93737C12.2624 9.80662 7.3289 11.6486 2.38653 13.4634C1.74728 13.6986 1.49868 14.0872 1.49868 14.8325C1.51289 23.2282 1.49868 31.6239 1.51111 40.0176C1.51111 41.1376 1.64606 41.2313 2.61915 40.8686C7.41354 39.075 12.2079 37.2715 17.0023 35.5099C17.7463 35.2369 18.0163 34.8044 18.0091 33.9336C17.9878 29.7846 18.0056 25.6375 18.0056 21.4905ZM33.4915 32.983L32.7244 29.8922C31.6803 25.6727 30.6373 21.4533 29.5956 17.2338C29.3363 16.1916 28.6474 15.6396 27.4648 15.5639C26.6195 15.5081 26.7136 16.3909 26.5272 16.8931C25.1315 20.6256 23.7891 24.384 22.4271 28.1325C21.8944 29.6251 21.8944 29.5833 23.2208 30.0934C23.9222 30.3625 24.3502 30.2708 24.5615 29.4199C24.6396 29.103 24.8065 28.822 24.8918 28.4992C25.1013 27.718 25.4635 27.4271 26.2058 27.7599C26.913 28.1006 27.6531 28.348 28.4112 28.4972C30.0395 28.7642 30.8634 29.7327 31.0748 31.5761C31.2204 32.8037 32.0265 33.3836 33.131 33.4354C33.4134 33.4374 33.5412 33.3716 33.4915 32.983ZM19.6819 7.00473C19.8594 7.16814 19.8985 7.22792 19.9482 7.24586C24.0004 8.70061 28.0519 10.1554 32.1029 11.6101C32.8132 11.8672 32.9055 11.4746 32.9019 10.8249C32.8895 8.27016 32.9019 5.71737 32.9019 3.16259C32.9019 2.0506 32.8433 2.00477 31.8809 2.36546C28.7462 3.55318 25.6127 4.74887 22.4804 5.95253L19.6819 7.00473Z" fill="#0033A1"/>
<path d="M16.4234 48.782C13.8433 48.3117 11.3449 47.5564 9.04008 46.1196C8.78003 45.9626 8.52754 45.7903 8.28363 45.6035C8.01017 45.3883 7.74026 45.1252 7.95157 44.7027C8.16288 44.2803 8.48428 44.366 8.80036 44.5433C9.06494 44.6928 9.32064 44.8602 9.58167 45.0136C15.1805 48.2758 20.8147 48.5469 26.4881 45.2587C27.5677 44.633 27.5819 44.6071 26.9782 43.4433C26.639 42.7916 26.6568 42.4708 27.4239 42.5525C28.2194 42.6362 29.022 42.696 29.8087 42.7737C30.3041 42.8215 30.5918 43.0228 30.3804 43.6705C30.0555 44.6669 29.7643 45.6772 29.4589 46.6816C29.2813 47.2476 29.0256 47.3412 28.8019 46.7553C28.4059 45.7231 27.914 45.743 27.1078 46.2771C25.0214 47.6601 22.7041 48.3336 20.33 48.782H16.4234Z" fill="#0033A1"/>
<path d="M14.1754 18.9795C14.0937 19.2067 13.9978 19.5515 13.854 19.8783C13.1597 21.5283 12.4441 23.1744 11.5207 24.677C11.0324 25.4741 11.2082 25.781 11.9433 26.0879C13.0496 26.5502 14.1239 27.1102 15.2106 27.6343C15.4788 27.7658 15.7895 27.8456 15.9564 28.1425C16.166 28.5092 16.3844 28.9675 16.189 29.3501C15.9547 29.8045 15.5462 29.4817 15.2408 29.3501C13.8883 28.758 12.6329 27.9175 11.5261 26.8631C10.9383 26.2912 10.5707 26.3191 10.1286 27.0783C8.95787 29.0347 7.65669 30.8887 6.23624 32.6243C5.88224 33.1152 5.45871 33.5373 4.98259 33.8738C4.75708 34.0173 4.44988 34.2186 4.24568 33.9635C4.00063 33.6446 4.36998 33.4414 4.52446 33.2461C6.14923 31.2174 7.54316 28.9974 8.94241 26.7694C9.95101 25.1573 10.6755 23.3817 11.4586 21.63C11.558 21.4068 11.7622 21.1557 11.558 20.9046C11.3804 20.6934 11.1674 20.8747 10.9791 20.9365C10.07 21.2314 9.16615 21.5343 8.25876 21.8352C7.92186 21.9545 7.62602 22.1876 7.41175 22.5028C6.84708 23.2541 5.58988 23.3159 5.00568 22.6822C4.53512 22.172 4.60437 21.7256 5.21699 21.5582C7.97827 20.822 10.6644 19.7675 13.2325 18.4116C13.6249 18.2003 14.1843 17.8357 14.1754 18.9795Z" fill="#0033A1"/>
<path d="M8.72219 18.6487C8.48499 18.6529 8.24944 18.6039 8.02931 18.5047C7.80917 18.4054 7.60888 18.2579 7.44014 18.0708C7.16135 17.7659 6.85415 17.4052 6.982 16.9548C7.10985 16.5045 7.5449 16.7556 7.84144 16.7117C8.64406 16.622 9.38098 16.2574 10.1605 16.078C10.5494 15.9863 11.0253 15.8149 11.2579 16.3729C11.4763 16.8931 11.2579 17.3454 10.9028 17.7021C10.2974 18.2951 9.5255 18.6301 8.72219 18.6487Z" fill="#0033A1"/>
<path d="M28.2425 20.2191C28.6793 21.9628 29.1179 23.7045 29.5476 25.4502C29.6471 25.8488 29.4659 26.0042 29.1179 25.9384C29.0593 25.9265 29.0007 25.9185 28.9403 25.9046C26.0477 25.3067 26.0388 25.2868 27.1504 22.2876C27.4097 21.5914 27.6713 20.8966 27.9353 20.2031L28.2425 20.2191Z" fill="#0033A1"/>
</svg>
