<svg width="390" height="844" viewBox="0 0 390 844" fill="none" xmlns="http://www.w3.org/2000/svg">
<rect width="390" height="844" fill="white"/>
<path d="M57 234C57 215.222 72.2223 200 91 200H186.219V221.585C186.219 240.363 170.997 255.585 152.219 255.585H57V234Z" fill="#E89E1F" stroke="#976925" stroke-width="2"/>
<path d="M94.7703 227.58H98.6303C98.8836 227.58 99.0903 227.514 99.2503 227.38C99.4103 227.247 99.4903 227.04 99.4903 226.76C99.4903 226.48 99.4103 226.274 99.2503 226.14C99.0903 226.007 98.8836 225.94 98.6303 225.94H94.7703V221.28H99.0103C99.2636 221.28 99.4703 221.214 99.6303 221.08C99.7903 220.947 99.8703 220.74 99.8703 220.46C99.8703 220.18 99.7903 219.974 99.6303 219.84C99.4703 219.707 99.2636 219.64 99.0103 219.64H93.9503C93.6169 219.64 93.3769 219.734 93.2303 219.92C93.0836 220.107 93.0103 220.334 93.0103 220.6V232.92C93.0103 233.187 93.0836 233.414 93.2303 233.6C93.3769 233.787 93.6169 233.88 93.9503 233.88H99.0103C99.2636 233.88 99.4703 233.814 99.6303 233.68C99.7903 233.547 99.8703 233.34 99.8703 233.06C99.8703 232.78 99.7903 232.574 99.6303 232.44C99.4703 232.307 99.2636 232.24 99.0103 232.24H94.7703V227.58ZM101.897 233.06C101.897 233.354 101.977 233.587 102.137 233.76C102.297 233.92 102.51 234 102.777 234C103.044 234 103.257 233.92 103.417 233.76C103.577 233.587 103.657 233.354 103.657 233.06V227.26C103.657 226.794 103.73 226.394 103.877 226.06C104.024 225.727 104.21 225.46 104.437 225.26C104.677 225.047 104.944 224.894 105.237 224.8C105.53 224.694 105.824 224.64 106.117 224.64C106.41 224.64 106.704 224.694 106.997 224.8C107.29 224.894 107.55 225.047 107.777 225.26C108.017 225.46 108.21 225.727 108.357 226.06C108.504 226.394 108.577 226.794 108.577 227.26V233.06C108.577 233.354 108.657 233.587 108.817 233.76C108.977 233.92 109.19 234 109.457 234C109.724 234 109.937 233.92 110.097 233.76C110.257 233.587 110.337 233.354 110.337 233.06V227.16C110.337 226.414 110.217 225.787 109.977 225.28C109.75 224.76 109.457 224.34 109.097 224.02C108.737 223.7 108.337 223.474 107.897 223.34C107.47 223.194 107.05 223.12 106.637 223.12C106.104 223.12 105.577 223.227 105.057 223.44C104.537 223.654 104.084 224.014 103.697 224.52L103.657 224.48V224.06C103.657 223.767 103.577 223.54 103.417 223.38C103.257 223.207 103.044 223.12 102.777 223.12C102.51 223.12 102.297 223.207 102.137 223.38C101.977 223.54 101.897 223.767 101.897 224.06V233.06ZM121.379 223.98C121.379 223.674 121.285 223.454 121.099 223.32C120.912 223.187 120.732 223.12 120.559 223.12C120.319 223.12 120.099 223.187 119.899 223.32C119.712 223.454 119.619 223.674 119.619 223.98V224.46H119.579C119.459 224.3 119.305 224.14 119.119 223.98C118.932 223.82 118.719 223.68 118.479 223.56C118.239 223.427 117.979 223.32 117.699 223.24C117.432 223.16 117.159 223.12 116.879 223.12C116.132 223.12 115.465 223.274 114.879 223.58C114.305 223.874 113.819 224.274 113.419 224.78C113.019 225.287 112.712 225.867 112.499 226.52C112.299 227.174 112.199 227.854 112.199 228.56C112.199 229.267 112.299 229.947 112.499 230.6C112.712 231.254 113.019 231.834 113.419 232.34C113.819 232.847 114.305 233.254 114.879 233.56C115.465 233.854 116.132 234 116.879 234C117.479 234 118.012 233.867 118.479 233.6C118.945 233.32 119.312 232.947 119.579 232.48H119.619V233.4C119.619 233.787 119.572 234.174 119.479 234.56C119.385 234.947 119.225 235.294 118.999 235.6C118.785 235.92 118.492 236.18 118.119 236.38C117.745 236.58 117.279 236.68 116.719 236.68C116.239 236.68 115.825 236.614 115.479 236.48C115.132 236.36 114.825 236.22 114.559 236.06C114.292 235.9 114.052 235.754 113.839 235.62C113.639 235.5 113.439 235.44 113.239 235.44C112.959 235.44 112.765 235.527 112.659 235.7C112.552 235.887 112.499 236.074 112.499 236.26C112.499 236.487 112.625 236.714 112.879 236.94C113.132 237.167 113.459 237.374 113.859 237.56C114.259 237.747 114.699 237.9 115.179 238.02C115.659 238.14 116.125 238.2 116.579 238.2C117.299 238.2 117.952 238.08 118.539 237.84C119.139 237.614 119.645 237.28 120.059 236.84C120.485 236.4 120.812 235.867 121.039 235.24C121.265 234.614 121.379 233.907 121.379 233.12V223.98ZM113.959 228.56C113.959 228.107 114.005 227.654 114.099 227.2C114.205 226.734 114.372 226.314 114.599 225.94C114.839 225.554 115.145 225.24 115.519 225C115.892 224.76 116.345 224.64 116.879 224.64C117.425 224.64 117.879 224.76 118.239 225C118.612 225.24 118.912 225.554 119.139 225.94C119.379 226.314 119.545 226.734 119.639 227.2C119.745 227.654 119.799 228.107 119.799 228.56C119.799 229.014 119.745 229.474 119.639 229.94C119.545 230.394 119.379 230.814 119.139 231.2C118.912 231.574 118.612 231.88 118.239 232.12C117.879 232.36 117.425 232.48 116.879 232.48C116.345 232.48 115.892 232.36 115.519 232.12C115.145 231.88 114.839 231.574 114.599 231.2C114.372 230.814 114.205 230.394 114.099 229.94C114.005 229.474 113.959 229.014 113.959 228.56ZM125.532 219.38C125.532 219.087 125.452 218.86 125.292 218.7C125.132 218.527 124.919 218.44 124.652 218.44C124.385 218.44 124.172 218.527 124.012 218.7C123.852 218.86 123.772 219.087 123.772 219.38V233.06C123.772 233.354 123.852 233.587 124.012 233.76C124.172 233.92 124.385 234 124.652 234C124.919 234 125.132 233.92 125.292 233.76C125.452 233.587 125.532 233.354 125.532 233.06V219.38ZM129.614 224.06C129.614 223.767 129.534 223.54 129.374 223.38C129.214 223.207 129.001 223.12 128.734 223.12C128.467 223.12 128.254 223.207 128.094 223.38C127.934 223.54 127.854 223.767 127.854 224.06V233.06C127.854 233.354 127.934 233.587 128.094 233.76C128.254 233.92 128.467 234 128.734 234C129.001 234 129.214 233.92 129.374 233.76C129.534 233.587 129.614 233.354 129.614 233.06V224.06ZM127.654 220.6C127.654 220.907 127.754 221.167 127.954 221.38C128.167 221.58 128.427 221.68 128.734 221.68C129.041 221.68 129.294 221.58 129.494 221.38C129.707 221.167 129.814 220.907 129.814 220.6C129.814 220.294 129.707 220.04 129.494 219.84C129.294 219.627 129.041 219.52 128.734 219.52C128.427 219.52 128.167 219.627 127.954 219.84C127.754 220.04 127.654 220.294 127.654 220.6ZM131.696 226.12C131.696 226.614 131.836 227.034 132.116 227.38C132.396 227.714 132.743 228.007 133.156 228.26C133.583 228.5 134.043 228.72 134.536 228.92C135.029 229.107 135.483 229.3 135.896 229.5C136.323 229.7 136.676 229.92 136.956 230.16C137.236 230.4 137.376 230.694 137.376 231.04C137.376 231.4 137.189 231.734 136.816 232.04C136.456 232.334 135.956 232.48 135.316 232.48C134.836 232.48 134.429 232.414 134.096 232.28C133.763 232.147 133.469 232 133.216 231.84C132.963 231.667 132.743 231.514 132.556 231.38C132.369 231.247 132.176 231.18 131.976 231.18C131.789 231.18 131.623 231.254 131.476 231.4C131.329 231.547 131.256 231.74 131.256 231.98C131.256 232.207 131.356 232.44 131.556 232.68C131.769 232.92 132.056 233.14 132.416 233.34C132.776 233.527 133.196 233.687 133.676 233.82C134.169 233.94 134.696 234 135.256 234C135.749 234 136.229 233.934 136.696 233.8C137.163 233.667 137.576 233.467 137.936 233.2C138.296 232.92 138.583 232.58 138.796 232.18C139.023 231.767 139.136 231.28 139.136 230.72C139.136 230.2 138.996 229.767 138.716 229.42C138.436 229.074 138.083 228.78 137.656 228.54C137.243 228.287 136.789 228.074 136.296 227.9C135.803 227.714 135.343 227.534 134.916 227.36C134.503 227.174 134.156 226.974 133.876 226.76C133.596 226.547 133.456 226.287 133.456 225.98C133.456 225.527 133.636 225.194 133.996 224.98C134.369 224.754 134.809 224.64 135.316 224.64C135.743 224.64 136.089 224.7 136.356 224.82C136.623 224.927 136.849 225.047 137.036 225.18C137.223 225.314 137.389 225.44 137.536 225.56C137.696 225.667 137.869 225.72 138.056 225.72C138.323 225.72 138.523 225.647 138.656 225.5C138.789 225.354 138.856 225.187 138.856 225C138.856 224.72 138.736 224.467 138.496 224.24C138.269 224.014 137.983 223.82 137.636 223.66C137.289 223.487 136.903 223.354 136.476 223.26C136.063 223.167 135.676 223.12 135.316 223.12C134.876 223.12 134.436 223.187 133.996 223.32C133.569 223.44 133.183 223.627 132.836 223.88C132.503 224.134 132.229 224.447 132.016 224.82C131.803 225.194 131.696 225.627 131.696 226.12ZM147.503 233.06C147.503 233.354 147.583 233.587 147.743 233.76C147.903 233.92 148.116 234 148.383 234C148.649 234 148.863 233.92 149.023 233.76C149.183 233.587 149.263 233.354 149.263 233.06V227.16C149.263 226.414 149.143 225.787 148.903 225.28C148.676 224.76 148.383 224.34 148.023 224.02C147.663 223.7 147.263 223.474 146.823 223.34C146.396 223.194 145.976 223.12 145.563 223.12C145.029 223.12 144.503 223.227 143.983 223.44C143.463 223.654 143.009 224.014 142.623 224.52L142.583 224.48V219.38C142.583 219.087 142.503 218.86 142.343 218.7C142.183 218.527 141.969 218.44 141.703 218.44C141.436 218.44 141.223 218.527 141.063 218.7C140.903 218.86 140.823 219.087 140.823 219.38V233.06C140.823 233.354 140.903 233.587 141.063 233.76C141.223 233.92 141.436 234 141.703 234C141.969 234 142.183 233.92 142.343 233.76C142.503 233.587 142.583 233.354 142.583 233.06V227.26C142.583 226.794 142.656 226.394 142.803 226.06C142.949 225.727 143.136 225.46 143.363 225.26C143.603 225.047 143.869 224.894 144.163 224.8C144.456 224.694 144.749 224.64 145.043 224.64C145.336 224.64 145.629 224.694 145.923 224.8C146.216 224.894 146.476 225.047 146.703 225.26C146.943 225.46 147.136 225.727 147.283 226.06C147.429 226.394 147.503 226.794 147.503 227.26V233.06Z" fill="#0033A1"/>
<path d="M204.267 234C204.267 215.222 219.49 200 238.267 200H333.486V221.585C333.486 240.363 318.264 255.585 299.486 255.585H204.267V234Z" fill="#FCD99D" fill-opacity="0.9" stroke="#976925" stroke-width="2"/>
<path d="M260.34 223.553H258.289V237H257.039V223.553H254.705V222.439H256.99C256.808 221.997 256.671 221.57 256.58 221.16C256.495 220.75 256.453 220.359 256.453 219.988C256.453 219.526 256.525 219.1 256.668 218.709C256.811 218.318 257.029 217.983 257.322 217.703C257.622 217.423 257.996 217.205 258.445 217.049C258.901 216.893 259.435 216.814 260.047 216.814C260.919 216.814 261.782 216.974 262.635 217.293C263.494 217.612 264.337 218.038 265.164 218.572C265.991 219.1 266.798 219.708 267.586 220.398C268.38 221.089 269.148 221.805 269.891 222.547H268.426C268.27 222.397 268.042 222.182 267.742 221.902C267.443 221.616 267.088 221.307 266.678 220.975C266.274 220.636 265.822 220.291 265.32 219.939C264.819 219.588 264.285 219.269 263.719 218.982C263.159 218.696 262.576 218.462 261.971 218.279C261.372 218.097 260.763 218.006 260.145 218.006C259.663 218.006 259.262 218.064 258.943 218.182C258.631 218.292 258.38 218.449 258.191 218.65C258.009 218.846 257.879 219.077 257.801 219.344C257.723 219.604 257.684 219.881 257.684 220.174C257.684 220.786 257.84 221.541 258.152 222.439H260.34V223.553ZM267.156 234.402C267.352 234.344 267.557 234.269 267.771 234.178C267.993 234.087 268.195 233.966 268.377 233.816C268.566 233.66 268.722 233.471 268.846 233.25C268.969 233.029 269.031 232.758 269.031 232.439C269.031 232.12 268.966 231.84 268.836 231.6C268.712 231.352 268.53 231.147 268.289 230.984C268.048 230.822 267.758 230.701 267.42 230.623C267.081 230.538 266.704 230.496 266.287 230.496C265.929 230.496 265.561 230.532 265.184 230.604C264.806 230.675 264.464 230.809 264.158 231.004C263.852 231.193 263.598 231.456 263.396 231.795C263.201 232.127 263.104 232.557 263.104 233.084C263.104 233.611 263.204 234.1 263.406 234.549C263.608 234.992 263.868 235.398 264.188 235.77C264.507 236.134 264.861 236.463 265.252 236.756C265.649 237.049 266.036 237.306 266.414 237.527C266.798 237.749 267.153 237.934 267.479 238.084C267.811 238.24 268.074 238.364 268.27 238.455L267.791 239.422C267.342 239.214 266.883 238.992 266.414 238.758C265.952 238.523 265.503 238.266 265.066 237.986C264.63 237.713 264.22 237.41 263.836 237.078C263.452 236.746 263.117 236.382 262.83 235.984C262.544 235.581 262.316 235.141 262.146 234.666C261.984 234.191 261.902 233.667 261.902 233.094C261.902 232.56 261.974 232.094 262.117 231.697C262.26 231.294 262.459 230.945 262.713 230.652C262.361 230.281 262.081 229.865 261.873 229.402C261.665 228.94 261.561 228.494 261.561 228.064C261.561 227.798 261.606 227.547 261.697 227.312C261.788 227.078 261.932 226.873 262.127 226.697C262.329 226.521 262.586 226.385 262.898 226.287C263.211 226.183 263.589 226.131 264.031 226.131H268.621V223.553H259.666V222.439H272.098V223.553H269.861V227.283H264.1C263.852 227.283 263.644 227.312 263.475 227.371C263.305 227.423 263.165 227.498 263.055 227.596C262.951 227.693 262.876 227.807 262.83 227.938C262.785 228.068 262.762 228.204 262.762 228.348C262.762 228.491 262.781 228.637 262.82 228.787C262.859 228.937 262.911 229.083 262.977 229.227C263.042 229.37 263.117 229.51 263.201 229.646C263.292 229.777 263.387 229.894 263.484 229.998C263.868 229.77 264.295 229.604 264.764 229.5C265.239 229.389 265.73 229.334 266.238 229.334C266.818 229.334 267.352 229.399 267.84 229.529C268.328 229.66 268.748 229.858 269.1 230.125C269.458 230.385 269.734 230.714 269.93 231.111C270.132 231.502 270.232 231.961 270.232 232.488C270.232 233.016 270.141 233.458 269.959 233.816C269.777 234.168 269.549 234.458 269.275 234.686C269.008 234.913 268.722 235.092 268.416 235.223C268.117 235.353 267.846 235.457 267.605 235.535L267.156 234.402ZM268.133 219.5C268.133 219.155 268.237 218.875 268.445 218.66C268.654 218.439 268.921 218.328 269.246 218.328C269.409 218.328 269.562 218.361 269.705 218.426C269.848 218.484 269.972 218.569 270.076 218.68C270.18 218.784 270.262 218.911 270.32 219.061C270.379 219.21 270.408 219.373 270.408 219.549C270.408 219.9 270.304 220.184 270.096 220.398C269.881 220.613 269.614 220.721 269.295 220.721C269.126 220.721 268.973 220.691 268.836 220.633C268.693 220.574 268.569 220.493 268.465 220.389C268.361 220.278 268.279 220.148 268.221 219.998C268.162 219.848 268.133 219.682 268.133 219.5ZM284.324 223.553H280.945V227.742H277.762C276.674 227.742 275.857 228.009 275.311 228.543C274.77 229.077 274.5 229.832 274.5 230.809C274.5 231.447 274.604 231.984 274.812 232.42C275.027 232.856 275.301 233.208 275.633 233.475C275.971 233.742 276.349 233.934 276.766 234.051C277.189 234.168 277.609 234.227 278.025 234.227C278.273 234.227 278.527 234.207 278.787 234.168C279.054 234.122 279.292 234.051 279.5 233.953C279.467 233.836 279.445 233.709 279.432 233.572C279.419 233.436 279.412 233.299 279.412 233.162C279.412 232.902 279.438 232.641 279.49 232.381C279.549 232.114 279.637 231.873 279.754 231.658C279.878 231.443 280.034 231.268 280.223 231.131C280.411 230.994 280.636 230.926 280.896 230.926C281.085 230.926 281.255 230.962 281.404 231.033C281.554 231.105 281.678 231.206 281.775 231.336C281.88 231.46 281.958 231.606 282.01 231.775C282.068 231.945 282.098 232.13 282.098 232.332C282.098 232.664 282.01 233.022 281.834 233.406C281.665 233.79 281.368 234.165 280.945 234.529C281.115 234.998 281.385 235.447 281.756 235.877C282.127 236.3 282.589 236.727 283.143 237.156L282.225 238.123C281.84 237.778 281.512 237.436 281.238 237.098C280.971 236.766 280.75 236.463 280.574 236.189C280.398 235.91 280.258 235.669 280.154 235.467C280.057 235.265 279.985 235.125 279.939 235.047C279.653 235.151 279.357 235.229 279.051 235.281C278.745 235.333 278.436 235.359 278.123 235.359C277.531 235.359 276.945 235.262 276.365 235.066C275.792 234.871 275.278 234.578 274.822 234.188C274.367 233.79 273.999 233.296 273.719 232.703C273.439 232.111 273.299 231.421 273.299 230.633C273.299 229.956 273.403 229.367 273.611 228.865C273.826 228.364 274.122 227.951 274.5 227.625C274.878 227.293 275.324 227.046 275.838 226.883C276.359 226.72 276.922 226.639 277.527 226.639H279.695V223.553H271.424V222.439H284.324V223.553ZM289.285 223.553H287.234V237H285.984V223.553H283.65V222.439H286.014C285.896 221.743 285.753 221.15 285.584 220.662C285.415 220.174 285.229 219.767 285.027 219.441C284.826 219.109 284.614 218.849 284.393 218.66C284.178 218.471 283.966 218.328 283.758 218.23C283.543 218.133 283.344 218.071 283.162 218.045C282.973 218.019 282.811 218.006 282.674 218.006C282.329 218.006 282.036 218.051 281.795 218.143C281.548 218.227 281.349 218.344 281.199 218.494C281.043 218.644 280.929 218.82 280.857 219.021C280.786 219.223 280.75 219.441 280.75 219.676C280.75 219.91 280.783 220.154 280.848 220.408C280.913 220.656 281.004 220.906 281.121 221.16C281.238 221.408 281.382 221.652 281.551 221.893C281.72 222.127 281.909 222.345 282.117 222.547H280.887C280.457 222.059 280.128 221.574 279.9 221.092C279.666 220.604 279.549 220.096 279.549 219.568C279.549 219.165 279.617 218.794 279.754 218.455C279.891 218.117 280.089 217.827 280.35 217.586C280.61 217.339 280.932 217.15 281.316 217.02C281.694 216.883 282.124 216.814 282.605 216.814C283.309 216.814 283.921 216.958 284.441 217.244C284.962 217.531 285.405 217.928 285.77 218.436C286.141 218.937 286.437 219.529 286.658 220.213C286.88 220.896 287.046 221.639 287.156 222.439H289.285V223.553Z" fill="#0033A1"/>
<path d="M57 312.354C57 293.576 72.2223 278.354 91 278.354H186.219V299.939C186.219 318.717 170.997 333.939 152.219 333.939H57V312.354Z" fill="#FCD99D" fill-opacity="0.9" stroke="#976925" stroke-width="2"/>
<path d="M113.151 299.56V300.98H111.051V312H109.511C109.111 311.2 108.558 310.467 107.851 309.8C107.158 309.12 106.358 308.547 105.451 308.08C104.545 307.613 103.578 307.3 102.551 307.14L101.771 305.22C103.051 304.447 104.371 303.747 105.731 303.12C107.105 302.493 108.518 301.96 109.971 301.52L109.511 302.36V300.98H100.831V299.56H113.151ZM109.511 302.52L109.931 303.08C108.918 303.413 107.851 303.827 106.731 304.32C105.611 304.8 104.578 305.333 103.631 305.92C104.351 306.08 105.118 306.353 105.931 306.74C106.745 307.127 107.498 307.613 108.191 308.2C108.885 308.787 109.418 309.467 109.791 310.24H109.611C109.585 309.933 109.558 309.627 109.531 309.32C109.518 309.013 109.511 308.647 109.511 308.22V302.52ZM118.465 299.56V300.98H116.365V312H114.825V302.62C114.665 302.167 114.425 301.78 114.105 301.46C113.799 301.14 113.399 300.98 112.905 300.98H112.745V299.56H113.045C113.365 299.56 113.699 299.667 114.045 299.88C114.392 300.08 114.672 300.393 114.885 300.82C114.872 300.753 114.859 300.6 114.845 300.36C114.832 300.12 114.825 299.913 114.825 299.74V298.24H115.905L116.345 299.56H118.465ZM120.718 305.72C121.558 306.227 122.351 306.833 123.098 307.54C123.858 308.233 124.544 308.98 125.158 309.78C125.784 310.58 126.311 311.373 126.738 312.16L125.438 312.82C124.891 311.98 124.344 311.227 123.798 310.56C123.264 309.88 122.671 309.253 122.018 308.68C121.378 308.107 120.611 307.547 119.718 307L120.718 305.72ZM119.818 302.28C119.818 301.733 119.938 301.26 120.178 300.86C120.431 300.447 120.771 300.127 121.198 299.9C121.624 299.673 122.104 299.56 122.638 299.56C123.171 299.56 123.651 299.673 124.078 299.9C124.504 300.127 124.838 300.447 125.078 300.86C125.331 301.26 125.458 301.733 125.458 302.28C125.458 302.827 125.331 303.307 125.078 303.72C124.838 304.133 124.504 304.453 124.078 304.68C123.651 304.907 123.171 305.02 122.638 305.02C122.104 305.02 121.624 304.907 121.198 304.68C120.771 304.453 120.431 304.14 120.178 303.74C119.938 303.327 119.818 302.84 119.818 302.28ZM121.198 302.28C121.198 302.733 121.331 303.087 121.598 303.34C121.878 303.593 122.224 303.72 122.638 303.72C123.064 303.72 123.411 303.593 123.678 303.34C123.944 303.073 124.078 302.72 124.078 302.28C124.078 301.827 123.944 301.48 123.678 301.24C123.411 300.987 123.064 300.86 122.638 300.86C122.224 300.86 121.878 300.993 121.598 301.26C121.331 301.513 121.198 301.853 121.198 302.28ZM141.847 299.56V300.98H139.747V312H138.207V305.3L138.327 305.82C138.034 305.393 137.721 305.053 137.387 304.8C137.067 304.547 136.714 304.42 136.327 304.42C136.127 304.42 135.921 304.46 135.707 304.54C135.507 304.607 135.334 304.74 135.187 304.94C135.054 305.14 134.987 305.447 134.987 305.86C134.987 306.007 134.987 306.14 134.987 306.26C135.001 306.367 135.014 306.473 135.027 306.58L133.727 306.68C133.674 306.133 133.527 305.673 133.287 305.3C133.047 304.913 132.754 304.62 132.407 304.42C132.061 304.22 131.687 304.12 131.287 304.12C130.927 304.12 130.621 304.193 130.367 304.34C130.114 304.473 129.921 304.66 129.787 304.9C129.654 305.127 129.587 305.387 129.587 305.68C129.587 306.213 129.781 306.667 130.167 307.04C130.567 307.413 131.127 307.727 131.847 307.98L131.307 309.46C130.667 309.26 130.094 308.987 129.587 308.64C129.081 308.293 128.681 307.867 128.387 307.36C128.094 306.853 127.947 306.267 127.947 305.6C127.947 305 128.094 304.487 128.387 304.06C128.681 303.62 129.074 303.28 129.567 303.04C130.061 302.8 130.601 302.68 131.187 302.68C131.894 302.68 132.501 302.813 133.007 303.08C133.514 303.333 133.981 303.747 134.407 304.32L134.107 304.34C134.241 303.9 134.494 303.567 134.867 303.34C135.254 303.1 135.654 302.98 136.067 302.98C136.547 302.98 136.961 303.073 137.307 303.26C137.654 303.447 138.034 303.713 138.447 304.06L138.267 304.36C138.254 304.08 138.241 303.8 138.227 303.52C138.214 303.24 138.207 302.953 138.207 302.66V300.98H126.827V299.56H141.847ZM147.176 299.56V300.98H145.076V312H143.536V302.62C143.376 302.167 143.136 301.78 142.816 301.46C142.51 301.14 142.11 300.98 141.616 300.98H141.456V299.56H141.756C142.076 299.56 142.41 299.667 142.756 299.88C143.103 300.08 143.383 300.393 143.596 300.82C143.583 300.753 143.57 300.6 143.556 300.36C143.543 300.12 143.536 299.913 143.536 299.74V298.24H144.616L145.056 299.56H147.176Z" fill="#0033A1"/>
<path d="M204.267 312.354C204.267 293.576 219.49 278.354 238.267 278.354H333.486V299.939C333.486 318.717 318.264 333.939 299.486 333.939H204.267V312.354Z" fill="#FCD99D" fill-opacity="0.9" stroke="#976925" stroke-width="2"/>
<path d="M246.683 313.24C245.883 313.24 245.163 313.113 244.523 312.86C243.883 312.607 243.376 312.233 243.003 311.74C242.63 311.247 242.443 310.653 242.443 309.96C242.443 309.24 242.63 308.62 243.003 308.1C243.39 307.567 243.996 307.16 244.823 306.88C245.65 306.587 246.743 306.44 248.103 306.44H251.003C252.163 306.44 253.196 306.587 254.103 306.88C255.01 307.16 255.716 307.633 256.223 308.3C256.743 308.967 257.003 309.88 257.003 311.04C257.003 311.933 256.836 312.68 256.503 313.28C256.17 313.893 255.696 314.427 255.083 314.88C254.643 315.187 254.143 315.433 253.583 315.62C253.036 315.807 252.403 315.933 251.683 316C250.963 316.08 250.123 316.12 249.163 316.12H246.903C246.343 316.12 245.91 316.16 245.603 316.24C245.296 316.32 245.03 316.433 244.803 316.58C244.59 316.727 244.423 316.933 244.303 317.2C244.183 317.467 244.123 317.82 244.123 318.26C244.123 318.46 244.13 318.647 244.143 318.82C244.156 319.007 244.17 319.18 244.183 319.34L242.543 319.42C242.503 319.18 242.47 318.913 242.443 318.62C242.416 318.34 242.403 318.087 242.403 317.86C242.403 317.273 242.51 316.773 242.723 316.36C242.936 315.96 243.21 315.633 243.543 315.38C243.783 315.207 244.03 315.067 244.283 314.96C244.55 314.867 244.85 314.793 245.183 314.74C245.53 314.7 245.923 314.68 246.363 314.68H248.543C249.73 314.68 250.703 314.627 251.463 314.52C252.223 314.427 252.836 314.273 253.303 314.06C253.77 313.86 254.156 313.593 254.463 313.26C254.73 312.967 254.93 312.627 255.063 312.24C255.21 311.84 255.283 311.393 255.283 310.9C255.283 310.247 255.15 309.72 254.883 309.32C254.63 308.92 254.283 308.613 253.843 308.4C253.416 308.187 252.936 308.04 252.403 307.96C251.883 307.88 251.35 307.84 250.803 307.84H247.963C247.283 307.84 246.703 307.88 246.223 307.96C245.756 308.04 245.356 308.173 245.023 308.36C244.73 308.533 244.51 308.747 244.363 309C244.23 309.24 244.163 309.553 244.163 309.94C244.163 310.553 244.416 311.02 244.923 311.34C245.43 311.647 246.07 311.8 246.843 311.8C247.43 311.8 247.93 311.713 248.343 311.54C248.77 311.353 249.096 311.04 249.323 310.6C249.563 310.147 249.683 309.527 249.683 308.74V303.36H246.243V306.96L244.663 307.28V301.92H255.123V303.36H251.383V308.48C251.383 309.373 251.303 310.073 251.143 310.58C250.996 311.087 250.783 311.513 250.503 311.86C250.09 312.367 249.556 312.727 248.903 312.94C248.263 313.14 247.523 313.24 246.683 313.24ZM269.567 301.68C270.567 301.68 271.387 301.94 272.027 302.46C272.667 302.967 273.14 303.68 273.447 304.6C273.753 305.507 273.907 306.56 273.907 307.76C273.907 308.693 273.807 309.493 273.607 310.16C273.407 310.827 273.087 311.373 272.647 311.8C272.34 312.107 271.987 312.347 271.587 312.52C271.187 312.693 270.713 312.82 270.167 312.9C269.633 312.967 268.98 313 268.207 313H259.727V301.92H261.447V311.56H265.967V305.9C265.967 305.073 266.04 304.42 266.187 303.94C266.347 303.447 266.573 303.033 266.867 302.7C267.173 302.367 267.54 302.113 267.967 301.94C268.393 301.767 268.927 301.68 269.567 301.68ZM269.527 303.12C269.3 303.12 269.08 303.16 268.867 303.24C268.653 303.307 268.473 303.42 268.327 303.58C268.113 303.82 267.953 304.12 267.847 304.48C267.74 304.827 267.687 305.413 267.687 306.24V311.56H268.627C269.533 311.56 270.24 311.433 270.747 311.18C271.253 310.927 271.613 310.513 271.827 309.94C272.04 309.367 272.147 308.607 272.147 307.66C272.147 306.807 272.053 306.04 271.867 305.36C271.693 304.68 271.413 304.14 271.027 303.74C270.653 303.327 270.153 303.12 269.527 303.12ZM273.555 296.14C274.275 296.14 274.928 296.26 275.515 296.5C276.115 296.727 276.641 297.073 277.095 297.54C277.401 297.847 277.668 298.233 277.895 298.7C278.121 299.153 278.295 299.747 278.415 300.48C278.548 301.2 278.615 302.113 278.615 303.22V313H276.895V303.58C276.895 302.62 276.848 301.827 276.755 301.2C276.675 300.573 276.555 300.06 276.395 299.66C276.235 299.247 276.041 298.907 275.815 298.64C275.535 298.293 275.201 298.04 274.815 297.88C274.415 297.72 273.981 297.64 273.515 297.64C272.941 297.64 272.455 297.753 272.055 297.98C271.655 298.193 271.355 298.5 271.155 298.9C270.941 299.287 270.835 299.74 270.835 300.26C270.835 300.633 270.888 301.04 270.995 301.48C271.101 301.907 271.268 302.313 271.495 302.7H269.675C269.501 302.3 269.368 301.9 269.275 301.5C269.168 301.1 269.115 300.693 269.115 300.28C269.115 299.56 269.235 298.94 269.475 298.42C269.715 297.9 270.041 297.473 270.455 297.14C270.868 296.807 271.341 296.56 271.875 296.4C272.408 296.227 272.968 296.14 273.555 296.14ZM291.969 301.68C292.969 301.68 293.789 301.94 294.429 302.46C295.069 302.967 295.542 303.68 295.849 304.6C296.156 305.507 296.309 306.56 296.309 307.76C296.309 308.693 296.209 309.493 296.009 310.16C295.809 310.827 295.489 311.373 295.049 311.8C294.742 312.107 294.389 312.347 293.989 312.52C293.589 312.693 293.116 312.82 292.569 312.9C292.036 312.967 291.382 313 290.609 313H282.129V301.92H283.849V311.56H288.369V305.9C288.369 305.073 288.442 304.42 288.589 303.94C288.749 303.447 288.976 303.033 289.269 302.7C289.576 302.367 289.942 302.113 290.369 301.94C290.796 301.767 291.329 301.68 291.969 301.68ZM291.929 303.12C291.702 303.12 291.482 303.16 291.269 303.24C291.056 303.307 290.876 303.42 290.729 303.58C290.516 303.82 290.356 304.12 290.249 304.48C290.142 304.827 290.089 305.413 290.089 306.24V311.56H291.029C291.936 311.56 292.642 311.433 293.149 311.18C293.656 310.927 294.016 310.513 294.229 309.94C294.442 309.367 294.549 308.607 294.549 307.66C294.549 306.807 294.456 306.04 294.269 305.36C294.096 304.68 293.816 304.14 293.429 303.74C293.056 303.327 292.556 303.12 291.929 303.12ZM284.769 314.22C284.996 314.22 285.229 314.227 285.469 314.24C285.722 314.267 285.956 314.293 286.169 314.32L286.009 315.66C285.876 315.633 285.729 315.613 285.569 315.6C285.409 315.6 285.229 315.6 285.029 315.6C284.536 315.6 284.129 315.68 283.809 315.84C283.502 316.013 283.349 316.3 283.349 316.7C283.349 317.06 283.476 317.333 283.729 317.52C283.996 317.72 284.322 317.853 284.709 317.92C285.109 317.987 285.502 318.02 285.889 318.02H286.389C287.069 318.02 287.636 317.94 288.089 317.78C288.542 317.62 288.916 317.393 289.209 317.1C289.502 316.807 289.749 316.453 289.949 316.04C290.069 315.813 290.189 315.627 290.309 315.48C290.429 315.347 290.596 315.24 290.809 315.16C291.036 315.093 291.356 315.047 291.769 315.02L293.269 315.26C292.696 315.38 292.276 315.553 292.009 315.78C291.756 316.02 291.556 316.307 291.409 316.64C291.116 317.2 290.762 317.687 290.349 318.1C289.949 318.527 289.422 318.853 288.769 319.08C288.129 319.307 287.289 319.42 286.249 319.42H285.749C285.136 319.42 284.542 319.347 283.969 319.2C283.396 319.067 282.936 318.88 282.589 318.64C282.336 318.453 282.109 318.2 281.909 317.88C281.722 317.56 281.629 317.173 281.629 316.72C281.629 315.947 281.916 315.333 282.489 314.88C283.076 314.44 283.836 314.22 284.769 314.22ZM291.349 316.32L291.009 316.14C290.516 316.033 290.069 315.86 289.669 315.62C289.282 315.38 288.976 315.047 288.749 314.62C288.522 314.193 288.396 313.653 288.369 313H290.069C290.082 313.387 290.149 313.713 290.269 313.98C290.402 314.26 290.616 314.473 290.909 314.62C291.096 314.7 291.316 314.76 291.569 314.8C291.836 314.853 292.176 314.88 292.589 314.88H295.149V316.32H291.349ZM288.969 299.44C288.582 299.44 288.262 299.32 288.009 299.08C287.756 298.827 287.629 298.5 287.629 298.1C287.629 297.713 287.756 297.393 288.009 297.14C288.262 296.887 288.582 296.76 288.969 296.76C289.356 296.76 289.676 296.887 289.929 297.14C290.182 297.393 290.309 297.713 290.309 298.1C290.309 298.5 290.182 298.827 289.929 299.08C289.676 299.32 289.356 299.44 288.969 299.44Z" fill="#0033A1"/>
<path d="M57 390.707C57 371.93 72.2223 356.707 91 356.707H186.219V378.293C186.219 397.07 170.997 412.293 152.219 412.293H57V390.707Z" fill="#FCD99D" fill-opacity="0.9" stroke="#976925" stroke-width="2"/>
<path d="M97.5868 378.925V377.518H110.523V378.925H108.108V391H106.47V385.12H102.06V387.976H100.632L100.107 386.8C99.7288 385.904 99.5398 385.274 99.5398 384.91C99.5398 384.63 99.6168 384.392 99.7708 384.196C99.9388 384 100.156 383.867 100.422 383.797V378.925H97.5868ZM106.47 378.925H102.06V383.734H106.47V378.925ZM110.717 385.141V383.776H112.124C113.832 383.776 114.686 383.104 114.686 381.76V378.925H109.604V377.518H118.424V378.925H116.324V381.907C116.324 382.901 116.016 383.685 115.4 384.259C114.784 384.819 113.958 385.113 112.922 385.141H112.691L117.143 391H115.148L110.717 385.141ZM117.5 378.925V377.518H124.01V378.925H121.574V391H119.936V378.925H117.5ZM132.549 385.561C132.549 384.693 132.269 384.028 131.709 383.566C131.149 383.104 130.4 382.873 129.462 382.873C128.622 382.873 127.894 383.097 127.278 383.545C126.676 383.993 126.375 384.658 126.375 385.54C126.375 386.38 126.655 387.059 127.215 387.577C127.775 388.095 128.524 388.354 129.462 388.354C130.386 388.354 131.128 388.095 131.688 387.577C132.262 387.059 132.549 386.387 132.549 385.561ZM135.846 378.925H130.722V381.634C131.772 381.83 132.619 382.271 133.263 382.957C133.907 383.629 134.229 384.497 134.229 385.561C134.229 386.779 133.788 387.773 132.906 388.543C132.038 389.313 130.89 389.698 129.462 389.698C128.048 389.698 126.9 389.313 126.018 388.543C125.136 387.773 124.695 386.772 124.695 385.54C124.695 384.308 125.122 383.349 125.976 382.663C126.844 381.977 127.88 381.599 129.084 381.529V378.925H123.078V377.518H135.846V378.925ZM138.985 377.518H141.421V378.925H139.006V391H137.368V378.925H134.932V377.518H137.326V375.754C137.326 375.068 137.137 374.543 136.759 374.179C136.395 373.815 135.912 373.633 135.31 373.633C134.708 373.633 134.232 373.815 133.882 374.179C133.532 374.529 133.357 375.054 133.357 375.754V376.132H131.719V375.712C131.719 374.536 132.062 373.654 132.748 373.066C133.42 372.478 134.274 372.184 135.31 372.184C136.36 372.184 137.235 372.478 137.935 373.066C138.635 373.654 138.985 374.536 138.985 375.712V377.518Z" fill="#0033A1"/>
<path d="M204.267 390.707C204.267 371.93 219.49 356.707 238.267 356.707H333.486V378.293C333.486 397.07 318.264 412.293 299.486 412.293H204.267V390.707Z" fill="#FCD99D" fill-opacity="0.9" stroke="#976925" stroke-width="2"/>
<path d="M257.251 377.938V379.429H255.046V391H253.429C253.023 390.174 252.519 389.453 251.917 388.837C251.315 388.207 250.671 387.668 249.985 387.22L250.51 385.834C251.042 386.142 251.595 386.562 252.169 387.094C252.743 387.626 253.184 388.165 253.492 388.711C253.478 388.501 253.464 388.305 253.45 388.123C253.45 387.941 253.443 387.752 253.429 387.556C253.429 387.36 253.429 387.15 253.429 386.926V379.429H238.078V377.938H257.251ZM246.184 389.089C245.232 389.089 244.322 388.865 243.454 388.417C242.586 387.969 241.767 387.213 240.997 386.149C240.241 385.071 239.541 383.594 238.897 381.718L240.43 381.214C240.934 382.67 241.459 383.867 242.005 384.805C242.565 385.729 243.188 386.408 243.874 386.842C244.56 387.276 245.344 387.493 246.226 387.493C246.996 387.493 247.612 387.374 248.074 387.136C248.55 386.884 248.893 386.548 249.103 386.128C249.313 385.694 249.418 385.218 249.418 384.7C249.418 383.888 249.194 383.23 248.746 382.726C248.312 382.222 247.766 381.97 247.108 381.97C246.646 381.97 246.296 382.075 246.058 382.285C245.82 382.481 245.701 382.782 245.701 383.188C245.701 383.286 245.715 383.419 245.743 383.587C245.771 383.755 245.813 383.909 245.869 384.049L244.273 384.364C244.175 384.07 244.098 383.804 244.042 383.566C244 383.314 243.979 383.076 243.979 382.852C243.979 382.334 244.119 381.9 244.399 381.55C244.693 381.2 245.064 380.941 245.512 380.773C245.974 380.591 246.457 380.5 246.961 380.5C247.787 380.5 248.501 380.689 249.103 381.067C249.705 381.431 250.174 381.935 250.51 382.579C250.846 383.223 251.014 383.972 251.014 384.826C251.014 385.582 250.839 386.289 250.489 386.947C250.139 387.591 249.607 388.109 248.893 388.501C248.179 388.893 247.276 389.089 246.184 389.089ZM245.512 381.235C245.442 380.787 245.232 380.395 244.882 380.059C244.546 379.709 244.049 379.464 243.391 379.324L243.895 378.379L244.84 378.631C245.638 378.939 246.212 379.289 246.562 379.681C246.912 380.073 247.115 380.57 247.171 381.172L245.512 381.235ZM271.564 377.938V379.429H269.359V391H267.742V383.587L268.225 384.91C267.791 384.336 267.413 383.895 267.091 383.587C266.783 383.279 266.482 383.125 266.188 383.125C265.992 383.125 265.81 383.181 265.642 383.293C265.474 383.405 265.285 383.622 265.075 383.944C264.865 384.252 264.585 384.728 264.235 385.372C263.857 386.058 263.514 386.625 263.206 387.073C262.898 387.507 262.569 387.829 262.219 388.039C261.883 388.235 261.47 388.333 260.98 388.333C260.602 388.333 260.238 388.256 259.888 388.102C259.552 387.948 259.209 387.696 258.859 387.346C258.523 386.982 258.159 386.492 257.767 385.876L259.048 385.099C259.426 385.771 259.741 386.212 259.993 386.422C260.245 386.632 260.518 386.737 260.812 386.737C261.05 386.737 261.274 386.667 261.484 386.527C261.708 386.373 261.946 386.114 262.198 385.75C262.464 385.386 262.765 384.889 263.101 384.259L263.584 383.566C263.948 382.81 264.298 382.292 264.634 382.012C264.97 381.718 265.341 381.571 265.747 381.571C266.209 381.571 266.622 381.704 266.986 381.97C267.364 382.222 267.798 382.614 268.288 383.146L267.868 383.167C267.812 382.845 267.777 382.544 267.763 382.264C267.749 381.97 267.742 381.676 267.742 381.382V379.429H256.822V377.938H271.564ZM262.723 385.309C262.583 384.357 262.436 383.601 262.282 383.041C262.142 382.481 261.89 382.047 261.526 381.739C261.176 381.417 260.7 381.179 260.098 381.025C259.496 380.857 258.74 380.717 257.83 380.605L258.145 379.009L259.279 379.429C260.077 379.555 260.742 379.716 261.274 379.912C261.806 380.108 262.233 380.367 262.555 380.689C262.891 380.997 263.143 381.382 263.311 381.844C263.479 382.306 263.591 382.866 263.647 383.524L262.723 385.309ZM284.619 377.938V379.429H282.414V391H280.797V388.165L281.175 389.278C280.685 388.536 280.188 387.85 279.684 387.22C279.194 386.59 278.669 386.079 278.109 385.687C277.563 385.295 276.961 385.099 276.303 385.099C275.785 385.099 275.344 385.232 274.98 385.498C274.63 385.764 274.455 386.163 274.455 386.695C274.455 387.157 274.623 387.549 274.959 387.871C275.295 388.179 275.792 388.445 276.45 388.669L275.925 390.286C275.169 390.02 274.553 389.698 274.077 389.32C273.615 388.942 273.272 388.529 273.048 388.081C272.838 387.619 272.733 387.136 272.733 386.632C272.733 385.96 272.894 385.4 273.216 384.952C273.552 384.504 273.972 384.168 274.476 383.944C274.994 383.706 275.512 383.587 276.03 383.587C276.87 383.587 277.605 383.741 278.235 384.049C278.879 384.357 279.439 384.77 279.915 385.288C280.405 385.806 280.846 386.387 281.238 387.031L280.881 387.094C280.853 386.772 280.832 386.45 280.818 386.128C280.804 385.792 280.797 385.449 280.797 385.099V379.429H271.137V377.938H284.619ZM277.626 384.217C277.626 384.301 277.619 384.385 277.605 384.469C277.605 384.553 277.598 384.637 277.584 384.721L275.988 384.238C275.96 383.426 275.82 382.775 275.568 382.285C275.316 381.795 274.917 381.424 274.371 381.172C273.825 380.906 273.083 380.724 272.145 380.626L272.418 379.114L273.384 379.387C274.056 379.443 274.651 379.583 275.169 379.807C275.701 380.017 276.149 380.318 276.513 380.71C276.877 381.102 277.15 381.592 277.332 382.18C277.528 382.754 277.626 383.433 277.626 384.217ZM290.206 379.429H288.001V391H286.384V379.429H284.2V377.938H286.384C286.328 377.028 286.09 376.265 285.67 375.649C285.264 375.033 284.732 374.55 284.074 374.2C283.402 373.836 282.646 373.577 281.806 373.423C280.952 373.269 280.056 373.192 279.118 373.192C278.292 373.192 277.585 373.241 276.997 373.339C276.395 373.423 275.933 373.549 275.611 373.717C275.289 373.885 275.128 374.102 275.128 374.368C275.128 374.634 275.296 374.802 275.632 374.872C275.968 374.942 276.339 374.977 276.745 374.977H278.761C279.503 374.977 280.091 375.04 280.525 375.166C280.959 375.292 281.309 375.495 281.575 375.775C281.841 376.041 282.03 376.356 282.142 376.72C282.254 377.084 282.31 377.539 282.31 378.085H280.903C280.889 377.749 280.847 377.476 280.777 377.266C280.707 377.042 280.595 376.874 280.441 376.762C280.301 376.65 280.133 376.573 279.937 376.531C279.727 376.489 279.44 376.468 279.076 376.468H276.997C276.423 376.468 275.919 376.433 275.485 376.363C275.051 376.279 274.694 376.167 274.414 376.027C274.064 375.831 273.819 375.593 273.679 375.313C273.539 375.033 273.469 374.739 273.469 374.431C273.469 373.619 273.924 372.968 274.834 372.478C275.744 371.988 277.13 371.743 278.992 371.743C281.834 371.743 284.018 372.247 285.544 373.255C287.084 374.249 287.924 375.81 288.064 377.938H290.206V379.429ZM303.344 377.938V379.429H301.139V391H299.522C298.934 390.216 298.283 389.53 297.569 388.942C296.855 388.34 296.029 387.836 295.091 387.43C294.153 387.024 293.04 386.73 291.752 386.548L290.996 384.637C291.43 384.343 291.885 384.063 292.361 383.797C292.837 383.531 293.32 383.272 293.81 383.02C294.314 382.768 294.804 382.53 295.28 382.306C294.748 381.9 294.132 381.543 293.432 381.235C292.746 380.913 291.934 380.654 290.996 380.458L291.647 379.03L291.689 379.429H289.778V377.938H303.344ZM299.522 379.429H292.823L292.382 379.24C292.97 379.38 293.558 379.604 294.146 379.912C294.748 380.22 295.301 380.556 295.805 380.92C296.323 381.27 296.736 381.606 297.044 381.928L297.149 383.104C296.645 383.328 296.113 383.573 295.553 383.839C295.007 384.105 294.475 384.371 293.957 384.637C293.453 384.903 293.005 385.169 292.613 385.435L292.361 385.12C293.565 385.288 294.615 385.568 295.511 385.96C296.421 386.352 297.226 386.828 297.926 387.388C298.626 387.948 299.27 388.571 299.858 389.257L299.585 389.341C299.571 389.047 299.557 388.732 299.543 388.396C299.529 388.046 299.522 387.717 299.522 387.409V379.429ZM293.768 391.126C293.418 391.126 293.117 391.014 292.865 390.79C292.627 390.566 292.508 390.272 292.508 389.908C292.508 389.544 292.627 389.243 292.865 389.005C293.117 388.767 293.418 388.648 293.768 388.648C294.118 388.648 294.412 388.767 294.65 389.005C294.902 389.243 295.028 389.544 295.028 389.908C295.028 390.272 294.902 390.566 294.65 390.79C294.412 391.014 294.118 391.126 293.768 391.126ZM308.93 377.938V379.429H306.725V391H305.108V381.151C304.94 380.675 304.688 380.269 304.352 379.933C304.03 379.597 303.61 379.429 303.092 379.429H302.924V377.938H303.239C303.575 377.938 303.925 378.05 304.289 378.274C304.653 378.484 304.947 378.813 305.171 379.261C305.157 379.191 305.143 379.03 305.129 378.778C305.115 378.526 305.108 378.309 305.108 378.127V376.552H306.242L306.704 377.938H308.93Z" fill="#0033A1"/>
<path d="M57 469.061C57 450.283 72.2223 435.061 91 435.061H186.219V456.646C186.219 475.424 170.997 490.646 152.219 490.646H57V469.061Z" fill="#FCD99D" fill-opacity="0.9" stroke="#976925" stroke-width="2"/>
<path d="M106.511 458.387C106.511 458.863 106.42 459.255 106.238 459.563C106.056 459.871 105.853 460.116 105.629 460.298C105.307 460.564 104.873 460.76 104.327 460.886C103.781 461.012 103.095 461.075 102.269 461.075H99.56V459.5H102.899C103.347 459.5 103.683 459.479 103.907 459.437C104.145 459.381 104.334 459.297 104.474 459.185C104.586 459.087 104.663 458.975 104.705 458.849C104.761 458.723 104.789 458.576 104.789 458.408C104.789 458.226 104.761 458.065 104.705 457.925C104.649 457.785 104.565 457.666 104.453 457.568C104.313 457.456 104.138 457.372 103.928 457.316C103.718 457.26 103.368 457.232 102.878 457.232H95.276V455.657H102.752C103.522 455.657 104.124 455.713 104.558 455.825C105.006 455.937 105.391 456.133 105.713 456.413C105.951 456.623 106.14 456.889 106.28 457.211C106.434 457.519 106.511 457.911 106.511 458.387ZM100.274 470.252C98.58 470.252 97.173 470.028 96.053 469.58C94.947 469.118 94.121 468.495 93.575 467.711C93.029 466.913 92.756 466.017 92.756 465.023C92.756 464.239 92.917 463.553 93.239 462.965C93.575 462.363 94.03 461.901 94.604 461.579C95.178 461.243 95.836 461.075 96.578 461.075C97.166 461.075 97.67 461.187 98.09 461.411C98.51 461.621 98.832 461.922 99.056 462.314C99.28 462.706 99.392 463.161 99.392 463.679C99.392 464.533 99.098 465.219 98.51 465.737C97.936 466.241 97.124 466.493 96.074 466.493C95.766 466.493 95.472 466.465 95.192 466.409C94.912 466.339 94.653 466.255 94.415 466.157C94.177 466.059 93.953 465.947 93.743 465.821L93.89 464.33C94.17 464.54 94.464 464.708 94.772 464.834C95.094 464.96 95.444 465.023 95.822 465.023C96.508 465.023 96.991 464.897 97.271 464.645C97.565 464.393 97.712 464.071 97.712 463.679C97.712 463.315 97.6 463.042 97.376 462.86C97.166 462.664 96.865 462.566 96.473 462.566C96.053 462.566 95.675 462.664 95.339 462.86C95.017 463.056 94.758 463.329 94.562 463.679C94.366 464.015 94.268 464.4 94.268 464.834V464.939C94.268 465.541 94.408 466.073 94.688 466.535C94.982 466.983 95.388 467.361 95.906 467.669C96.424 467.977 97.04 468.208 97.754 468.362C98.482 468.516 99.287 468.593 100.169 468.593C101.331 468.593 102.29 468.474 103.046 468.236C103.816 467.998 104.418 467.69 104.852 467.312C105.286 466.934 105.587 466.528 105.755 466.094C105.937 465.66 106.028 465.24 106.028 464.834V463.91C105.902 463.532 105.671 463.217 105.335 462.965C104.999 462.699 104.586 462.566 104.096 462.566C103.746 462.566 103.424 462.671 103.13 462.881C102.85 463.077 102.71 463.399 102.71 463.847C102.71 464.155 102.822 464.428 103.046 464.666C103.27 464.904 103.62 465.023 104.096 465.023C104.46 465.023 104.775 464.96 105.041 464.834C105.307 464.694 105.517 464.505 105.671 464.267C105.839 464.015 105.958 463.728 106.028 463.406L106.364 465.296C106.154 465.548 105.923 465.765 105.671 465.947C105.433 466.129 105.16 466.269 104.852 466.367C104.558 466.451 104.215 466.493 103.823 466.493C103.291 466.493 102.815 466.388 102.395 466.178C101.975 465.968 101.646 465.674 101.408 465.296C101.17 464.904 101.051 464.442 101.051 463.91C101.051 463.126 101.296 462.517 101.786 462.083C102.29 461.635 102.955 461.411 103.781 461.411C103.865 461.411 103.956 461.418 104.054 461.432C104.166 461.446 104.285 461.467 104.411 461.495C104.537 461.523 104.656 461.558 104.768 461.6L104.516 461.621C104.208 461.467 103.844 461.341 103.424 461.243C103.018 461.131 102.612 461.047 102.206 460.991C101.8 460.935 101.443 460.907 101.135 460.907L101.429 459.605C102.507 459.703 103.438 459.906 104.222 460.214C105.006 460.522 105.643 460.907 106.133 461.369C106.637 461.831 107.008 462.356 107.246 462.944C107.484 463.532 107.603 464.169 107.603 464.855C107.603 465.625 107.456 466.339 107.162 466.997C106.882 467.655 106.441 468.229 105.839 468.719C105.251 469.195 104.495 469.573 103.571 469.853C102.647 470.119 101.548 470.252 100.274 470.252ZM115.821 470.252C114.351 470.252 113.112 470 112.104 469.496C111.11 468.992 110.354 468.299 109.836 467.417C109.332 466.521 109.08 465.499 109.08 464.351C109.08 463.315 109.255 462.44 109.605 461.726C109.969 460.998 110.452 460.445 111.054 460.067C111.656 459.689 112.328 459.5 113.07 459.5C113.63 459.5 114.113 459.612 114.519 459.836C114.939 460.046 115.261 460.354 115.485 460.76C115.723 461.152 115.842 461.621 115.842 462.167C115.842 462.727 115.723 463.231 115.485 463.679C115.247 464.113 114.883 464.456 114.393 464.708C113.917 464.946 113.308 465.065 112.566 465.065C112.104 465.065 111.677 464.988 111.285 464.834C110.893 464.68 110.55 464.491 110.256 464.267C109.976 464.043 109.745 463.826 109.563 463.616L110.046 462.314C110.158 462.468 110.312 462.65 110.508 462.86C110.718 463.056 110.984 463.231 111.306 463.385C111.628 463.525 112.013 463.595 112.461 463.595C113.035 463.595 113.462 463.476 113.742 463.238C114.036 463 114.183 462.671 114.183 462.251C114.183 461.845 114.071 461.537 113.847 461.327C113.623 461.103 113.329 460.991 112.965 460.991C112.293 460.991 111.754 461.264 111.348 461.81C110.942 462.356 110.739 463.098 110.739 464.036V464.414C110.739 464.974 110.837 465.506 111.033 466.01C111.243 466.5 111.551 466.941 111.957 467.333C112.363 467.725 112.881 468.033 113.511 468.257C114.155 468.481 114.904 468.593 115.758 468.593C117.298 468.593 118.516 468.271 119.412 467.627C120.308 466.983 120.756 466.059 120.756 464.855C120.756 464.043 120.525 463.315 120.063 462.671C119.615 462.027 118.908 461.509 117.942 461.117L118.782 459.5C119.944 460.004 120.854 460.704 121.512 461.6C122.17 462.496 122.499 463.546 122.499 464.75C122.499 465.786 122.268 466.724 121.806 467.564C121.344 468.39 120.616 469.048 119.622 469.538C118.642 470.014 117.375 470.252 115.821 470.252ZM125.669 470.252C124.731 470.252 123.912 470.014 123.212 469.538C122.498 469.062 121.868 468.439 121.322 467.669L122.162 466.304C122.554 466.822 122.939 467.249 123.317 467.585C123.709 467.921 124.108 468.173 124.514 468.341C124.934 468.509 125.368 468.593 125.816 468.593C126.53 468.593 127.076 468.369 127.454 467.921C127.832 467.459 128.021 466.801 128.021 465.947C128.021 465.135 127.853 464.428 127.517 463.826C127.195 463.21 126.754 462.685 126.194 462.251C125.648 461.803 125.025 461.425 124.325 461.117L125.102 459.5C125.97 459.864 126.754 460.354 127.454 460.97C128.154 461.586 128.714 462.3 129.134 463.112C129.554 463.924 129.764 464.827 129.764 465.821C129.764 467.207 129.414 468.292 128.714 469.076C128.014 469.86 126.999 470.252 125.669 470.252ZM136.667 459.5C137.759 459.5 138.697 459.71 139.481 460.13C140.265 460.536 140.86 461.124 141.266 461.894C141.686 462.65 141.896 463.567 141.896 464.645C141.896 465.527 141.812 466.304 141.644 466.976C141.476 467.648 141.266 468.243 141.014 468.761C140.776 469.279 140.524 469.748 140.258 470.168L138.515 469.391C138.781 468.999 139.04 468.593 139.292 468.173C139.544 467.753 139.747 467.277 139.901 466.745C140.069 466.199 140.153 465.569 140.153 464.855C140.153 464.169 140.041 463.539 139.817 462.965C139.593 462.391 139.215 461.936 138.683 461.6C138.165 461.25 137.458 461.075 136.562 461.075C135.848 461.075 135.232 461.222 134.714 461.516C134.196 461.81 133.79 462.237 133.496 462.797C133.216 463.357 133.076 464.036 133.076 464.834C133.076 465.786 133.23 466.626 133.538 467.354C133.846 468.068 134.238 468.747 134.714 469.391L132.971 470.168C132.495 469.44 132.103 468.628 131.795 467.732C131.487 466.836 131.333 465.877 131.333 464.855C131.333 463.889 131.529 463 131.921 462.188C132.327 461.376 132.922 460.725 133.706 460.235C134.504 459.745 135.491 459.5 136.667 459.5ZM136.037 461.075C135.631 461.075 135.239 460.998 134.861 460.844C134.497 460.69 134.161 460.403 133.853 459.983C133.545 459.549 133.279 458.94 133.055 458.156L134.798 457.589C135.008 458.359 135.211 458.87 135.407 459.122C135.603 459.374 135.855 459.5 136.163 459.5C136.443 459.5 136.702 459.416 136.94 459.248C137.192 459.066 137.542 458.695 137.99 458.135L138.641 457.295C139.117 456.679 139.551 456.189 139.943 455.825C140.349 455.461 140.776 455.195 141.224 455.027C141.672 454.859 142.204 454.775 142.82 454.775L142.946 456.392C142.456 456.42 142.043 456.497 141.707 456.623C141.385 456.749 141.084 456.952 140.804 457.232C140.538 457.498 140.223 457.862 139.859 458.324L139.376 458.954C138.984 459.458 138.613 459.864 138.263 460.172C137.913 460.48 137.556 460.711 137.192 460.865C136.842 461.005 136.457 461.075 136.037 461.075ZM145.172 470.252C144.234 470.252 143.415 470.014 142.715 469.538C142.001 469.062 141.371 468.439 140.825 467.669L141.665 466.304C142.057 466.822 142.442 467.249 142.82 467.585C143.212 467.921 143.611 468.173 144.017 468.341C144.437 468.509 144.871 468.593 145.319 468.593C146.033 468.593 146.579 468.369 146.957 467.921C147.335 467.459 147.524 466.801 147.524 465.947C147.524 465.135 147.356 464.428 147.02 463.826C146.698 463.21 146.257 462.685 145.697 462.251C145.151 461.803 144.528 461.425 143.828 461.117L144.605 459.5C145.473 459.864 146.257 460.354 146.957 460.97C147.657 461.586 148.217 462.3 148.637 463.112C149.057 463.924 149.267 464.827 149.267 465.821C149.267 467.207 148.917 468.292 148.217 469.076C147.517 469.86 146.502 470.252 145.172 470.252Z" fill="#0033A1"/>
<path d="M204.267 469.061C204.267 450.283 219.49 435.061 238.267 435.061H333.486V456.646C333.486 475.424 318.264 490.646 299.486 490.646H204.267V469.061Z" fill="#FCD99D" fill-opacity="0.9" stroke="#976925" stroke-width="2"/>
<path d="M250.943 468.299C249.963 468.299 249.116 468.138 248.402 467.816C247.702 467.494 247.163 467.046 246.785 466.472C246.407 465.884 246.218 465.205 246.218 464.435C246.218 463.987 246.288 463.567 246.428 463.175C246.582 462.783 246.806 462.433 247.1 462.125C247.394 461.803 247.758 461.53 248.192 461.306L248.486 461.6L245.756 461.621V460.172H250.124C250.278 460.06 250.404 459.92 250.502 459.752C250.614 459.57 250.67 459.367 250.67 459.143C250.67 458.947 250.635 458.758 250.565 458.576C250.509 458.394 250.425 458.226 250.313 458.072L251.258 457.82L251.993 458.072C252.105 458.254 252.189 458.443 252.245 458.639C252.301 458.835 252.329 459.01 252.329 459.164C252.329 459.388 252.301 459.584 252.245 459.752C252.203 459.906 252.14 460.046 252.056 460.172H256.319V461.621L253.505 461.579L253.82 461.369C254.226 461.523 254.576 461.747 254.87 462.041C255.178 462.335 255.416 462.685 255.584 463.091C255.752 463.483 255.836 463.917 255.836 464.393C255.836 465.163 255.654 465.842 255.29 466.43C254.926 467.018 254.38 467.48 253.652 467.816C252.938 468.138 252.035 468.299 250.943 468.299ZM251.027 466.661C252.147 466.661 252.945 466.423 253.421 465.947C253.911 465.457 254.156 464.869 254.156 464.183C254.156 463.665 254.037 463.217 253.799 462.839C253.561 462.447 253.211 462.146 252.749 461.936C252.287 461.726 251.713 461.621 251.027 461.621C250.327 461.621 249.739 461.733 249.263 461.957C248.801 462.167 248.458 462.468 248.234 462.86C248.01 463.238 247.898 463.679 247.898 464.183C247.898 464.925 248.157 465.527 248.675 465.989C249.193 466.437 249.977 466.661 251.027 466.661ZM245.756 458.093V456.476H252.014C252.77 456.476 253.302 456.441 253.61 456.371C253.918 456.301 254.142 456.21 254.282 456.098C254.464 455.958 254.583 455.804 254.639 455.636C254.709 455.454 254.744 455.265 254.744 455.069C254.744 454.607 254.632 454.159 254.408 453.725C254.184 453.277 253.841 452.822 253.379 452.36L254.744 451.457C255.402 452.185 255.85 452.843 256.088 453.431C256.326 454.005 256.445 454.593 256.445 455.195C256.445 455.461 256.389 455.79 256.277 456.182C256.179 456.56 255.948 456.903 255.584 457.211C255.234 457.519 254.814 457.743 254.324 457.883C253.848 458.023 253.204 458.093 252.392 458.093H245.756ZM267.202 468.299C266.46 468.299 265.844 468.159 265.354 467.879C264.878 467.599 264.472 467.242 264.136 466.808C263.814 466.36 263.513 465.898 263.233 465.422C262.883 464.806 262.582 464.344 262.33 464.036C262.078 463.728 261.84 463.518 261.616 463.406C261.406 463.294 261.161 463.238 260.881 463.238C260.405 463.238 260.034 463.392 259.768 463.7C259.516 463.994 259.39 464.407 259.39 464.939C259.39 465.387 259.488 465.849 259.684 466.325C259.88 466.787 260.139 467.242 260.461 467.69L258.823 468.341C258.501 467.893 258.235 467.375 258.025 466.787C257.815 466.199 257.71 465.604 257.71 465.002C257.71 464.344 257.85 463.763 258.13 463.259C258.41 462.755 258.788 462.363 259.264 462.083C259.74 461.789 260.272 461.642 260.86 461.642C261.728 461.642 262.414 461.845 262.918 462.251C263.422 462.657 263.912 463.28 264.388 464.12C264.71 464.666 265.004 465.128 265.27 465.506C265.536 465.884 265.83 466.171 266.152 466.367C266.488 466.549 266.901 466.64 267.391 466.64C268.119 466.64 268.63 466.388 268.924 465.884C269.232 465.366 269.386 464.757 269.386 464.057C269.386 463.077 269.176 462.167 268.756 461.327C268.35 460.487 267.797 459.787 267.097 459.227C266.411 458.653 265.634 458.275 264.766 458.093H257.752V456.476H266.677C267.433 456.476 267.958 456.441 268.252 456.371C268.56 456.301 268.791 456.21 268.945 456.098C269.127 455.958 269.246 455.804 269.302 455.636C269.372 455.454 269.407 455.265 269.407 455.069C269.407 454.607 269.295 454.159 269.071 453.725C268.847 453.277 268.504 452.822 268.042 452.36L269.407 451.457C270.065 452.185 270.513 452.843 270.751 453.431C270.989 454.005 271.108 454.593 271.108 455.195C271.108 455.461 271.052 455.79 270.94 456.182C270.828 456.56 270.597 456.903 270.247 457.211C269.897 457.519 269.477 457.743 268.987 457.883C268.497 458.023 267.846 458.093 267.034 458.093H266.53L267.727 457.904C268.441 458.352 269.05 458.884 269.554 459.5C270.058 460.116 270.443 460.795 270.709 461.537C270.975 462.265 271.108 463.049 271.108 463.889C271.108 465.261 270.765 466.339 270.079 467.123C269.407 467.907 268.448 468.299 267.202 468.299ZM268.208 469.349C268.866 469.349 269.419 469.461 269.867 469.685C270.301 469.909 270.707 470.259 271.085 470.735C271.463 471.225 271.876 471.862 272.324 472.646C272.548 473.052 272.751 473.367 272.933 473.591C273.115 473.829 273.318 473.99 273.542 474.074C273.766 474.172 274.039 474.221 274.361 474.221C274.473 474.221 274.613 474.207 274.781 474.179C274.949 474.151 275.061 474.123 275.117 474.095L275.39 475.502C275.264 475.558 275.096 475.6 274.886 475.628C274.69 475.67 274.515 475.691 274.361 475.691C273.829 475.691 273.374 475.607 272.996 475.439C272.618 475.271 272.282 475.012 271.988 474.662C271.708 474.326 271.421 473.885 271.127 473.339C270.833 472.765 270.546 472.282 270.266 471.89C269.972 471.498 269.671 471.204 269.363 471.008C269.041 470.812 268.684 470.714 268.292 470.714C267.872 470.714 267.55 470.819 267.326 471.029C267.088 471.239 266.969 471.519 266.969 471.869C266.969 472.093 267.018 472.31 267.116 472.52C267.214 472.73 267.403 472.905 267.683 473.045C267.949 473.185 268.334 473.255 268.838 473.255C269.72 473.255 270.462 473.101 271.064 472.793C271.652 472.485 272.093 472.065 272.387 471.533C272.695 471.001 272.849 470.413 272.849 469.769C272.849 469.307 272.793 468.852 272.681 468.404C272.569 467.956 272.415 467.557 272.219 467.207L273.605 466.514C273.885 466.92 274.095 467.403 274.235 467.963C274.375 468.523 274.445 469.055 274.445 469.559C274.445 470.455 274.277 471.218 273.941 471.848C273.605 472.492 273.157 473.017 272.597 473.423C272.037 473.829 271.421 474.13 270.749 474.326C270.063 474.522 269.384 474.62 268.712 474.62C267.928 474.62 267.291 474.487 266.801 474.221C266.297 473.969 265.933 473.633 265.709 473.213C265.485 472.793 265.373 472.345 265.373 471.869C265.373 471.085 265.646 470.469 266.192 470.021C266.724 469.573 267.396 469.349 268.208 469.349ZM278.739 468.299C277.647 468.299 276.765 467.893 276.093 467.081C275.421 466.269 275.085 465.051 275.085 463.427C275.085 462.559 275.204 461.761 275.442 461.033C275.694 460.305 276.065 459.668 276.555 459.122C277.045 458.562 277.64 458.128 278.34 457.82L278.655 458.093H275.085V456.476H285.081C285.823 456.476 286.348 456.441 286.656 456.371C286.978 456.301 287.209 456.21 287.349 456.098C287.545 455.958 287.671 455.804 287.727 455.636C287.783 455.454 287.811 455.265 287.811 455.069C287.811 454.607 287.699 454.159 287.475 453.725C287.251 453.277 286.908 452.822 286.446 452.36L287.811 451.457C288.469 452.185 288.917 452.843 289.155 453.431C289.393 454.005 289.512 454.593 289.512 455.195C289.512 455.461 289.456 455.79 289.344 456.182C289.232 456.56 289.001 456.903 288.651 457.211C288.511 457.337 288.336 457.456 288.126 457.568C287.93 457.68 287.706 457.778 287.454 457.862C287.202 457.932 286.908 457.988 286.572 458.03L286.635 457.799C287.125 457.995 287.524 458.261 287.832 458.597C288.14 458.933 288.364 459.304 288.504 459.71C288.658 460.116 288.735 460.536 288.735 460.97C288.735 461.222 288.714 461.446 288.672 461.642C288.644 461.838 288.574 462.048 288.462 462.272C288.434 462.328 288.385 462.377 288.315 462.419C288.245 462.461 288.196 462.51 288.168 462.566C287.93 462.972 287.594 463.308 287.16 463.574C286.726 463.84 286.201 463.973 285.585 463.973C285.123 463.973 284.696 463.896 284.304 463.742C283.926 463.574 283.618 463.322 283.38 462.986C283.142 462.65 283.023 462.23 283.023 461.726C283.023 460.998 283.261 460.466 283.737 460.13C284.227 459.78 284.787 459.605 285.417 459.605C285.893 459.605 286.292 459.668 286.614 459.794C286.95 459.906 287.244 460.053 287.496 460.235C288.126 460.585 288.616 461.117 288.966 461.831C289.33 462.531 289.512 463.315 289.512 464.183C289.512 465.009 289.344 465.73 289.008 466.346C288.686 466.962 288.245 467.445 287.685 467.795C287.125 468.131 286.481 468.299 285.753 468.299C284.801 468.299 284.038 468.117 283.464 467.753C282.904 467.375 282.379 466.745 281.889 465.863L282.561 465.758C282.239 466.472 281.875 467.011 281.469 467.375C281.077 467.739 280.65 467.984 280.188 468.11C279.726 468.236 279.243 468.299 278.739 468.299ZM278.97 466.64C279.67 466.64 280.223 466.409 280.629 465.947C281.035 465.471 281.301 464.883 281.427 464.183H283.023C283.163 465.037 283.464 465.66 283.926 466.052C284.402 466.444 284.955 466.64 285.585 466.64C286.005 466.64 286.39 466.556 286.74 466.388C287.104 466.22 287.391 465.954 287.601 465.59C287.825 465.226 287.937 464.75 287.937 464.162C287.937 463.63 287.853 463.119 287.685 462.629C287.517 462.125 287.258 461.712 286.908 461.39C286.572 461.054 286.138 460.886 285.606 460.886C285.312 460.886 285.067 460.963 284.871 461.117C284.689 461.257 284.598 461.46 284.598 461.726C284.598 462.034 284.689 462.265 284.871 462.419C285.053 462.573 285.326 462.65 285.69 462.65C285.914 462.65 286.145 462.601 286.383 462.503C286.635 462.391 286.845 462.216 287.013 461.978C287.181 461.726 287.265 461.39 287.265 460.97C287.265 460.55 287.153 460.165 286.929 459.815C286.719 459.451 286.411 459.136 286.005 458.87C285.613 458.604 285.144 458.401 284.598 458.261C284.066 458.121 283.478 458.051 282.834 458.051H282.099C281.231 458.051 280.468 458.184 279.81 458.45C279.152 458.716 278.599 459.094 278.151 459.584C277.703 460.06 277.367 460.627 277.143 461.285C276.919 461.943 276.807 462.657 276.807 463.427C276.807 464.589 276.996 465.415 277.374 465.905C277.752 466.395 278.284 466.64 278.97 466.64Z" fill="#0033A1"/>
<path d="M58 547C58 528.222 73.2223 513 92 513H187.219V534.585C187.219 553.363 171.997 568.585 153.219 568.585H58V547Z" fill="#FCDDA7" stroke="#976925" stroke-width="2"/>
<path d="M102.345 533.163C101.709 534.045 101.187 534.903 100.776 535.737C100.366 536.564 100.042 537.364 99.8022 538.136C99.563 538.902 99.3955 539.637 99.2998 540.341C99.2109 541.045 99.1665 541.705 99.1665 542.32C99.1665 543.386 99.2759 544.326 99.4946 545.14C99.7202 545.946 100.031 546.623 100.428 547.17C100.831 547.71 101.306 548.117 101.853 548.39C102.4 548.664 102.998 548.8 103.647 548.8C104.119 548.8 104.55 548.732 104.939 548.595C105.336 548.452 105.674 548.25 105.955 547.99C106.235 547.73 106.45 547.419 106.601 547.057C106.758 546.688 106.836 546.278 106.836 545.827C106.836 545.471 106.785 545.146 106.683 544.853C106.587 544.559 106.447 544.306 106.262 544.094C106.078 543.882 105.852 543.718 105.585 543.602C105.326 543.485 105.032 543.427 104.704 543.427C104.389 543.427 104.078 543.485 103.771 543.602C103.463 543.711 103.125 543.875 102.755 544.094L102.058 542.802C102.598 542.528 103.107 542.214 103.586 541.858C104.064 541.496 104.481 541.106 104.837 540.689C105.192 540.266 105.473 539.818 105.678 539.346C105.883 538.868 105.985 538.375 105.985 537.87C105.985 537.562 105.948 537.299 105.873 537.08C105.797 536.854 105.695 536.673 105.565 536.537C105.442 536.393 105.298 536.291 105.134 536.229C104.97 536.161 104.803 536.126 104.632 536.126C104.434 536.126 104.239 536.167 104.047 536.25C103.863 536.325 103.692 536.448 103.535 536.619C103.384 536.79 103.254 537.005 103.145 537.265C103.042 537.524 102.978 537.839 102.95 538.208L101.381 537.952C101.422 537.494 101.525 537.066 101.689 536.67C101.86 536.273 102.085 535.932 102.366 535.645C102.646 535.351 102.978 535.122 103.36 534.958C103.743 534.793 104.167 534.711 104.632 534.711C105.104 534.711 105.524 534.797 105.893 534.968C106.269 535.132 106.587 535.357 106.847 535.645C107.113 535.932 107.315 536.273 107.452 536.67C107.588 537.06 107.657 537.48 107.657 537.931C107.657 538.314 107.605 538.69 107.503 539.059C107.407 539.428 107.271 539.791 107.093 540.146C106.915 540.501 106.7 540.843 106.447 541.171C106.194 541.493 105.914 541.797 105.606 542.084L105.616 542.125C106.156 542.2 106.611 542.357 106.98 542.597C107.356 542.836 107.657 543.126 107.882 543.468C108.115 543.803 108.279 544.172 108.375 544.576C108.477 544.972 108.528 545.362 108.528 545.745C108.528 546.367 108.412 546.951 108.18 547.498C107.947 548.045 107.616 548.523 107.185 548.934C106.761 549.344 106.245 549.668 105.637 549.908C105.035 550.14 104.358 550.256 103.606 550.256C102.93 550.256 102.311 550.161 101.75 549.969C101.19 549.778 100.684 549.508 100.233 549.159C99.7886 548.811 99.3989 548.397 99.064 547.918C98.729 547.433 98.4487 546.9 98.2231 546.319C98.0044 545.738 97.8369 545.119 97.7207 544.463C97.6113 543.8 97.5566 543.12 97.5566 542.422C97.5566 541.636 97.6284 540.83 97.772 540.002C97.9155 539.168 98.1343 538.328 98.4282 537.48C98.729 536.632 99.1016 535.781 99.5459 534.927C99.9971 534.072 100.527 533.225 101.135 532.384L102.345 533.163ZM113.512 542.781C113.724 542.542 113.959 542.299 114.219 542.053C114.479 541.8 114.773 541.547 115.101 541.294L116.075 542.504C115.658 542.826 115.313 543.137 115.04 543.438C114.766 543.738 114.547 544.032 114.383 544.319C114.226 544.606 114.113 544.894 114.045 545.181C113.983 545.468 113.953 545.755 113.953 546.042C113.953 546.486 114.014 546.883 114.137 547.231C114.267 547.573 114.445 547.864 114.67 548.103C114.896 548.335 115.166 548.513 115.48 548.636C115.795 548.759 116.137 548.821 116.506 548.821C116.848 548.821 117.155 548.77 117.429 548.667C117.702 548.558 117.935 548.417 118.126 548.247C118.324 548.069 118.475 547.867 118.577 547.642C118.687 547.409 118.741 547.17 118.741 546.924C118.741 546.65 118.676 546.38 118.546 546.114C118.423 545.84 118.218 545.594 117.931 545.375L116.66 546.801L115.48 545.786L119.192 541.633L120.402 542.607L118.946 544.237C119.425 544.606 119.773 545.02 119.992 545.478C120.218 545.929 120.331 546.397 120.331 546.883C120.331 547.286 120.249 547.689 120.084 548.093C119.92 548.496 119.678 548.858 119.356 549.18C119.042 549.494 118.646 549.75 118.167 549.949C117.688 550.147 117.138 550.246 116.516 550.246C115.867 550.246 115.279 550.144 114.752 549.938C114.233 549.727 113.789 549.436 113.419 549.067C113.05 548.691 112.767 548.243 112.568 547.724C112.37 547.204 112.271 546.633 112.271 546.011C112.271 545.669 112.302 545.341 112.363 545.027C112.432 544.706 112.538 544.384 112.681 544.063C112.196 543.988 111.782 543.827 111.44 543.581C111.099 543.335 110.818 543.038 110.6 542.689C110.381 542.333 110.22 541.944 110.118 541.52C110.022 541.089 109.974 540.652 109.974 540.208C109.974 539.387 110.128 538.642 110.436 537.972C110.75 537.295 111.188 536.718 111.748 536.239C112.309 535.754 112.975 535.378 113.748 535.111C114.52 534.845 115.364 534.711 116.28 534.711C117.189 534.711 118.034 534.845 118.813 535.111C119.592 535.371 120.269 535.744 120.843 536.229C121.417 536.708 121.865 537.285 122.187 537.962C122.515 538.639 122.679 539.391 122.679 540.218C122.679 540.491 122.658 540.778 122.617 541.079C122.576 541.38 122.508 541.694 122.412 542.022L120.823 541.653C120.877 541.455 120.918 541.243 120.946 541.018C120.973 540.792 120.987 540.57 120.987 540.351C120.987 539.736 120.881 539.172 120.669 538.659C120.464 538.146 120.163 537.706 119.767 537.336C119.37 536.96 118.885 536.67 118.311 536.465C117.743 536.26 117.097 536.157 116.373 536.157C115.682 536.157 115.05 536.253 114.476 536.444C113.901 536.629 113.406 536.899 112.989 537.254C112.572 537.603 112.247 538.027 112.015 538.526C111.782 539.025 111.666 539.585 111.666 540.208C111.666 540.522 111.697 540.833 111.758 541.141C111.827 541.441 111.933 541.711 112.076 541.951C112.227 542.19 112.418 542.388 112.65 542.545C112.883 542.696 113.17 542.774 113.512 542.781ZM115.193 552.707C115.193 552.522 115.228 552.352 115.296 552.194C115.364 552.037 115.457 551.897 115.573 551.774C115.696 551.658 115.836 551.565 115.993 551.497C116.157 551.429 116.332 551.395 116.516 551.395C116.701 551.395 116.872 551.429 117.029 551.497C117.186 551.565 117.323 551.658 117.439 551.774C117.562 551.897 117.658 552.037 117.726 552.194C117.794 552.352 117.829 552.522 117.829 552.707C117.829 552.892 117.794 553.062 117.726 553.22C117.658 553.384 117.562 553.524 117.439 553.64C117.323 553.763 117.186 553.859 117.029 553.927C116.872 553.996 116.701 554.03 116.516 554.03C116.332 554.03 116.157 553.996 115.993 553.927C115.836 553.859 115.696 553.763 115.573 553.64C115.457 553.524 115.364 553.384 115.296 553.22C115.228 553.062 115.193 552.892 115.193 552.707ZM121.11 533.758C120.378 533.245 119.609 532.879 118.803 532.661C117.989 532.435 117.152 532.322 116.291 532.322C115.874 532.322 115.453 532.35 115.029 532.404C114.599 532.452 114.175 532.534 113.758 532.65C113.334 532.767 112.92 532.917 112.517 533.102C112.107 533.286 111.714 533.512 111.338 533.778L110.589 532.476C110.952 532.216 111.355 531.991 111.799 531.799C112.244 531.601 112.712 531.437 113.204 531.307C113.689 531.17 114.192 531.068 114.711 531C115.231 530.931 115.75 530.897 116.27 530.897C117.295 530.897 118.29 531.027 119.254 531.287C120.218 531.546 121.096 531.939 121.889 532.466L121.11 533.758ZM134.881 534.711H136.491V550H134.881V548.216L134.819 548.206C134.519 548.554 134.177 548.858 133.794 549.118C133.418 549.371 133.018 549.583 132.594 549.754C132.17 549.918 131.726 550.041 131.261 550.123C130.803 550.205 130.345 550.246 129.887 550.246C129.183 550.246 128.503 550.154 127.847 549.969C127.197 549.778 126.623 549.494 126.124 549.118C125.625 548.742 125.225 548.271 124.924 547.703C124.624 547.136 124.473 546.476 124.473 545.724C124.473 545.266 124.528 544.856 124.637 544.494C124.753 544.131 124.907 543.81 125.099 543.53C125.297 543.243 125.522 542.993 125.775 542.781C126.035 542.562 126.309 542.371 126.596 542.207C126.883 542.043 127.173 541.899 127.467 541.776C127.768 541.646 128.059 541.527 128.339 541.417C128.817 541.233 129.262 541.048 129.672 540.864C130.089 540.672 130.451 540.447 130.759 540.187C131.066 539.927 131.306 539.613 131.477 539.244C131.654 538.868 131.743 538.406 131.743 537.859C131.743 537.312 131.651 536.896 131.466 536.608C131.282 536.321 131.005 536.178 130.636 536.178C130.349 536.178 130.106 536.28 129.908 536.485C129.709 536.684 129.61 537.015 129.61 537.48V539.469H127.949V537.521C127.949 537.042 127.854 536.701 127.662 536.496C127.478 536.284 127.231 536.178 126.924 536.178C126.739 536.178 126.582 536.212 126.452 536.28C126.322 536.342 126.213 536.427 126.124 536.537C126.042 536.646 125.98 536.772 125.939 536.916C125.898 537.053 125.878 537.196 125.878 537.347C125.878 537.641 125.939 537.924 126.062 538.198C126.192 538.471 126.336 538.71 126.493 538.916L125.232 539.695C124.917 539.339 124.678 538.957 124.514 538.546C124.35 538.129 124.268 537.719 124.268 537.316C124.268 536.967 124.326 536.636 124.442 536.321C124.565 536.007 124.736 535.73 124.955 535.491C125.181 535.251 125.451 535.063 125.765 534.927C126.086 534.783 126.449 534.711 126.852 534.711C127.707 534.711 128.339 535.06 128.749 535.757H128.8C129.012 535.388 129.272 535.122 129.58 534.958C129.887 534.793 130.256 534.711 130.687 534.711C131.097 534.711 131.466 534.783 131.794 534.927C132.123 535.063 132.403 535.269 132.635 535.542C132.875 535.815 133.056 536.154 133.179 536.557C133.309 536.96 133.374 537.425 133.374 537.952C133.374 538.478 133.312 538.946 133.189 539.356C133.066 539.767 132.898 540.129 132.687 540.443C132.475 540.758 132.232 541.031 131.958 541.264C131.685 541.489 131.395 541.691 131.087 541.869C130.779 542.04 130.468 542.19 130.154 542.32C129.839 542.45 129.539 542.569 129.251 542.679C128.862 542.829 128.482 542.99 128.113 543.161C127.744 543.332 127.413 543.537 127.119 543.776C126.825 544.015 126.589 544.299 126.411 544.627C126.233 544.948 126.145 545.338 126.145 545.796C126.145 546.254 126.24 546.671 126.432 547.047C126.623 547.416 126.886 547.734 127.221 548C127.563 548.26 127.963 548.462 128.421 548.605C128.886 548.749 129.392 548.821 129.938 548.821C130.595 548.821 131.22 548.722 131.815 548.523C132.41 548.318 132.933 548.038 133.384 547.683C133.842 547.32 134.204 546.893 134.471 546.401C134.744 545.909 134.881 545.372 134.881 544.791V534.711ZM139.362 534.711H140.972V550H139.362V534.711Z" fill="#0033A1"/>
<path d="M157.416 166.596C157.416 168.021 156.908 169.177 155.893 170.062C154.883 170.941 153.552 171.381 151.898 171.381C150.629 171.381 149.545 171.153 148.646 170.697C147.748 170.242 147.299 169.708 147.299 169.096C147.299 168.66 147.442 168.308 147.729 168.041C148.021 167.774 148.412 167.641 148.9 167.641C149.141 167.641 149.646 167.761 150.414 168.002C151.182 168.243 151.83 168.363 152.357 168.363C152.813 168.363 153.194 168.223 153.5 167.943C153.806 167.663 153.959 167.315 153.959 166.898C153.959 166.449 153.803 166.088 153.49 165.814C153.178 165.541 152.507 165.248 151.479 164.936C149.988 164.493 148.946 163.969 148.354 163.363C147.761 162.751 147.465 161.931 147.465 160.902C147.465 159.581 147.94 158.5 148.891 157.66C149.848 156.82 151.091 156.4 152.621 156.4C153.747 156.4 154.675 156.602 155.404 157.006C156.133 157.403 156.498 157.901 156.498 158.5C156.498 158.93 156.368 159.268 156.107 159.516C155.854 159.757 155.499 159.877 155.043 159.877C154.789 159.877 154.376 159.796 153.803 159.633C153.23 159.464 152.797 159.379 152.504 159.379C152.022 159.379 151.638 159.493 151.352 159.721C151.065 159.942 150.922 160.235 150.922 160.6C150.922 161.179 151.553 161.667 152.816 162.064C153.109 162.156 153.337 162.227 153.5 162.279C154.861 162.735 155.854 163.311 156.479 164.008C157.104 164.698 157.416 165.561 157.416 166.596ZM161.479 164.496H165.639C165.6 163.962 165.385 163.516 164.994 163.158C164.604 162.8 164.138 162.621 163.598 162.621C163.064 162.621 162.605 162.79 162.221 163.129C161.837 163.467 161.589 163.923 161.479 164.496ZM161.518 166.557C161.589 167.149 161.833 167.611 162.25 167.943C162.667 168.275 163.217 168.441 163.9 168.441C164.493 168.441 165.15 168.272 165.873 167.934C166.602 167.589 167.051 167.416 167.221 167.416C167.592 167.416 167.895 167.53 168.129 167.758C168.363 167.986 168.48 168.279 168.48 168.637C168.48 169.314 168.008 169.926 167.064 170.473C166.12 171.013 165.01 171.283 163.734 171.283C162.178 171.283 160.88 170.753 159.838 169.691C158.796 168.63 158.275 167.299 158.275 165.697C158.275 164.089 158.78 162.748 159.789 161.674C160.805 160.6 162.068 160.062 163.578 160.062C165.036 160.062 166.257 160.567 167.24 161.576C168.223 162.585 168.715 163.819 168.715 165.277C168.715 165.753 168.607 166.085 168.393 166.273C168.178 166.462 167.764 166.557 167.152 166.557H161.518ZM170.209 158.041C170.209 157.26 170.339 156.68 170.6 156.303C170.86 155.925 171.257 155.736 171.791 155.736C172.312 155.736 172.699 155.928 172.953 156.312C173.214 156.69 173.344 157.266 173.344 158.041V168.842C173.344 169.623 173.217 170.202 172.963 170.58C172.709 170.951 172.318 171.137 171.791 171.137C171.257 171.137 170.86 170.948 170.6 170.57C170.339 170.193 170.209 169.617 170.209 168.842V158.041ZM178.197 164.496H182.357C182.318 163.962 182.104 163.516 181.713 163.158C181.322 162.8 180.857 162.621 180.316 162.621C179.783 162.621 179.324 162.79 178.939 163.129C178.555 163.467 178.308 163.923 178.197 164.496ZM178.236 166.557C178.308 167.149 178.552 167.611 178.969 167.943C179.385 168.275 179.936 168.441 180.619 168.441C181.212 168.441 181.869 168.272 182.592 167.934C183.321 167.589 183.77 167.416 183.939 167.416C184.311 167.416 184.613 167.53 184.848 167.758C185.082 167.986 185.199 168.279 185.199 168.637C185.199 169.314 184.727 169.926 183.783 170.473C182.839 171.013 181.729 171.283 180.453 171.283C178.897 171.283 177.598 170.753 176.557 169.691C175.515 168.63 174.994 167.299 174.994 165.697C174.994 164.089 175.499 162.748 176.508 161.674C177.523 160.6 178.786 160.062 180.297 160.062C181.755 160.062 182.976 160.567 183.959 161.576C184.942 162.585 185.434 163.819 185.434 165.277C185.434 165.753 185.326 166.085 185.111 166.273C184.896 166.462 184.483 166.557 183.871 166.557H178.236ZM186.205 165.678C186.205 164.018 186.703 162.67 187.699 161.635C188.695 160.6 190.004 160.082 191.625 160.082C192.673 160.082 193.523 160.271 194.174 160.648C194.825 161.02 195.15 161.505 195.15 162.104C195.15 162.488 195.027 162.807 194.779 163.061C194.532 163.314 194.219 163.441 193.842 163.441C193.679 163.441 193.35 163.363 192.855 163.207C192.361 163.044 191.951 162.963 191.625 162.963C190.974 162.963 190.447 163.207 190.043 163.695C189.646 164.184 189.447 164.825 189.447 165.619C189.447 166.446 189.652 167.097 190.062 167.572C190.473 168.041 191.033 168.275 191.742 168.275C192.087 168.275 192.497 168.197 192.973 168.041C193.454 167.878 193.767 167.797 193.91 167.797C194.255 167.797 194.545 167.93 194.779 168.197C195.014 168.458 195.131 168.78 195.131 169.164C195.131 169.743 194.776 170.238 194.066 170.648C193.357 171.059 192.478 171.264 191.43 171.264C189.88 171.264 188.62 170.749 187.65 169.721C186.687 168.686 186.205 167.338 186.205 165.678ZM196.977 163.256H196.859C196.306 163.256 195.87 163.135 195.551 162.895C195.238 162.647 195.082 162.315 195.082 161.898C195.082 161.469 195.238 161.137 195.551 160.902C195.87 160.668 196.345 160.535 196.977 160.502V159.115C196.977 158.34 197.107 157.764 197.367 157.387C197.628 157.009 198.025 156.82 198.559 156.82C199.086 156.82 199.477 157.009 199.73 157.387C199.991 157.764 200.121 158.34 200.121 159.115V160.502H200.395C201.02 160.502 201.505 160.626 201.85 160.873C202.201 161.12 202.377 161.462 202.377 161.898C202.377 162.348 202.208 162.686 201.869 162.914C201.537 163.142 201.039 163.256 200.375 163.256H200.121V168.842C200.121 169.623 199.994 170.202 199.74 170.58C199.486 170.951 199.092 171.137 198.559 171.137C198.025 171.137 197.628 170.948 197.367 170.57C197.107 170.193 196.977 169.617 196.977 168.842V163.256ZM209.662 158.9C209.662 158.126 209.796 157.549 210.062 157.172C210.329 156.788 210.736 156.596 211.283 156.596C211.83 156.596 212.237 156.788 212.504 157.172C212.771 157.549 212.904 158.126 212.904 158.9V168.002H215.639C216.42 168.002 216.999 168.126 217.377 168.373C217.755 168.62 217.943 168.995 217.943 169.496C217.943 170.004 217.755 170.382 217.377 170.629C216.999 170.876 216.42 171 215.639 171H211.859C211.02 171 210.443 170.857 210.131 170.57C209.818 170.284 209.662 169.747 209.662 168.959V158.9ZM225.502 170.043C225.183 170.434 224.796 170.733 224.34 170.941C223.891 171.143 223.399 171.244 222.865 171.244C221.518 171.244 220.382 170.714 219.457 169.652C218.539 168.591 218.08 167.266 218.08 165.678C218.08 164.109 218.555 162.787 219.506 161.713C220.456 160.639 221.615 160.102 222.982 160.102C223.516 160.102 223.988 160.193 224.398 160.375C224.815 160.557 225.183 160.84 225.502 161.225C225.684 160.893 225.902 160.642 226.156 160.473C226.41 160.303 226.693 160.219 227.006 160.219C227.533 160.219 227.924 160.404 228.178 160.775C228.432 161.146 228.559 161.723 228.559 162.504V168.842C228.559 169.617 228.428 170.193 228.168 170.57C227.914 170.948 227.527 171.137 227.006 171.137C226.654 171.137 226.358 171.049 226.117 170.873C225.876 170.697 225.671 170.421 225.502 170.043ZM221.342 165.639C221.342 166.413 221.531 167.038 221.908 167.514C222.286 167.982 222.777 168.217 223.383 168.217C223.975 168.217 224.46 167.979 224.838 167.504C225.215 167.022 225.404 166.4 225.404 165.639C225.404 164.896 225.212 164.291 224.828 163.822C224.451 163.354 223.969 163.119 223.383 163.119C222.784 163.119 222.292 163.354 221.908 163.822C221.531 164.285 221.342 164.89 221.342 165.639ZM230.756 168.842V162.504C230.756 161.729 230.883 161.156 231.137 160.785C231.397 160.408 231.794 160.219 232.328 160.219C232.647 160.219 232.93 160.303 233.178 160.473C233.425 160.635 233.643 160.886 233.832 161.225C234.171 160.854 234.561 160.583 235.004 160.414C235.447 160.245 235.984 160.16 236.615 160.16C237.859 160.16 238.809 160.515 239.467 161.225C240.124 161.934 240.453 162.966 240.453 164.32V168.842C240.453 169.617 240.323 170.193 240.062 170.57C239.802 170.948 239.405 171.137 238.871 171.137C238.337 171.137 237.94 170.948 237.68 170.57C237.419 170.193 237.289 169.617 237.289 168.842V165.277C237.289 164.398 237.156 163.773 236.889 163.402C236.628 163.025 236.195 162.836 235.59 162.836C235.017 162.836 234.594 163.031 234.32 163.422C234.047 163.806 233.91 164.411 233.91 165.238V168.842C233.91 169.617 233.78 170.193 233.52 170.57C233.259 170.948 232.862 171.137 232.328 171.137C231.794 171.137 231.397 170.948 231.137 170.57C230.883 170.193 230.756 169.617 230.756 168.842ZM249.33 169.682C248.985 170.176 248.575 170.548 248.1 170.795C247.624 171.036 247.081 171.156 246.469 171.156C245.193 171.156 244.112 170.632 243.227 169.584C242.348 168.536 241.908 167.234 241.908 165.678C241.908 164.109 242.383 162.787 243.334 161.713C244.285 160.639 245.443 160.102 246.811 160.102C247.344 160.102 247.816 160.193 248.227 160.375C248.643 160.557 249.011 160.84 249.33 161.225C249.499 160.912 249.708 160.668 249.955 160.492C250.209 160.31 250.466 160.219 250.727 160.219C251.267 160.219 251.664 160.408 251.918 160.785C252.178 161.156 252.309 161.729 252.309 162.504V168.842C252.309 170.007 252.25 170.915 252.133 171.566C252.022 172.224 251.833 172.768 251.566 173.197C251.104 173.972 250.466 174.558 249.652 174.955C248.845 175.359 247.885 175.561 246.771 175.561C245.411 175.561 244.301 175.342 243.441 174.906C242.582 174.47 242.152 173.92 242.152 173.256C242.152 172.859 242.279 172.53 242.533 172.27C242.794 172.009 243.119 171.879 243.51 171.879C243.699 171.879 244.151 172.019 244.867 172.299C245.59 172.579 246.264 172.719 246.889 172.719C247.67 172.719 248.275 172.488 248.705 172.025C249.135 171.563 249.35 170.909 249.35 170.062C249.35 170.023 249.346 169.962 249.34 169.877C249.333 169.792 249.33 169.727 249.33 169.682ZM245.17 165.678C245.17 166.465 245.362 167.104 245.746 167.592C246.13 168.08 246.625 168.324 247.23 168.324C247.836 168.324 248.334 168.08 248.725 167.592C249.115 167.097 249.311 166.459 249.311 165.678C249.311 164.916 249.115 164.298 248.725 163.822C248.334 163.34 247.836 163.1 247.23 163.1C246.625 163.1 246.13 163.34 245.746 163.822C245.362 164.298 245.17 164.916 245.17 165.678ZM254.418 166.703V162.504C254.418 161.729 254.548 161.156 254.809 160.785C255.069 160.408 255.466 160.219 256 160.219C256.527 160.219 256.918 160.408 257.172 160.785C257.432 161.156 257.562 161.729 257.562 162.504V166.059C257.562 166.898 257.689 167.494 257.943 167.846C258.197 168.191 258.611 168.363 259.184 168.363C259.757 168.363 260.17 168.191 260.424 167.846C260.678 167.494 260.805 166.898 260.805 166.059V162.504C260.805 161.729 260.932 161.156 261.186 160.785C261.446 160.408 261.846 160.219 262.387 160.219C262.914 160.219 263.305 160.404 263.559 160.775C263.812 161.146 263.939 161.723 263.939 162.504V166.703C263.939 168.201 263.533 169.346 262.719 170.141C261.905 170.928 260.727 171.322 259.184 171.322C257.641 171.322 256.459 170.928 255.639 170.141C254.825 169.346 254.418 168.201 254.418 166.703ZM272.865 170.043C272.546 170.434 272.159 170.733 271.703 170.941C271.254 171.143 270.762 171.244 270.229 171.244C268.881 171.244 267.745 170.714 266.82 169.652C265.902 168.591 265.443 167.266 265.443 165.678C265.443 164.109 265.919 162.787 266.869 161.713C267.82 160.639 268.979 160.102 270.346 160.102C270.88 160.102 271.352 160.193 271.762 160.375C272.178 160.557 272.546 160.84 272.865 161.225C273.048 160.893 273.266 160.642 273.52 160.473C273.773 160.303 274.057 160.219 274.369 160.219C274.896 160.219 275.287 160.404 275.541 160.775C275.795 161.146 275.922 161.723 275.922 162.504V168.842C275.922 169.617 275.792 170.193 275.531 170.57C275.277 170.948 274.89 171.137 274.369 171.137C274.018 171.137 273.721 171.049 273.48 170.873C273.24 170.697 273.035 170.421 272.865 170.043ZM268.705 165.639C268.705 166.413 268.894 167.038 269.271 167.514C269.649 167.982 270.141 168.217 270.746 168.217C271.339 168.217 271.824 167.979 272.201 167.504C272.579 167.022 272.768 166.4 272.768 165.639C272.768 164.896 272.576 164.291 272.191 163.822C271.814 163.354 271.332 163.119 270.746 163.119C270.147 163.119 269.656 163.354 269.271 163.822C268.894 164.285 268.705 164.89 268.705 165.639ZM284.916 169.682C284.571 170.176 284.161 170.548 283.686 170.795C283.21 171.036 282.667 171.156 282.055 171.156C280.779 171.156 279.698 170.632 278.812 169.584C277.934 168.536 277.494 167.234 277.494 165.678C277.494 164.109 277.969 162.787 278.92 161.713C279.87 160.639 281.029 160.102 282.396 160.102C282.93 160.102 283.402 160.193 283.812 160.375C284.229 160.557 284.597 160.84 284.916 161.225C285.085 160.912 285.294 160.668 285.541 160.492C285.795 160.31 286.052 160.219 286.312 160.219C286.853 160.219 287.25 160.408 287.504 160.785C287.764 161.156 287.895 161.729 287.895 162.504V168.842C287.895 170.007 287.836 170.915 287.719 171.566C287.608 172.224 287.419 172.768 287.152 173.197C286.69 173.972 286.052 174.558 285.238 174.955C284.431 175.359 283.471 175.561 282.357 175.561C280.997 175.561 279.887 175.342 279.027 174.906C278.168 174.47 277.738 173.92 277.738 173.256C277.738 172.859 277.865 172.53 278.119 172.27C278.38 172.009 278.705 171.879 279.096 171.879C279.285 171.879 279.737 172.019 280.453 172.299C281.176 172.579 281.85 172.719 282.475 172.719C283.256 172.719 283.861 172.488 284.291 172.025C284.721 171.563 284.936 170.909 284.936 170.062C284.936 170.023 284.932 169.962 284.926 169.877C284.919 169.792 284.916 169.727 284.916 169.682ZM280.756 165.678C280.756 166.465 280.948 167.104 281.332 167.592C281.716 168.08 282.211 168.324 282.816 168.324C283.422 168.324 283.92 168.08 284.311 167.592C284.701 167.097 284.896 166.459 284.896 165.678C284.896 164.916 284.701 164.298 284.311 163.822C283.92 163.34 283.422 163.1 282.816 163.1C282.211 163.1 281.716 163.34 281.332 163.822C280.948 164.298 280.756 164.916 280.756 165.678ZM292.65 164.496H296.811C296.771 163.962 296.557 163.516 296.166 163.158C295.775 162.8 295.31 162.621 294.77 162.621C294.236 162.621 293.777 162.79 293.393 163.129C293.008 163.467 292.761 163.923 292.65 164.496ZM292.689 166.557C292.761 167.149 293.005 167.611 293.422 167.943C293.839 168.275 294.389 168.441 295.072 168.441C295.665 168.441 296.322 168.272 297.045 167.934C297.774 167.589 298.223 167.416 298.393 167.416C298.764 167.416 299.066 167.53 299.301 167.758C299.535 167.986 299.652 168.279 299.652 168.637C299.652 169.314 299.18 169.926 298.236 170.473C297.292 171.013 296.182 171.283 294.906 171.283C293.35 171.283 292.051 170.753 291.01 169.691C289.968 168.63 289.447 167.299 289.447 165.697C289.447 164.089 289.952 162.748 290.961 161.674C291.977 160.6 293.24 160.062 294.75 160.062C296.208 160.062 297.429 160.567 298.412 161.576C299.395 162.585 299.887 163.819 299.887 165.277C299.887 165.753 299.779 166.085 299.564 166.273C299.35 166.462 298.936 166.557 298.324 166.557H292.689Z" fill="#0033A1"/>
<path d="M91.4421 183.604V153.911C92.4738 153.513 93.4931 153.055 94.5407 152.716C95.251 152.481 95.5245 152.052 95.5138 151.217C95.4801 148.563 95.4943 145.91 95.5138 143.256C95.5138 142.158 95.6328 142.072 96.5402 142.431C99.6849 143.664 102.876 144.786 105.966 146.201C107.97 147.114 109.757 147.198 111.809 146.301C115.798 144.561 119.889 143.112 123.937 141.556H124.825C125.072 142.006 125.054 142.507 125.054 143.005C125.054 146.092 125.074 149.182 125.044 152.265C125.044 153.023 125.271 153.427 125.932 153.62C126.819 153.882 127.686 154.218 128.561 154.509V183.604C128.009 183.67 127.523 183.391 127.022 183.206C121.618 181.283 116.218 179.35 110.824 177.407C110.241 177.181 109.607 177.186 109.027 177.421C103.709 179.445 98.3881 181.442 93.0634 183.411C92.5431 183.604 92.0192 183.935 91.4421 183.604ZM109.006 162.49C109.006 158.239 109.006 153.992 109.006 149.748C109.006 149.111 109.018 148.623 108.187 148.937C103.262 150.807 98.3289 152.649 93.3865 154.463C92.7473 154.699 92.4987 155.087 92.4987 155.832C92.5129 164.228 92.4987 172.624 92.5111 181.018C92.5111 182.138 92.6461 182.231 93.6191 181.869C98.4135 180.075 103.208 178.272 108.002 176.51C108.746 176.237 109.016 175.804 109.009 174.934C108.988 170.785 109.006 166.638 109.006 162.49ZM124.491 173.983L123.724 170.892C122.68 166.673 121.637 162.453 120.596 158.234C120.336 157.192 119.647 156.64 118.465 156.564C117.62 156.508 117.714 157.391 117.527 157.893C116.131 161.626 114.789 165.384 113.427 169.133C112.894 170.625 112.894 170.583 114.221 171.093C114.922 171.362 115.35 171.271 115.561 170.42C115.64 170.103 115.807 169.822 115.892 169.499C116.101 168.718 116.464 168.427 117.206 168.76C117.913 169.101 118.653 169.348 119.411 169.497C121.04 169.764 121.863 170.733 122.075 172.576C122.22 173.804 123.027 174.384 124.131 174.435C124.413 174.437 124.541 174.372 124.491 173.983ZM110.682 148.005C110.859 148.168 110.898 148.228 110.948 148.246C115 149.701 119.052 151.155 123.103 152.61C123.813 152.867 123.905 152.475 123.902 151.825C123.89 149.27 123.902 146.717 123.902 144.163C123.902 143.051 123.843 143.005 122.881 143.365C119.746 144.553 116.613 145.749 113.48 146.953L110.682 148.005Z" fill="#0033A1"/>
<path d="M107.423 189.782C104.843 189.312 102.345 188.556 100.04 187.12C99.78 186.963 99.5275 186.79 99.2836 186.603C99.0102 186.388 98.7403 186.125 98.9516 185.703C99.1629 185.28 99.4843 185.366 99.8004 185.543C100.065 185.693 100.321 185.86 100.582 186.014C106.18 189.276 111.815 189.547 117.488 186.259C118.568 185.633 118.582 185.607 117.978 184.443C117.639 183.792 117.657 183.471 118.424 183.552C119.219 183.636 120.022 183.696 120.809 183.774C121.304 183.822 121.592 184.023 121.38 184.67C121.055 185.667 120.764 186.677 120.459 187.682C120.281 188.248 120.026 188.341 119.802 187.755C119.406 186.723 118.914 186.743 118.108 187.277C116.021 188.66 113.704 189.334 111.33 189.782H107.423Z" fill="#0033A1"/>
<path d="M105.175 159.98C105.094 160.207 104.998 160.551 104.854 160.878C104.16 162.528 103.444 164.174 102.521 165.677C102.032 166.474 102.208 166.781 102.943 167.088C104.05 167.55 105.124 168.11 106.211 168.634C106.479 168.766 106.79 168.846 106.956 169.142C107.166 169.509 107.384 169.968 107.189 170.35C106.955 170.804 106.546 170.482 106.241 170.35C104.888 169.758 103.633 168.917 102.526 167.863C101.938 167.291 101.571 167.319 101.129 168.078C99.9579 170.035 98.6567 171.889 97.2362 173.624C96.8822 174.115 96.4587 174.537 95.9826 174.874C95.7571 175.017 95.4499 175.219 95.2457 174.963C95.0006 174.645 95.37 174.441 95.5245 174.246C97.1492 172.217 98.5432 169.997 99.9424 167.769C100.951 166.157 101.675 164.382 102.459 162.63C102.558 162.407 102.762 162.156 102.558 161.905C102.38 161.693 102.167 161.875 101.979 161.936C101.07 162.231 100.166 162.534 99.2588 162.835C98.9219 162.954 98.626 163.188 98.4118 163.503C97.8471 164.254 96.5899 164.316 96.0057 163.682C95.5351 163.172 95.6044 162.726 96.217 162.558C98.9783 161.822 101.664 160.768 104.233 159.412C104.625 159.2 105.184 158.836 105.175 159.98Z" fill="#0033A1"/>
<path d="M99.7223 159.649C99.4851 159.653 99.2495 159.604 99.0294 159.505C98.8092 159.405 98.6089 159.258 98.4402 159.071C98.1614 158.766 97.8542 158.405 97.9821 157.955C98.1099 157.504 98.545 157.756 98.8415 157.712C99.6441 157.622 100.381 157.257 101.161 157.078C101.549 156.986 102.025 156.815 102.258 157.373C102.476 157.893 102.258 158.345 101.903 158.702C101.297 159.295 100.526 159.63 99.7223 159.649Z" fill="#0033A1"/>
<path d="M119.243 161.219C119.679 162.963 120.118 164.704 120.548 166.45C120.647 166.849 120.466 167.004 120.118 166.938C120.059 166.926 120.001 166.919 119.94 166.905C117.048 166.307 117.039 166.287 118.15 163.288C118.41 162.591 118.671 161.897 118.935 161.203L119.243 161.219Z" fill="#0033A1"/>
<rect x="126" y="585" width="170.967" height="46" rx="9.2" fill="url(#paint0_linear_0_189)"/>
<path d="M174.626 613.605C172.944 613.605 171.589 613.049 170.562 611.938C169.534 610.827 169.021 609.365 169.021 607.551C169.021 605.775 169.553 604.323 170.617 603.196C171.681 602.064 173.028 601.498 174.657 601.498C175.622 601.498 176.434 601.682 177.094 602.049C177.755 602.415 178.085 602.843 178.085 603.33C178.085 603.644 177.975 603.92 177.755 604.155C177.535 604.391 177.275 604.509 176.977 604.509C176.804 604.509 176.46 604.436 175.947 604.289C175.438 604.137 175.014 604.061 174.673 604.061C173.824 604.061 173.143 604.383 172.629 605.028C172.116 605.673 171.859 606.535 171.859 607.614C171.859 608.673 172.118 609.514 172.637 610.138C173.161 610.762 173.866 611.073 174.752 611.073C175.166 611.073 175.632 610.976 176.151 610.782C176.675 610.583 177.021 610.484 177.189 610.484C177.456 610.484 177.697 610.599 177.912 610.83C178.127 611.06 178.234 611.325 178.234 611.624C178.234 612.158 177.886 612.622 177.189 613.015C176.492 613.408 175.637 613.605 174.626 613.605ZM182.687 607.583C182.687 608.657 182.938 609.514 183.441 610.154C183.95 610.793 184.626 611.113 185.47 611.113C186.303 611.113 186.974 610.79 187.482 610.146C187.996 609.501 188.253 608.647 188.253 607.583C188.253 606.488 187.998 605.612 187.49 604.957C186.987 604.302 186.313 603.975 185.47 603.975C184.621 603.975 183.944 604.3 183.441 604.949C182.938 605.594 182.687 606.472 182.687 607.583ZM179.849 607.551C179.849 605.743 180.365 604.284 181.397 603.173C182.435 602.056 183.793 601.498 185.47 601.498C187.152 601.498 188.512 602.056 189.55 603.173C190.587 604.289 191.106 605.749 191.106 607.551C191.106 609.36 190.587 610.822 189.55 611.938C188.517 613.049 187.157 613.605 185.47 613.605C183.782 613.605 182.422 613.049 181.39 611.938C180.362 610.822 179.849 609.36 179.849 607.551ZM196.305 611.561C196.305 612.19 196.198 612.656 195.983 612.96C195.768 613.259 195.441 613.408 195 613.408C194.565 613.408 194.238 613.256 194.018 612.952C193.803 612.648 193.695 612.184 193.695 611.561V603.432C193.695 602.85 193.795 602.415 193.994 602.127C194.193 601.834 194.497 601.687 194.906 601.687C195.168 601.687 195.401 601.75 195.606 601.876C195.815 602.001 196.043 602.219 196.29 602.528L201.101 608.888V603.526C201.101 602.898 201.208 602.431 201.423 602.127C201.638 601.823 201.965 601.671 202.406 601.671C202.846 601.671 203.174 601.826 203.388 602.135C203.603 602.439 203.711 602.903 203.711 603.526V611.852C203.711 612.402 203.614 612.811 203.42 613.078C203.231 613.345 202.93 613.479 202.516 613.479C202.243 613.479 201.986 613.403 201.745 613.251C201.51 613.099 201.268 612.858 201.022 612.528L196.305 606.294V611.561ZM208.344 604.25H207.385C206.751 604.25 206.282 604.15 205.978 603.951C205.679 603.752 205.53 603.45 205.53 603.047C205.53 602.638 205.681 602.332 205.985 602.127C206.295 601.923 206.761 601.821 207.385 601.821H211.921C212.534 601.821 212.995 601.923 213.304 602.127C213.619 602.326 213.776 602.633 213.776 603.047C213.776 603.45 213.621 603.752 213.312 603.951C213.008 604.15 212.544 604.25 211.921 604.25H210.954V611.561C210.954 612.19 210.846 612.656 210.632 612.96C210.417 613.259 210.089 613.408 209.649 613.408C209.214 613.408 208.886 613.256 208.666 612.952C208.451 612.648 208.344 612.184 208.344 611.561V604.25ZM218.276 611.561C218.276 612.19 218.168 612.656 217.953 612.96C217.738 613.259 217.411 613.408 216.971 613.408C216.536 613.408 216.208 613.256 215.988 612.952C215.773 612.648 215.666 612.184 215.666 611.561V603.526C215.666 602.898 215.773 602.431 215.988 602.127C216.203 601.823 216.53 601.671 216.971 601.671C217.411 601.671 217.738 601.826 217.953 602.135C218.168 602.439 218.276 602.903 218.276 603.526V611.561ZM224.104 611.561C224.104 612.19 223.996 612.656 223.781 612.96C223.566 613.259 223.239 613.408 222.799 613.408C222.364 613.408 222.036 613.256 221.816 612.952C221.601 612.648 221.494 612.184 221.494 611.561V603.432C221.494 602.85 221.593 602.415 221.792 602.127C221.992 601.834 222.296 601.687 222.704 601.687C222.966 601.687 223.2 601.75 223.404 601.876C223.614 602.001 223.842 602.219 224.088 602.528L228.899 608.888V603.526C228.899 602.898 229.006 602.431 229.221 602.127C229.436 601.823 229.764 601.671 230.204 601.671C230.644 601.671 230.972 601.826 231.187 602.135C231.402 602.439 231.509 602.903 231.509 603.526V611.852C231.509 612.402 231.412 612.811 231.218 613.078C231.029 613.345 230.728 613.479 230.314 613.479C230.042 613.479 229.785 613.403 229.544 613.251C229.308 613.099 229.067 612.858 228.82 612.528L224.104 606.294V611.561ZM234.664 608.353V603.526C234.664 602.898 234.772 602.431 234.987 602.127C235.201 601.823 235.529 601.671 235.969 601.671C236.409 601.671 236.737 601.826 236.952 602.135C237.167 602.439 237.274 602.903 237.274 603.526V608.062C237.274 609.074 237.465 609.837 237.848 610.35C238.236 610.858 238.812 611.113 239.578 611.113C240.332 611.113 240.903 610.858 241.291 610.35C241.684 609.837 241.881 609.074 241.881 608.062V603.526C241.881 602.898 241.988 602.431 242.203 602.127C242.418 601.823 242.743 601.671 243.178 601.671C243.618 601.671 243.946 601.826 244.161 602.135C244.376 602.439 244.483 602.903 244.483 603.526V608.353C244.483 610.009 244.048 611.299 243.178 612.221C242.313 613.144 241.113 613.605 239.578 613.605C238.037 613.605 236.831 613.146 235.961 612.229C235.097 611.307 234.664 610.015 234.664 608.353ZM252.379 601.821C252.992 601.821 253.453 601.923 253.762 602.127C254.077 602.326 254.234 602.633 254.234 603.047C254.234 603.45 254.079 603.752 253.77 603.951C253.466 604.15 253.002 604.25 252.379 604.25H250.256V606.294H252.088C252.717 606.294 253.183 606.393 253.487 606.592C253.791 606.792 253.943 607.096 253.943 607.504C253.943 607.913 253.788 608.217 253.479 608.416C253.17 608.61 252.706 608.707 252.088 608.707H250.256V610.853H252.457C253.091 610.853 253.558 610.953 253.857 611.152C254.161 611.351 254.313 611.652 254.313 612.056C254.313 612.46 254.161 612.764 253.857 612.968C253.553 613.167 253.086 613.267 252.457 613.267H249.415C248.734 613.267 248.267 613.151 248.016 612.921C247.769 612.69 247.646 612.258 247.646 611.624V603.652C247.646 602.96 247.78 602.484 248.047 602.221C248.32 601.954 248.786 601.821 249.446 601.821H252.379Z" fill="white"/>
<defs>
<linearGradient id="paint0_linear_0_189" x1="126" y1="608.404" x2="296.967" y2="608.404" gradientUnits="userSpaceOnUse">
<stop stop-color="#0C4C91"/>
<stop offset="0.554606" stop-color="#008ECF"/>
<stop offset="1" stop-color="#0C4C91"/>
</linearGradient>
</defs>
</svg>
