<svg width="18" height="21" viewBox="0 0 18 21" fill="none" xmlns="http://www.w3.org/2000/svg">
<path d="M17 7.875C17 8.54657 16.7337 9.45511 16.2048 10.5512C15.6856 11.6274 14.9582 12.7942 14.1397 13.9559C12.5042 16.2773 10.5653 18.4945 9.37393 19.7991C9.19331 19.9947 8.80558 19.9945 8.62545 19.7984L7.8891 20.475L8.62748 19.8007C7.43624 18.4962 5.4964 16.2782 3.86026 13.9559C3.04178 12.7942 2.31436 11.6274 1.79516 10.5512C1.26631 9.45511 1 8.54657 1 7.875C1 4.20088 4.45393 1 9 1C13.5461 1 17 4.20088 17 7.875Z" stroke="#0033A1" stroke-width="2"/>
</svg>
