<svg width="22" height="18" viewBox="0 0 22 18" fill="none" xmlns="http://www.w3.org/2000/svg">
<path d="M2.70117 2.44629C2.32976 2.44629 2.02588 2.77573 2.02588 3.17839V4.18959L9.30638 10.6686C10.18 11.4465 11.4336 11.4465 12.3072 10.6686L19.5835 4.18959V3.17839C19.5835 2.77573 19.2796 2.44629 18.9082 2.44629H2.70117ZM2.02588 7.03104V14.8919C2.02588 15.2946 2.32976 15.624 2.70117 15.624H18.9082C19.2796 15.624 19.5835 15.2946 19.5835 14.8919V7.03104L13.5903 12.3662C11.9696 13.8075 9.63559 13.8075 8.0191 12.3662L2.02588 7.03104ZM0 3.17839C0 1.5632 1.21131 0.25 2.70117 0.25H18.9082C20.3981 0.25 21.6094 1.5632 21.6094 3.17839V14.8919C21.6094 16.5071 20.3981 17.8203 18.9082 17.8203H2.70117C1.21131 17.8203 0 16.5071 0 14.8919V3.17839Z" fill="#0033A1"/>
</svg>
