<svg width="20" height="20" viewBox="0 0 20 20" fill="none" xmlns="http://www.w3.org/2000/svg">
<path d="M4.85296 1.01936L4.85338 1.01924C5.11311 0.948284 5.38127 1.07032 5.4997 1.30465L5.51833 1.34936L7.08083 5.09936L7.081 5.09977C7.17626 5.32811 7.11102 5.59119 6.91789 5.7491C6.91787 5.74911 6.91786 5.74912 6.91785 5.74913L4.9921 7.32332L4.38665 7.81825L4.72103 8.52515C6.12072 11.4843 8.51564 13.8792 11.4748 15.2789L12.1808 15.6128L12.6758 15.0087L14.2539 13.083L14.2539 13.083L14.2574 13.0786C14.4093 12.8913 14.6733 12.8226 14.904 12.9189L14.9044 12.9191L18.6544 14.4816L18.6566 14.4825C18.9159 14.5898 19.0554 14.8729 18.9807 15.1465L18.9805 15.1469L18.0438 18.5816C18.0437 18.5819 18.0436 18.5823 18.0436 18.5826C17.9745 18.8314 17.7495 18.9999 17.5 18.9999C8.38822 18.9999 1 11.6117 1 2.4999C1 2.2504 1.16849 2.02549 1.41722 1.95638C1.41757 1.95628 1.41792 1.95618 1.41827 1.95608L4.85296 1.01936Z" stroke="#0033A1" stroke-width="2"/>
</svg>
