<svg width="240" height="27" viewBox="0 0 240 27" fill="none" xmlns="http://www.w3.org/2000/svg">
<g filter="url(#filter0_d_2_185)">
<path d="M11.0884 1.56C10.2724 1.464 9.64841 1.44 8.68841 1.44H2.95241V18H6.26441V11.76H8.68841C9.64841 11.76 10.2724 11.736 11.0884 11.64C13.4884 11.352 15.5524 9.648 15.5524 6.6C15.5524 3.552 13.6084 1.848 11.0884 1.56ZM10.1044 9.072C9.74441 9.12 9.24041 9.144 8.64041 9.144H6.26441V4.056H8.64041C9.24041 4.056 9.74441 4.08 10.1044 4.128C11.2564 4.296 12.0724 5.04 12.0724 6.6C12.0724 8.16 11.2564 8.904 10.1044 9.072ZM20.4975 0.36H17.1855V13.896C17.1855 14.736 17.1855 15.336 17.2335 15.912C17.3055 17.568 18.3375 18.168 19.9695 18.168C20.7135 18.168 21.3615 18.144 22.0095 18.072V15.792C20.8815 15.864 20.5935 15.648 20.5215 15C20.4975 14.664 20.4975 14.328 20.4975 13.824V0.36ZM35.5767 11.352C35.5767 7.872 33.5127 4.896 29.6007 4.896C25.6887 4.896 23.1207 7.752 23.1207 11.664C23.1207 16.152 25.8327 18.336 29.3367 18.336C32.3367 18.336 34.7367 16.824 35.3847 13.848H32.0727C31.8567 15.216 30.8247 16.008 29.4087 16.008C27.8727 16.008 26.6727 15.168 26.4567 12.48H35.5287C35.5767 12.048 35.5767 11.664 35.5767 11.352ZM29.4567 7.224C31.0407 7.224 31.9527 8.304 32.1687 10.32H26.5527C26.8407 8.208 27.9207 7.224 29.4567 7.224ZM45.2757 18H48.5157C48.3237 16.584 48.2757 15.72 48.2757 14.76V10.632C48.2757 9.936 48.2517 9.264 48.2037 8.664C48.0117 6.456 46.6677 4.896 43.0917 4.896C40.0437 4.896 37.7157 6.528 37.6197 9.408L40.8357 9.384C40.9317 7.992 41.6517 7.224 42.9717 7.224C44.2677 7.224 44.8437 7.872 44.9397 8.76C44.9877 9.192 44.9877 9.576 44.9877 9.96V10.224H44.1717C39.5397 10.224 37.1397 11.808 37.1397 14.616C37.1397 17.04 39.0357 18.336 41.2437 18.336C42.4437 18.336 43.5237 18.096 44.4117 17.496L45.0357 16.128L45.2757 18ZM42.5157 16.008C41.3397 16.008 40.5717 15.48 40.5717 14.352C40.5717 12.672 42.3477 12.072 44.9877 12.264V13.296C44.9877 15.072 43.8597 16.008 42.5157 16.008ZM55.8962 4.896C52.8482 4.896 50.8322 6.384 50.8322 8.832C50.8322 11.04 52.4642 12.072 54.8402 12.672C57.0482 13.224 57.8882 13.776 57.8882 14.76C57.8882 15.696 57.0722 16.152 56.0162 16.152C54.8642 16.152 53.9042 15.504 53.6402 14.112H50.3282C50.6882 16.992 52.8722 18.336 55.9682 18.336C58.8962 18.336 61.2242 17.088 61.2242 14.52C61.2242 12.168 59.6882 11.112 57.0722 10.44C54.9602 9.912 54.1682 9.408 54.1682 8.448C54.1682 7.656 54.6962 7.08 55.6802 7.08C56.7842 7.08 57.4322 7.752 57.6482 8.928H60.9602C60.6722 6.6 58.9442 4.896 55.8962 4.896ZM74.8579 11.352C74.8579 7.872 72.7939 4.896 68.8819 4.896C64.9699 4.896 62.4019 7.752 62.4019 11.664C62.4019 16.152 65.1139 18.336 68.6179 18.336C71.6179 18.336 74.0179 16.824 74.6659 13.848H71.3539C71.1379 15.216 70.1059 16.008 68.6899 16.008C67.1539 16.008 65.9539 15.168 65.7379 12.48H74.8099C74.8579 12.048 74.8579 11.664 74.8579 11.352ZM68.7379 7.224C70.3219 7.224 71.2339 8.304 71.4499 10.32H65.8339C66.1219 8.208 67.2019 7.224 68.7379 7.224ZM86.365 4.896C83.317 4.896 81.301 6.384 81.301 8.832C81.301 11.04 82.933 12.072 85.309 12.672C87.517 13.224 88.357 13.776 88.357 14.76C88.357 15.696 87.541 16.152 86.485 16.152C85.333 16.152 84.373 15.504 84.109 14.112H80.797C81.157 16.992 83.341 18.336 86.437 18.336C89.365 18.336 91.693 17.088 91.693 14.52C91.693 12.168 90.157 11.112 87.541 10.44C85.429 9.912 84.637 9.408 84.637 8.448C84.637 7.656 85.165 7.08 86.149 7.08C87.253 7.08 87.901 7.752 88.117 8.928H91.429C91.141 6.6 89.413 4.896 86.365 4.896ZM99.2547 4.896C95.7507 4.896 92.8707 7.344 92.8707 11.712C92.8707 16.128 95.4867 18.336 98.9667 18.336C102.159 18.336 104.511 16.728 105.063 13.584H101.751C101.415 15.192 100.455 16.008 99.1587 16.008C97.5027 16.008 96.3027 14.664 96.3027 11.496C96.3027 8.592 97.5027 7.224 99.1827 7.224C100.551 7.224 101.511 7.992 101.823 9.84H105.087C104.847 7.008 102.711 4.896 99.2547 4.896ZM114.604 18H117.844C117.652 16.584 117.604 15.72 117.604 14.76V10.632C117.604 9.936 117.58 9.264 117.532 8.664C117.34 6.456 115.996 4.896 112.42 4.896C109.372 4.896 107.044 6.528 106.948 9.408L110.164 9.384C110.26 7.992 110.98 7.224 112.3 7.224C113.596 7.224 114.172 7.872 114.268 8.76C114.316 9.192 114.316 9.576 114.316 9.96V10.224H113.5C108.868 10.224 106.468 11.808 106.468 14.616C106.468 17.04 108.364 18.336 110.572 18.336C111.772 18.336 112.852 18.096 113.74 17.496L114.364 16.128L114.604 18ZM111.844 16.008C110.668 16.008 109.9 15.48 109.9 14.352C109.9 12.672 111.676 12.072 114.316 12.264V13.296C114.316 15.072 113.188 16.008 111.844 16.008ZM132.568 8.472C132.304 6.24 130.744 4.896 128.032 4.896C126.808 4.896 125.872 5.136 124.96 5.784L123.976 7.296V5.232H120.664V18H123.976V12.168C123.976 8.616 125.248 7.224 126.856 7.224C128.464 7.224 129.208 8.136 129.304 9.48C129.352 10.128 129.352 10.728 129.352 11.256V18H132.664V10.8C132.664 9.768 132.64 9.12 132.568 8.472ZM144.195 7.512H146.835V5.328H144.195V2.184H140.883V5.328H139.011V7.512H140.883V13.8C140.883 14.52 140.883 15.072 140.931 15.648C141.075 17.448 141.963 18.264 144.435 18.264C145.179 18.264 145.875 18.216 146.619 18.096V15.936C144.771 16.08 144.315 15.792 144.219 14.544C144.195 14.208 144.195 13.848 144.195 13.416V7.512ZM160.811 8.472C160.547 6.24 158.987 4.896 156.275 4.896C155.051 4.896 154.115 5.136 153.203 5.784L152.219 7.296V0.24H148.907V18H152.219V12.168C152.219 8.616 153.491 7.248 155.099 7.224C156.707 7.224 157.451 8.136 157.547 9.48C157.595 10.128 157.595 10.728 157.595 11.256V18H160.907V10.8C160.907 9.768 160.883 9.12 160.811 8.472ZM175.405 11.352C175.405 7.872 173.341 4.896 169.429 4.896C165.517 4.896 162.949 7.752 162.949 11.664C162.949 16.152 165.661 18.336 169.165 18.336C172.165 18.336 174.565 16.824 175.213 13.848H171.901C171.685 15.216 170.653 16.008 169.237 16.008C167.701 16.008 166.501 15.168 166.285 12.48H175.357C175.405 12.048 175.405 11.664 175.405 11.352ZM169.285 7.224C170.869 7.224 171.781 8.304 171.997 10.32H166.381C166.669 8.208 167.749 7.224 169.285 7.224ZM189.936 4.896C188.64 4.896 187.344 5.208 186.624 5.784L185.664 7.176V5.232H182.352V22.704H185.664V16.296L186.504 17.616C187.152 18.072 188.448 18.336 189.504 18.336C192.792 18.336 195.624 15.984 195.624 11.376C195.624 7.608 193.512 4.896 189.936 4.896ZM188.856 16.008C187.32 16.008 185.664 14.976 185.664 12.072V11.472C185.664 8.352 187.152 7.224 188.976 7.224C190.944 7.224 192.192 8.976 192.192 11.592C192.192 14.544 190.776 16.008 188.856 16.008ZM205.19 18H208.43C208.238 16.584 208.19 15.72 208.19 14.76V10.632C208.19 9.936 208.166 9.264 208.118 8.664C207.926 6.456 206.582 4.896 203.006 4.896C199.958 4.896 197.63 6.528 197.534 9.408L200.75 9.384C200.846 7.992 201.566 7.224 202.886 7.224C204.182 7.224 204.758 7.872 204.854 8.76C204.902 9.192 204.902 9.576 204.902 9.96V10.224H204.086C199.454 10.224 197.054 11.808 197.054 14.616C197.054 17.04 198.95 18.336 201.158 18.336C202.358 18.336 203.438 18.096 204.326 17.496L204.95 16.128L205.19 18ZM202.43 16.008C201.254 16.008 200.486 15.48 200.486 14.352C200.486 12.672 202.262 12.072 204.902 12.264V13.296C204.902 15.072 203.774 16.008 202.43 16.008ZM216.77 4.896C213.266 4.896 210.386 7.344 210.386 11.712C210.386 16.128 213.002 18.336 216.482 18.336C219.674 18.336 222.026 16.728 222.578 13.584H219.266C218.93 15.192 217.97 16.008 216.674 16.008C215.018 16.008 213.818 14.664 213.818 11.496C213.818 8.592 215.018 7.224 216.698 7.224C218.066 7.224 219.026 7.992 219.338 9.84H222.602C222.362 7.008 220.226 4.896 216.77 4.896ZM229.071 12.96L233.031 18H237.207L231.471 11.16L237.135 5.232H233.151L228.015 11.064V0.36H224.703V18H228.015V14.112L229.071 12.96Z" fill="url(#paint0_linear_2_185)"/>
</g>
<defs>
<filter id="filter0_d_2_185" x="0.952393" y="0.23999" width="238.255" height="26.464" filterUnits="userSpaceOnUse" color-interpolation-filters="sRGB">
<feFlood flood-opacity="0" result="BackgroundImageFix"/>
<feColorMatrix in="SourceAlpha" type="matrix" values="0 0 0 0 0 0 0 0 0 0 0 0 0 0 0 0 0 0 127 0" result="hardAlpha"/>
<feOffset dy="2"/>
<feGaussianBlur stdDeviation="1"/>
<feComposite in2="hardAlpha" operator="out"/>
<feColorMatrix type="matrix" values="0 0 0 0 0 0 0 0 0 0 0 0 0 0 0 0 0 0 0.25 0"/>
<feBlend mode="normal" in2="BackgroundImageFix" result="effect1_dropShadow_2_185"/>
<feBlend mode="normal" in="SourceGraphic" in2="effect1_dropShadow_2_185" result="shape"/>
</filter>
<linearGradient id="paint0_linear_2_185" x1="36.7026" y1="8.99999" x2="206.528" y2="8.99998" gradientUnits="userSpaceOnUse">
<stop stop-color="#FFCC66"/>
<stop offset="1" stop-color="#FFCC99"/>
</linearGradient>
</defs>
</svg>
