<svg width="311" height="28" viewBox="0 0 311 28" fill="none" xmlns="http://www.w3.org/2000/svg">
<g filter="url(#filter0_d_2_254)">
<path d="M11.1236 2.56C10.3076 2.464 9.68356 2.44 8.72356 2.44H2.98756V19H6.29956V12.76H8.72356C9.68356 12.76 10.3076 12.736 11.1236 12.64C13.5236 12.352 15.5876 10.648 15.5876 7.6C15.5876 4.552 13.6436 2.848 11.1236 2.56ZM10.1396 10.072C9.77956 10.12 9.27556 10.144 8.67556 10.144H6.29956V5.056H8.67556C9.27556 5.056 9.77956 5.08 10.1396 5.128C11.2916 5.296 12.1076 6.04 12.1076 7.6C12.1076 9.16 11.2916 9.904 10.1396 10.072ZM23.0767 5.896C18.8287 5.896 16.4527 8.728 16.4527 12.616C16.4527 16.48 18.8287 19.336 23.0767 19.336C27.3247 19.336 29.7007 16.48 29.7007 12.616C29.7007 8.728 27.3247 5.896 23.0767 5.896ZM23.0767 17.008C21.0847 17.008 19.8847 15.352 19.8847 12.616C19.8847 9.856 21.0847 8.224 23.0767 8.224C25.0687 8.224 26.2687 9.856 26.2687 12.616C26.2687 15.352 25.0687 17.008 23.0767 17.008ZM33.5274 1.48C32.4474 1.48 31.7034 2.2 31.7034 3.232C31.7034 4.288 32.4474 4.984 33.5274 4.984C34.6074 4.984 35.3514 4.288 35.3514 3.232C35.3514 2.2 34.6074 1.48 33.5274 1.48ZM35.1834 19V6.232H31.8714V19H35.1834ZM50.1504 9.472C49.8864 7.24 48.3264 5.896 45.6144 5.896C44.3904 5.896 43.4544 6.136 42.5424 6.784L41.5584 8.296V6.232H38.2464V19H41.5584V13.168C41.5584 9.616 42.8304 8.224 44.4384 8.224C46.0464 8.224 46.7904 9.136 46.8864 10.48C46.9344 11.128 46.9344 11.728 46.9344 12.256V19H50.2464V11.8C50.2464 10.768 50.2224 10.12 50.1504 9.472ZM57.1126 8.512H59.7526V6.328H57.1126V3.184H53.8006V6.328H51.9286V8.512H53.8006V14.8C53.8006 15.52 53.8006 16.072 53.8486 16.648C53.9926 18.448 54.8806 19.264 57.3526 19.264C58.0966 19.264 58.7926 19.216 59.5366 19.096V16.936C57.6886 17.08 57.2326 16.792 57.1366 15.544C57.1126 15.208 57.1126 14.848 57.1126 14.416V8.512ZM70.4486 8.512H73.0886V6.328H70.4486V3.184H67.1366V6.328H65.2646V8.512H67.1366V14.8C67.1366 15.52 67.1366 16.072 67.1846 16.648C67.3286 18.448 68.2166 19.264 70.6886 19.264C71.4326 19.264 72.1286 19.216 72.8726 19.096V16.936C71.0246 17.08 70.5686 16.792 70.4726 15.544C70.4486 15.208 70.4486 14.848 70.4486 14.416V8.512ZM80.7095 5.896C76.4615 5.896 74.0855 8.728 74.0855 12.616C74.0855 16.48 76.4615 19.336 80.7095 19.336C84.9575 19.336 87.3335 16.48 87.3335 12.616C87.3335 8.728 84.9575 5.896 80.7095 5.896ZM80.7095 17.008C78.7175 17.008 77.5175 15.352 77.5175 12.616C77.5175 9.856 78.7175 8.224 80.7095 8.224C82.7015 8.224 83.9015 9.856 83.9015 12.616C83.9015 15.352 82.7015 17.008 80.7095 17.008ZM107.96 6.232H104.408L102.176 16.216L100.016 6.28H96.0322L93.9442 16.24L91.6882 6.232H87.9922L92.0482 19H95.8162L98.0002 9.28L100.16 19H103.904L107.96 6.232ZM116.866 19H120.106C119.914 17.584 119.866 16.72 119.866 15.76V11.632C119.866 10.936 119.842 10.264 119.794 9.664C119.602 7.456 118.258 5.896 114.682 5.896C111.634 5.896 109.306 7.528 109.21 10.408L112.426 10.384C112.522 8.992 113.242 8.224 114.562 8.224C115.858 8.224 116.434 8.872 116.53 9.76C116.578 10.192 116.578 10.576 116.578 10.96V11.224H115.762C111.13 11.224 108.729 12.808 108.729 15.616C108.729 18.04 110.626 19.336 112.834 19.336C114.034 19.336 115.114 19.096 116.002 18.496L116.626 17.128L116.866 19ZM114.105 17.008C112.93 17.008 112.162 16.48 112.162 15.352C112.162 13.672 113.938 13.072 116.578 13.264V14.296C116.578 16.072 115.45 17.008 114.105 17.008ZM129.43 5.92C128.71 5.92 127.87 6.208 127.246 6.784L126.238 8.56V6.232H122.926V19H126.238V13.144C126.238 9.712 127.606 8.488 130.366 8.68V6.016C130.078 5.944 129.814 5.92 129.43 5.92ZM144.334 1.36H141.022V7.936L140.182 6.616C139.534 6.16 138.238 5.896 137.182 5.896C133.894 5.896 131.062 8.224 131.062 12.856C131.062 16.624 133.174 19.336 136.75 19.336C138.046 19.336 139.342 19 140.062 18.448L141.022 17.032V19H144.334V1.36ZM137.71 17.008C135.742 17.008 134.494 15.256 134.494 12.64C134.494 9.688 135.91 8.224 137.83 8.224C139.366 8.224 141.022 9.256 141.022 12.136V12.76C141.022 15.88 139.534 17.008 137.71 17.008ZM151.955 5.896C148.907 5.896 146.891 7.384 146.891 9.832C146.891 12.04 148.523 13.072 150.899 13.672C153.107 14.224 153.947 14.776 153.947 15.76C153.947 16.696 153.131 17.152 152.075 17.152C150.923 17.152 149.963 16.504 149.699 15.112H146.387C146.747 17.992 148.931 19.336 152.027 19.336C154.955 19.336 157.283 18.088 157.283 15.52C157.283 13.168 155.747 12.112 153.131 11.44C151.019 10.912 150.227 10.408 150.227 9.448C150.227 8.656 150.755 8.08 151.739 8.08C152.843 8.08 153.491 8.752 153.707 9.928H157.019C156.731 7.6 155.003 5.896 151.955 5.896ZM171.573 5.896C170.277 5.896 168.981 6.208 168.261 6.784L167.301 8.176V6.232H163.989V23.704H167.301V17.296L168.141 18.616C168.789 19.072 170.085 19.336 171.141 19.336C174.429 19.336 177.261 16.984 177.261 12.376C177.261 8.608 175.149 5.896 171.573 5.896ZM170.493 17.008C168.957 17.008 167.301 15.976 167.301 13.072V12.472C167.301 9.352 168.789 8.224 170.613 8.224C172.581 8.224 173.829 9.976 173.829 12.592C173.829 15.544 172.413 17.008 170.493 17.008ZM182.626 1.36H179.314V14.896C179.314 15.736 179.314 16.336 179.362 16.912C179.434 18.568 180.466 19.168 182.098 19.168C182.842 19.168 183.49 19.144 184.138 19.072V16.792C183.01 16.864 182.722 16.648 182.65 16C182.626 15.664 182.626 15.328 182.626 14.824V1.36ZM193.858 19H197.098C196.906 17.584 196.858 16.72 196.858 15.76V11.632C196.858 10.936 196.834 10.264 196.786 9.664C196.594 7.456 195.25 5.896 191.674 5.896C188.626 5.896 186.298 7.528 186.202 10.408L189.418 10.384C189.514 8.992 190.234 8.224 191.554 8.224C192.85 8.224 193.426 8.872 193.522 9.76C193.57 10.192 193.57 10.576 193.57 10.96V11.224H192.754C188.122 11.224 185.722 12.808 185.722 15.616C185.722 18.04 187.618 19.336 189.826 19.336C191.026 19.336 192.106 19.096 192.994 18.496L193.618 17.128L193.858 19ZM191.098 17.008C189.922 17.008 189.154 16.48 189.154 15.352C189.154 13.672 190.93 13.072 193.57 13.264V14.296C193.57 16.072 192.442 17.008 191.098 17.008ZM201.574 1.48C200.494 1.48 199.75 2.2 199.75 3.232C199.75 4.288 200.494 4.984 201.574 4.984C202.654 4.984 203.398 4.288 203.398 3.232C203.398 2.2 202.654 1.48 201.574 1.48ZM203.23 19V6.232H199.918V19H203.23ZM218.197 9.472C217.933 7.24 216.373 5.896 213.661 5.896C212.437 5.896 211.501 6.136 210.589 6.784L209.605 8.296V6.232H206.293V19H209.605V13.168C209.605 9.616 210.877 8.224 212.485 8.224C214.093 8.224 214.837 9.136 214.933 10.48C214.981 11.128 214.981 11.728 214.981 12.256V19H218.293V11.8C218.293 10.768 218.269 10.12 218.197 9.472ZM230.424 5.896C227.376 5.896 225.36 7.384 225.36 9.832C225.36 12.04 226.992 13.072 229.368 13.672C231.576 14.224 232.416 14.776 232.416 15.76C232.416 16.696 231.6 17.152 230.544 17.152C229.392 17.152 228.432 16.504 228.168 15.112H224.856C225.216 17.992 227.4 19.336 230.496 19.336C233.424 19.336 235.752 18.088 235.752 15.52C235.752 13.168 234.216 12.112 231.6 11.44C229.488 10.912 228.696 10.408 228.696 9.448C228.696 8.656 229.224 8.08 230.208 8.08C231.312 8.08 231.96 8.752 232.176 9.928H235.488C235.2 7.6 233.472 5.896 230.424 5.896ZM249.577 6.232H246.265V12.736C246.265 15.616 245.113 16.984 243.457 16.984C241.921 16.984 241.153 16.144 240.985 14.824C240.913 14.176 240.889 13.48 240.889 13.072V6.232H237.577V13.768C237.577 14.8 237.601 15.448 237.697 16.096C237.985 17.848 239.569 19.336 242.209 19.336C243.433 19.336 244.345 19.096 245.281 18.472L246.265 16.84V19H249.577V6.232ZM259.133 5.92C258.413 5.92 257.573 6.208 256.949 6.784L255.941 8.56V6.232H252.629V19H255.941V13.144C255.941 9.712 257.309 8.488 260.069 8.68V6.016C259.781 5.944 259.517 5.92 259.133 5.92ZM265.442 4.6C265.562 3.52 266.666 3.088 268.226 3.376V1.072C267.794 0.975999 267.29 0.904 266.762 0.904C263.738 0.904 262.322 2.176 262.13 4.336C262.082 4.768 262.082 5.368 262.082 5.8V6.328H260.714V8.512H262.082V19H265.394V8.512H268.01V6.328H265.394V5.704C265.394 5.368 265.394 4.936 265.442 4.6ZM277.272 19H280.512C280.32 17.584 280.272 16.72 280.272 15.76V11.632C280.272 10.936 280.248 10.264 280.2 9.664C280.008 7.456 278.664 5.896 275.088 5.896C272.04 5.896 269.712 7.528 269.616 10.408L272.832 10.384C272.928 8.992 273.648 8.224 274.968 8.224C276.264 8.224 276.84 8.872 276.936 9.76C276.984 10.192 276.984 10.576 276.984 10.96V11.224H276.168C271.536 11.224 269.136 12.808 269.136 15.616C269.136 18.04 271.032 19.336 273.24 19.336C274.44 19.336 275.52 19.096 276.408 18.496L277.032 17.128L277.272 19ZM274.512 17.008C273.336 17.008 272.568 16.48 272.568 15.352C272.568 13.672 274.344 13.072 276.984 13.264V14.296C276.984 16.072 275.856 17.008 274.512 17.008ZM288.852 5.896C285.348 5.896 282.468 8.344 282.468 12.712C282.468 17.128 285.084 19.336 288.564 19.336C291.756 19.336 294.108 17.728 294.66 14.584H291.348C291.012 16.192 290.052 17.008 288.756 17.008C287.1 17.008 285.9 15.664 285.9 12.496C285.9 9.592 287.1 8.224 288.78 8.224C290.148 8.224 291.108 8.992 291.42 10.84H294.684C294.444 8.008 292.308 5.896 288.852 5.896ZM308.377 12.352C308.377 8.872 306.313 5.896 302.401 5.896C298.489 5.896 295.921 8.752 295.921 12.664C295.921 17.152 298.633 19.336 302.137 19.336C305.137 19.336 307.537 17.824 308.185 14.848H304.873C304.657 16.216 303.625 17.008 302.209 17.008C300.673 17.008 299.473 16.168 299.257 13.48H308.329C308.377 13.048 308.377 12.664 308.377 12.352ZM302.257 8.224C303.841 8.224 304.753 9.304 304.969 11.32H299.353C299.641 9.208 300.721 8.224 302.257 8.224Z" fill="url(#paint0_linear_2_254)"/>
</g>
<defs>
<filter id="filter0_d_2_254" x="0.987549" y="0.903992" width="309.39" height="26.8" filterUnits="userSpaceOnUse" color-interpolation-filters="sRGB">
<feFlood flood-opacity="0" result="BackgroundImageFix"/>
<feColorMatrix in="SourceAlpha" type="matrix" values="0 0 0 0 0 0 0 0 0 0 0 0 0 0 0 0 0 0 127 0" result="hardAlpha"/>
<feOffset dy="2"/>
<feGaussianBlur stdDeviation="1"/>
<feComposite in2="hardAlpha" operator="out"/>
<feColorMatrix type="matrix" values="0 0 0 0 0 0 0 0 0 0 0 0 0 0 0 0 0 0 0.25 0"/>
<feBlend mode="normal" in2="BackgroundImageFix" result="effect1_dropShadow_2_254"/>
<feBlend mode="normal" in="SourceGraphic" in2="effect1_dropShadow_2_254" result="shape"/>
</filter>
<linearGradient id="paint0_linear_2_254" x1="50.3128" y1="9.99999" x2="266.341" y2="9.99998" gradientUnits="userSpaceOnUse">
<stop stop-color="#FFCC66"/>
<stop offset="1" stop-color="#FFCC99"/>
</linearGradient>
</defs>
</svg>
