<svg width="363" height="237" viewBox="0 0 363 237" fill="none" xmlns="http://www.w3.org/2000/svg">
<g filter="url(#filter0_d_144_601)">
<path d="M4 53C4 25.3858 26.3858 3 54 3H359V182C359 209.614 336.614 232 309 232H4V53Z" fill="#FFEAC6"/>
<path d="M4.5 53C4.5 25.6619 26.6619 3.5 54 3.5H358.5V182C358.5 209.338 336.338 231.5 309 231.5H4.5V53Z" stroke="#D69300"/>
</g>
<path d="M77.336 108.744H79.512C80.0347 108.744 80.5147 108.653 80.952 108.472C81.4 108.28 81.784 108.024 82.104 107.704C82.4347 107.384 82.6907 107.011 82.872 106.584C83.064 106.147 83.16 105.683 83.16 105.192C83.16 104.691 83.0747 104.227 82.904 103.8C82.7333 103.363 82.488 102.984 82.168 102.664C81.848 102.333 81.4587 102.077 81 101.896C80.552 101.704 80.04 101.608 79.464 101.608H76.68C76.4133 101.608 76.2213 101.683 76.104 101.832C75.9867 101.981 75.928 102.163 75.928 102.376V112.344C75.928 112.579 75.992 112.765 76.12 112.904C76.248 113.032 76.4187 113.096 76.632 113.096C76.8453 113.096 77.016 113.032 77.144 112.904C77.272 112.765 77.336 112.579 77.336 112.344V108.744ZM77.336 102.824H79.352C79.7893 102.824 80.1573 102.899 80.456 103.048C80.7653 103.187 81.016 103.368 81.208 103.592C81.4 103.816 81.5387 104.072 81.624 104.36C81.7093 104.637 81.752 104.915 81.752 105.192C81.752 105.512 81.6933 105.816 81.576 106.104C81.4693 106.392 81.3093 106.643 81.096 106.856C80.8933 107.059 80.648 107.224 80.36 107.352C80.0827 107.469 79.768 107.528 79.416 107.528H77.336V102.824ZM84.4809 112.28C84.4809 112.504 84.5609 112.696 84.7209 112.856C84.8809 113.016 85.0729 113.096 85.2969 113.096C85.5209 113.096 85.7129 113.016 85.8729 112.856C86.0329 112.696 86.1129 112.504 86.1129 112.28C86.1129 112.056 86.0329 111.864 85.8729 111.704C85.7129 111.544 85.5209 111.464 85.2969 111.464C85.0729 111.464 84.8809 111.544 84.7209 111.704C84.5609 111.864 84.4809 112.056 84.4809 112.28ZM89.2969 107.304C89.2969 106.76 89.3555 106.216 89.4729 105.672C89.6009 105.128 89.8035 104.637 90.0809 104.2C90.3582 103.763 90.7155 103.411 91.1529 103.144C91.6009 102.867 92.1449 102.728 92.7849 102.728C93.4249 102.728 93.9635 102.867 94.4009 103.144C94.8489 103.411 95.2115 103.763 95.4889 104.2C95.7662 104.637 95.9635 105.128 96.0809 105.672C96.2089 106.216 96.2729 106.76 96.2729 107.304C96.2729 107.848 96.2089 108.392 96.0809 108.936C95.9635 109.48 95.7662 109.971 95.4889 110.408C95.2115 110.845 94.8489 111.203 94.4009 111.48C93.9635 111.747 93.4249 111.88 92.7849 111.88C92.1449 111.88 91.6009 111.747 91.1529 111.48C90.7155 111.203 90.3582 110.845 90.0809 110.408C89.8035 109.971 89.6009 109.48 89.4729 108.936C89.3555 108.392 89.2969 107.848 89.2969 107.304ZM87.7929 107.304C87.7929 108.04 87.8995 108.76 88.1129 109.464C88.3262 110.157 88.6409 110.776 89.0569 111.32C89.4835 111.853 90.0062 112.285 90.6249 112.616C91.2542 112.936 91.9742 113.096 92.7849 113.096C93.5955 113.096 94.3102 112.936 94.9289 112.616C95.5582 112.285 96.0809 111.853 96.4969 111.32C96.9235 110.776 97.2435 110.157 97.4569 109.464C97.6702 108.76 97.7769 108.04 97.7769 107.304C97.7769 106.568 97.6702 105.853 97.4569 105.16C97.2435 104.456 96.9235 103.837 96.4969 103.304C96.0809 102.76 95.5582 102.328 94.9289 102.008C94.3102 101.677 93.5955 101.512 92.7849 101.512C91.9742 101.512 91.2542 101.677 90.6249 102.008C90.0062 102.328 89.4835 102.76 89.0569 103.304C88.6409 103.837 88.3262 104.456 88.1129 105.16C87.8995 105.853 87.7929 106.568 87.7929 107.304ZM99.4496 112.28C99.4496 112.504 99.5296 112.696 99.6896 112.856C99.8496 113.016 100.042 113.096 100.266 113.096C100.49 113.096 100.682 113.016 100.842 112.856C101.002 112.696 101.082 112.504 101.082 112.28C101.082 112.056 101.002 111.864 100.842 111.704C100.682 111.544 100.49 111.464 100.266 111.464C100.042 111.464 99.8496 111.544 99.6896 111.704C99.5296 111.864 99.4496 112.056 99.4496 112.28ZM108.602 102.824H110.25C110.879 102.824 111.343 102.989 111.642 103.32C111.94 103.651 112.09 104.072 112.09 104.584C112.09 105.107 111.924 105.544 111.594 105.896C111.274 106.248 110.81 106.424 110.202 106.424H108.602V102.824ZM108.602 107.576H110.65C111.023 107.576 111.348 107.629 111.626 107.736C111.914 107.843 112.159 107.992 112.362 108.184C112.564 108.376 112.714 108.6 112.81 108.856C112.916 109.112 112.97 109.384 112.97 109.672C112.97 110.312 112.746 110.824 112.298 111.208C111.85 111.592 111.279 111.784 110.586 111.784H108.602V107.576ZM107.194 112.232C107.194 112.445 107.252 112.627 107.37 112.776C107.487 112.925 107.679 113 107.946 113H110.65C111.247 113 111.775 112.909 112.234 112.728C112.703 112.547 113.092 112.307 113.402 112.008C113.722 111.699 113.962 111.347 114.122 110.952C114.292 110.547 114.378 110.12 114.378 109.672C114.378 109.299 114.314 108.947 114.186 108.616C114.058 108.285 113.882 107.997 113.658 107.752C113.434 107.507 113.172 107.304 112.874 107.144C112.575 106.984 112.255 106.888 111.914 106.856V106.824C112.383 106.675 112.762 106.381 113.05 105.944C113.348 105.496 113.498 104.957 113.498 104.328C113.498 104.008 113.428 103.688 113.29 103.368C113.162 103.037 112.97 102.744 112.714 102.488C112.458 102.221 112.138 102.008 111.754 101.848C111.37 101.688 110.927 101.608 110.426 101.608H107.946C107.679 101.608 107.487 101.683 107.37 101.832C107.252 101.981 107.194 102.163 107.194 102.376V112.232ZM117.115 110.52H122.395L123.131 112.568C123.185 112.717 123.265 112.845 123.371 112.952C123.478 113.048 123.627 113.096 123.819 113.096C124.001 113.096 124.155 113.043 124.283 112.936C124.422 112.829 124.491 112.685 124.491 112.504C124.491 112.408 124.465 112.285 124.411 112.136C124.358 111.987 124.321 111.875 124.299 111.8L120.763 102.376C120.678 102.131 120.555 101.928 120.395 101.768C120.246 101.597 120.033 101.512 119.755 101.512C119.478 101.512 119.259 101.597 119.099 101.768C118.95 101.928 118.833 102.131 118.747 102.376L115.211 111.8C115.19 111.875 115.153 111.987 115.099 112.136C115.046 112.285 115.019 112.408 115.019 112.504C115.019 112.685 115.083 112.829 115.211 112.936C115.35 113.043 115.51 113.096 115.691 113.096C115.883 113.096 116.033 113.048 116.139 112.952C116.246 112.845 116.326 112.717 116.379 112.568L117.115 110.52ZM121.963 109.304H117.547L119.739 103.144H119.771L121.963 109.304ZM133.6 107.784V108.456C133.6 108.84 133.531 109.235 133.392 109.64C133.264 110.045 133.062 110.413 132.784 110.744C132.518 111.075 132.176 111.347 131.76 111.56C131.355 111.773 130.875 111.88 130.32 111.88C129.659 111.88 129.094 111.747 128.624 111.48C128.166 111.203 127.787 110.845 127.488 110.408C127.2 109.971 126.987 109.48 126.848 108.936C126.72 108.392 126.656 107.848 126.656 107.304C126.656 106.76 126.72 106.216 126.848 105.672C126.987 105.128 127.2 104.637 127.488 104.2C127.787 103.763 128.16 103.411 128.608 103.144C129.067 102.867 129.616 102.728 130.256 102.728C130.768 102.728 131.195 102.797 131.536 102.936C131.888 103.064 132.182 103.208 132.416 103.368C132.662 103.528 132.875 103.677 133.056 103.816C133.238 103.944 133.414 104.008 133.584 104.008C133.787 104.008 133.947 103.944 134.064 103.816C134.192 103.677 134.256 103.517 134.256 103.336C134.256 103.187 134.16 103.011 133.968 102.808C133.787 102.595 133.526 102.392 133.184 102.2C132.843 102.008 132.432 101.848 131.952 101.72C131.472 101.581 130.939 101.512 130.352 101.512C129.456 101.512 128.683 101.677 128.032 102.008C127.382 102.328 126.843 102.76 126.416 103.304C125.99 103.837 125.67 104.456 125.456 105.16C125.254 105.853 125.152 106.568 125.152 107.304C125.152 108.04 125.259 108.76 125.472 109.464C125.686 110.157 126 110.776 126.416 111.32C126.832 111.853 127.35 112.285 127.968 112.616C128.598 112.936 129.323 113.096 130.144 113.096C131.115 113.096 131.91 112.941 132.528 112.632C133.158 112.312 133.654 111.896 134.016 111.384C134.39 110.872 134.646 110.291 134.784 109.64C134.934 108.979 135.008 108.307 135.008 107.624C135.008 107.176 134.928 106.872 134.768 106.712C134.608 106.552 134.347 106.472 133.984 106.472H131.616C131.414 106.472 131.248 106.525 131.12 106.632C130.992 106.739 130.928 106.904 130.928 107.128C130.928 107.352 130.992 107.517 131.12 107.624C131.248 107.731 131.414 107.784 131.616 107.784H133.6ZM142.24 111.784L146.064 106.696C146.245 106.451 146.389 106.221 146.496 106.008C146.603 105.795 146.683 105.592 146.736 105.4C146.789 105.208 146.821 105.027 146.832 104.856C146.843 104.675 146.848 104.504 146.848 104.344C146.848 103.971 146.773 103.619 146.624 103.288C146.485 102.947 146.283 102.643 146.016 102.376C145.749 102.109 145.424 101.901 145.04 101.752C144.667 101.592 144.245 101.512 143.776 101.512C143.189 101.512 142.667 101.608 142.208 101.8C141.76 101.992 141.381 102.253 141.072 102.584C140.773 102.915 140.544 103.299 140.384 103.736C140.224 104.163 140.144 104.611 140.144 105.08C140.144 105.656 140.373 105.944 140.832 105.944C140.981 105.944 141.12 105.901 141.248 105.816C141.387 105.72 141.456 105.549 141.456 105.304C141.456 104.952 141.499 104.621 141.584 104.312C141.68 103.992 141.813 103.715 141.984 103.48C142.165 103.245 142.384 103.064 142.64 102.936C142.896 102.797 143.195 102.728 143.536 102.728C144.048 102.728 144.475 102.893 144.816 103.224C145.168 103.555 145.344 103.981 145.344 104.504C145.344 104.845 145.264 105.192 145.104 105.544C144.955 105.885 144.757 106.211 144.512 106.52L140.576 111.784C140.459 111.955 140.379 112.083 140.336 112.168C140.293 112.253 140.272 112.339 140.272 112.424C140.272 112.541 140.325 112.669 140.432 112.808C140.539 112.936 140.741 113 141.04 113H146.56C146.731 113 146.875 112.941 146.992 112.824C147.109 112.707 147.168 112.563 147.168 112.392C147.168 112.221 147.109 112.077 146.992 111.96C146.875 111.843 146.731 111.784 146.56 111.784H142.24ZM148.434 113.816C148.317 114.051 148.258 114.248 148.258 114.408C148.258 114.589 148.322 114.733 148.45 114.84C148.578 114.957 148.728 115.016 148.898 115.016C149.112 115.016 149.266 114.952 149.362 114.824C149.469 114.707 149.565 114.573 149.65 114.424L150.546 112.664C150.664 112.429 150.722 112.232 150.722 112.072C150.722 111.891 150.658 111.747 150.53 111.64C150.402 111.523 150.253 111.464 150.082 111.464C149.869 111.464 149.709 111.528 149.602 111.656C149.506 111.773 149.416 111.907 149.33 112.056L148.434 113.816ZM158.242 104.088H158.274L164.034 112.36C164.226 112.637 164.386 112.829 164.514 112.936C164.642 113.043 164.813 113.096 165.026 113.096C165.453 113.096 165.666 112.819 165.666 112.264V102.264C165.666 102.029 165.602 101.848 165.474 101.72C165.346 101.581 165.176 101.512 164.962 101.512C164.749 101.512 164.578 101.581 164.45 101.72C164.322 101.848 164.258 102.029 164.258 102.264V110.52H164.226L158.466 102.248C158.274 101.971 158.114 101.779 157.986 101.672C157.858 101.565 157.688 101.512 157.474 101.512C157.048 101.512 156.834 101.789 156.834 102.344V112.344C156.834 112.579 156.898 112.765 157.026 112.904C157.154 113.032 157.325 113.096 157.538 113.096C157.752 113.096 157.922 113.032 158.05 112.904C158.178 112.765 158.242 112.579 158.242 112.344V104.088ZM168.93 107.96H172.018C172.22 107.96 172.386 107.907 172.514 107.8C172.642 107.693 172.706 107.528 172.706 107.304C172.706 107.08 172.642 106.915 172.514 106.808C172.386 106.701 172.22 106.648 172.018 106.648H168.93V102.92H172.322C172.524 102.92 172.69 102.867 172.818 102.76C172.946 102.653 173.01 102.488 173.01 102.264C173.01 102.04 172.946 101.875 172.818 101.768C172.69 101.661 172.524 101.608 172.322 101.608H168.274C168.007 101.608 167.815 101.683 167.698 101.832C167.58 101.981 167.522 102.163 167.522 102.376V112.232C167.522 112.445 167.58 112.627 167.698 112.776C167.815 112.925 168.007 113 168.274 113H172.322C172.524 113 172.69 112.947 172.818 112.84C172.946 112.733 173.01 112.568 173.01 112.344C173.01 112.12 172.946 111.955 172.818 111.848C172.69 111.741 172.524 111.688 172.322 111.688H168.93V107.96ZM177.031 111.272H176.999L175.511 102.168C175.436 101.731 175.18 101.512 174.743 101.512C174.54 101.512 174.38 101.576 174.263 101.704C174.156 101.821 174.103 101.971 174.103 102.152C174.103 102.237 174.108 102.339 174.119 102.456C174.13 102.563 174.151 102.701 174.183 102.872L175.911 112.168C175.932 112.296 175.964 112.419 176.007 112.536C176.05 112.643 176.108 112.739 176.183 112.824C176.258 112.909 176.354 112.973 176.471 113.016C176.599 113.069 176.748 113.096 176.919 113.096C177.196 113.096 177.42 113.043 177.591 112.936C177.762 112.819 177.906 112.563 178.023 112.168L180.359 103.816H180.391L182.727 112.168C182.844 112.563 182.988 112.819 183.159 112.936C183.33 113.043 183.554 113.096 183.831 113.096C184.183 113.096 184.428 113.005 184.567 112.824C184.706 112.632 184.796 112.413 184.839 112.168L186.567 102.872C186.599 102.701 186.62 102.563 186.631 102.456C186.642 102.339 186.647 102.237 186.647 102.152C186.647 101.971 186.588 101.821 186.471 101.704C186.364 101.576 186.21 101.512 186.007 101.512C185.57 101.512 185.314 101.731 185.239 102.168L183.751 111.272H183.719L181.095 102.072C181.031 101.859 180.94 101.715 180.823 101.64C180.706 101.555 180.556 101.512 180.375 101.512C180.194 101.512 180.044 101.555 179.927 101.64C179.81 101.715 179.719 101.859 179.655 102.072L177.031 111.272ZM192.055 112.232C192.055 112.445 192.114 112.627 192.231 112.776C192.348 112.925 192.54 113 192.807 113H195.767C196.535 113 197.218 112.861 197.815 112.584C198.423 112.296 198.935 111.901 199.351 111.4C199.767 110.888 200.082 110.28 200.295 109.576C200.519 108.872 200.631 108.093 200.631 107.24C200.631 106.483 200.524 105.768 200.311 105.096C200.108 104.413 199.794 103.816 199.367 103.304C198.951 102.781 198.428 102.371 197.799 102.072C197.17 101.763 196.428 101.608 195.575 101.608H192.807C192.54 101.608 192.348 101.683 192.231 101.832C192.114 101.981 192.055 102.163 192.055 102.376V112.232ZM193.463 102.824H195.383C196.055 102.824 196.626 102.947 197.095 103.192C197.575 103.427 197.964 103.747 198.263 104.152C198.562 104.557 198.78 105.027 198.919 105.56C199.058 106.093 199.127 106.653 199.127 107.24C199.127 107.816 199.058 108.381 198.919 108.936C198.791 109.48 198.583 109.965 198.295 110.392C198.007 110.808 197.628 111.144 197.159 111.4C196.7 111.656 196.14 111.784 195.479 111.784H193.463V102.824ZM203.461 107.96H206.549C206.752 107.96 206.917 107.907 207.045 107.8C207.173 107.693 207.237 107.528 207.237 107.304C207.237 107.08 207.173 106.915 207.045 106.808C206.917 106.701 206.752 106.648 206.549 106.648H203.461V102.92H206.853C207.056 102.92 207.221 102.867 207.349 102.76C207.477 102.653 207.541 102.488 207.541 102.264C207.541 102.04 207.477 101.875 207.349 101.768C207.221 101.661 207.056 101.608 206.853 101.608H202.805C202.538 101.608 202.346 101.683 202.229 101.832C202.112 101.981 202.053 102.163 202.053 102.376V112.232C202.053 112.445 202.112 112.627 202.229 112.776C202.346 112.925 202.538 113 202.805 113H206.853C207.056 113 207.221 112.947 207.349 112.84C207.477 112.733 207.541 112.568 207.541 112.344C207.541 112.12 207.477 111.955 207.349 111.848C207.221 111.741 207.056 111.688 206.853 111.688H203.461V107.96ZM210.57 102.264C210.57 102.029 210.506 101.848 210.378 101.72C210.25 101.581 210.08 101.512 209.866 101.512C209.653 101.512 209.482 101.581 209.354 101.72C209.226 101.848 209.162 102.029 209.162 102.264V112.232C209.162 112.445 209.221 112.627 209.338 112.776C209.456 112.925 209.648 113 209.914 113H213.578C213.781 113 213.946 112.947 214.074 112.84C214.202 112.733 214.266 112.568 214.266 112.344C214.266 112.12 214.202 111.955 214.074 111.848C213.946 111.741 213.781 111.688 213.578 111.688H210.57V102.264ZM216.789 107.896H222.789V112.248C222.789 112.525 222.853 112.739 222.981 112.888C223.109 113.027 223.28 113.096 223.493 113.096C223.706 113.096 223.877 113.027 224.005 112.888C224.133 112.739 224.197 112.525 224.197 112.248V102.36C224.197 102.083 224.133 101.875 224.005 101.736C223.877 101.587 223.706 101.512 223.493 101.512C223.28 101.512 223.109 101.587 222.981 101.736C222.853 101.875 222.789 102.083 222.789 102.36V106.68H216.789V102.36C216.789 102.083 216.725 101.875 216.597 101.736C216.469 101.587 216.298 101.512 216.085 101.512C215.872 101.512 215.701 101.587 215.573 101.736C215.445 101.875 215.381 102.083 215.381 102.36V112.248C215.381 112.525 215.445 112.739 215.573 112.888C215.701 113.027 215.872 113.096 216.085 113.096C216.298 113.096 216.469 113.027 216.597 112.888C216.725 112.739 216.789 112.525 216.789 112.248V107.896ZM227.461 102.264C227.461 102.029 227.397 101.848 227.269 101.72C227.141 101.581 226.97 101.512 226.757 101.512C226.544 101.512 226.373 101.581 226.245 101.72C226.117 101.848 226.053 102.029 226.053 102.264V112.344C226.053 112.579 226.117 112.765 226.245 112.904C226.373 113.032 226.544 113.096 226.757 113.096C226.97 113.096 227.141 113.032 227.269 112.904C227.397 112.765 227.461 112.579 227.461 112.344V102.264ZM236.855 109.32C237.025 109.32 237.169 109.261 237.287 109.144C237.404 109.027 237.463 108.883 237.463 108.712C237.463 108.541 237.404 108.397 237.287 108.28C237.169 108.163 237.025 108.104 236.855 108.104H233.559C233.388 108.104 233.244 108.163 233.127 108.28C233.009 108.397 232.951 108.541 232.951 108.712C232.951 108.883 233.009 109.027 233.127 109.144C233.244 109.261 233.388 109.32 233.559 109.32H236.855ZM244.64 112.344C244.64 112.579 244.704 112.765 244.832 112.904C244.96 113.032 245.13 113.096 245.344 113.096C245.557 113.096 245.728 113.032 245.856 112.904C245.984 112.765 246.048 112.579 246.048 112.344V101.992C246.048 101.811 246.01 101.704 245.936 101.672C245.861 101.629 245.754 101.608 245.616 101.608H243.168C242.997 101.608 242.853 101.667 242.736 101.784C242.618 101.901 242.56 102.045 242.56 102.216C242.56 102.387 242.618 102.531 242.736 102.648C242.853 102.765 242.997 102.824 243.168 102.824H244.64V112.344ZM250.265 112.344C250.265 112.579 250.329 112.765 250.457 112.904C250.585 113.032 250.755 113.096 250.969 113.096C251.182 113.096 251.353 113.032 251.481 112.904C251.609 112.765 251.673 112.579 251.673 112.344V101.992C251.673 101.811 251.635 101.704 251.561 101.672C251.486 101.629 251.379 101.608 251.241 101.608H248.793C248.622 101.608 248.478 101.667 248.361 101.784C248.243 101.901 248.185 102.045 248.185 102.216C248.185 102.387 248.243 102.531 248.361 102.648C248.478 102.765 248.622 102.824 248.793 102.824H250.265V112.344ZM253.794 107.304C253.794 108.221 253.89 109.037 254.082 109.752C254.284 110.467 254.556 111.075 254.898 111.576C255.239 112.067 255.634 112.445 256.082 112.712C256.54 112.968 257.031 113.096 257.554 113.096C258.076 113.096 258.562 112.968 259.01 112.712C259.468 112.445 259.868 112.067 260.21 111.576C260.551 111.075 260.818 110.467 261.01 109.752C261.212 109.037 261.314 108.221 261.314 107.304C261.314 106.387 261.212 105.571 261.01 104.856C260.818 104.141 260.551 103.539 260.21 103.048C259.868 102.547 259.468 102.168 259.01 101.912C258.562 101.645 258.076 101.512 257.554 101.512C257.031 101.512 256.54 101.645 256.082 101.912C255.634 102.168 255.239 102.547 254.898 103.048C254.556 103.539 254.284 104.141 254.082 104.856C253.89 105.571 253.794 106.387 253.794 107.304ZM255.298 107.304C255.298 106.504 255.356 105.816 255.474 105.24C255.591 104.664 255.751 104.189 255.954 103.816C256.156 103.443 256.396 103.171 256.674 103C256.951 102.819 257.244 102.728 257.554 102.728C257.863 102.728 258.156 102.819 258.434 103C258.711 103.171 258.951 103.443 259.154 103.816C259.356 104.189 259.516 104.664 259.634 105.24C259.751 105.816 259.81 106.504 259.81 107.304C259.81 108.104 259.751 108.792 259.634 109.368C259.516 109.944 259.356 110.419 259.154 110.792C258.951 111.165 258.711 111.443 258.434 111.624C258.156 111.795 257.863 111.88 257.554 111.88C257.244 111.88 256.951 111.795 256.674 111.624C256.396 111.443 256.156 111.165 255.954 110.792C255.751 110.419 255.591 109.944 255.474 109.368C255.356 108.792 255.298 108.104 255.298 107.304ZM262.372 107.304C262.372 108.221 262.468 109.037 262.66 109.752C262.862 110.467 263.134 111.075 263.476 111.576C263.817 112.067 264.212 112.445 264.66 112.712C265.118 112.968 265.609 113.096 266.132 113.096C266.654 113.096 267.14 112.968 267.588 112.712C268.046 112.445 268.446 112.067 268.788 111.576C269.129 111.075 269.396 110.467 269.588 109.752C269.79 109.037 269.892 108.221 269.892 107.304C269.892 106.387 269.79 105.571 269.588 104.856C269.396 104.141 269.129 103.539 268.788 103.048C268.446 102.547 268.046 102.168 267.588 101.912C267.14 101.645 266.654 101.512 266.132 101.512C265.609 101.512 265.118 101.645 264.66 101.912C264.212 102.168 263.817 102.547 263.476 103.048C263.134 103.539 262.862 104.141 262.66 104.856C262.468 105.571 262.372 106.387 262.372 107.304ZM263.876 107.304C263.876 106.504 263.934 105.816 264.052 105.24C264.169 104.664 264.329 104.189 264.532 103.816C264.734 103.443 264.974 103.171 265.252 103C265.529 102.819 265.822 102.728 266.132 102.728C266.441 102.728 266.734 102.819 267.012 103C267.289 103.171 267.529 103.443 267.732 103.816C267.934 104.189 268.094 104.664 268.212 105.24C268.329 105.816 268.388 106.504 268.388 107.304C268.388 108.104 268.329 108.792 268.212 109.368C268.094 109.944 267.934 110.419 267.732 110.792C267.529 111.165 267.289 111.443 267.012 111.624C266.734 111.795 266.441 111.88 266.132 111.88C265.822 111.88 265.529 111.795 265.252 111.624C264.974 111.443 264.734 111.165 264.532 110.792C264.329 110.419 264.169 109.944 264.052 109.368C263.934 108.792 263.876 108.104 263.876 107.304ZM270.95 107.304C270.95 108.221 271.046 109.037 271.238 109.752C271.441 110.467 271.713 111.075 272.054 111.576C272.395 112.067 272.79 112.445 273.238 112.712C273.697 112.968 274.187 113.096 274.71 113.096C275.233 113.096 275.718 112.968 276.166 112.712C276.625 112.445 277.025 112.067 277.366 111.576C277.707 111.075 277.974 110.467 278.166 109.752C278.369 109.037 278.47 108.221 278.47 107.304C278.47 106.387 278.369 105.571 278.166 104.856C277.974 104.141 277.707 103.539 277.366 103.048C277.025 102.547 276.625 102.168 276.166 101.912C275.718 101.645 275.233 101.512 274.71 101.512C274.187 101.512 273.697 101.645 273.238 101.912C272.79 102.168 272.395 102.547 272.054 103.048C271.713 103.539 271.441 104.141 271.238 104.856C271.046 105.571 270.95 106.387 270.95 107.304ZM272.454 107.304C272.454 106.504 272.513 105.816 272.63 105.24C272.747 104.664 272.907 104.189 273.11 103.816C273.313 103.443 273.553 103.171 273.83 103C274.107 102.819 274.401 102.728 274.71 102.728C275.019 102.728 275.313 102.819 275.59 103C275.867 103.171 276.107 103.443 276.31 103.816C276.513 104.189 276.673 104.664 276.79 105.24C276.907 105.816 276.966 106.504 276.966 107.304C276.966 108.104 276.907 108.792 276.79 109.368C276.673 109.944 276.513 110.419 276.31 110.792C276.107 111.165 275.867 111.443 275.59 111.624C275.313 111.795 275.019 111.88 274.71 111.88C274.401 111.88 274.107 111.795 273.83 111.624C273.553 111.443 273.313 111.165 273.11 110.792C272.907 110.419 272.747 109.944 272.63 109.368C272.513 108.792 272.454 108.104 272.454 107.304ZM281.624 112.344C281.624 112.579 281.688 112.765 281.816 112.904C281.944 113.032 282.115 113.096 282.328 113.096C282.541 113.096 282.712 113.032 282.84 112.904C282.968 112.765 283.032 112.579 283.032 112.344V101.992C283.032 101.811 282.995 101.704 282.92 101.672C282.845 101.629 282.739 101.608 282.6 101.608H280.152C279.981 101.608 279.837 101.667 279.72 101.784C279.603 101.901 279.544 102.045 279.544 102.216C279.544 102.387 279.603 102.531 279.72 102.648C279.837 102.765 279.981 102.824 280.152 102.824H281.624V112.344Z" fill="#0033A1"/>
<path d="M78.328 154.272H78.296L76.808 145.168C76.7333 144.731 76.4773 144.512 76.04 144.512C75.8373 144.512 75.6773 144.576 75.56 144.704C75.4533 144.821 75.4 144.971 75.4 145.152C75.4 145.237 75.4053 145.339 75.416 145.456C75.4267 145.563 75.448 145.701 75.48 145.872L77.208 155.168C77.2293 155.296 77.2613 155.419 77.304 155.536C77.3467 155.643 77.4053 155.739 77.48 155.824C77.5547 155.909 77.6507 155.973 77.768 156.016C77.896 156.069 78.0453 156.096 78.216 156.096C78.4933 156.096 78.7173 156.043 78.888 155.936C79.0587 155.819 79.2027 155.563 79.32 155.168L81.656 146.816H81.688L84.024 155.168C84.1413 155.563 84.2853 155.819 84.456 155.936C84.6267 156.043 84.8507 156.096 85.128 156.096C85.48 156.096 85.7253 156.005 85.864 155.824C86.0027 155.632 86.0933 155.413 86.136 155.168L87.864 145.872C87.896 145.701 87.9173 145.563 87.928 145.456C87.9387 145.339 87.944 145.237 87.944 145.152C87.944 144.971 87.8853 144.821 87.768 144.704C87.6613 144.576 87.5067 144.512 87.304 144.512C86.8667 144.512 86.6107 144.731 86.536 145.168L85.048 154.272H85.016L82.392 145.072C82.328 144.859 82.2373 144.715 82.12 144.64C82.0027 144.555 81.8533 144.512 81.672 144.512C81.4907 144.512 81.3413 144.555 81.224 144.64C81.1067 144.715 81.016 144.859 80.952 145.072L78.328 154.272ZM90.6798 150.96H93.7678C93.9704 150.96 94.1358 150.907 94.2638 150.8C94.3918 150.693 94.4558 150.528 94.4558 150.304C94.4558 150.08 94.3918 149.915 94.2638 149.808C94.1358 149.701 93.9704 149.648 93.7678 149.648H90.6798V145.92H94.0718C94.2744 145.92 94.4398 145.867 94.5678 145.76C94.6958 145.653 94.7598 145.488 94.7598 145.264C94.7598 145.04 94.6958 144.875 94.5678 144.768C94.4398 144.661 94.2744 144.608 94.0718 144.608H90.0238C89.7571 144.608 89.5651 144.683 89.4478 144.832C89.3304 144.981 89.2718 145.163 89.2718 145.376V155.232C89.2718 155.445 89.3304 155.627 89.4478 155.776C89.5651 155.925 89.7571 156 90.0238 156H94.0718C94.2744 156 94.4398 155.947 94.5678 155.84C94.6958 155.733 94.7598 155.568 94.7598 155.344C94.7598 155.12 94.6958 154.955 94.5678 154.848C94.4398 154.741 94.2744 154.688 94.0718 154.688H90.6798V150.96ZM97.4531 150.304C97.4531 149.76 97.5171 149.216 97.6451 148.672C97.7838 148.128 97.9971 147.637 98.2851 147.2C98.5731 146.763 98.9411 146.411 99.3891 146.144C99.8478 145.867 100.392 145.728 101.021 145.728C101.458 145.728 101.816 145.787 102.093 145.904C102.37 146.021 102.605 146.149 102.797 146.288C102.989 146.427 103.154 146.555 103.293 146.672C103.432 146.789 103.581 146.848 103.741 146.848C103.922 146.848 104.061 146.784 104.157 146.656C104.264 146.517 104.317 146.357 104.317 146.176C104.317 146.027 104.237 145.861 104.077 145.68C103.928 145.488 103.709 145.307 103.421 145.136C103.133 144.955 102.786 144.805 102.381 144.688C101.976 144.571 101.522 144.512 101.021 144.512C100.178 144.512 99.4371 144.677 98.7971 145.008C98.1678 145.328 97.6398 145.76 97.2131 146.304C96.7971 146.837 96.4825 147.456 96.2691 148.16C96.0558 148.853 95.9491 149.568 95.9491 150.304C95.9491 151.04 96.0558 151.76 96.2691 152.464C96.4825 153.157 96.7971 153.776 97.2131 154.32C97.6291 154.853 98.1465 155.285 98.7651 155.616C99.3945 155.936 100.12 156.096 100.941 156.096C101.442 156.096 101.912 156.048 102.349 155.952C102.786 155.856 103.17 155.733 103.501 155.584C103.832 155.424 104.088 155.253 104.269 155.072C104.461 154.88 104.557 154.693 104.557 154.512C104.557 154.309 104.504 154.149 104.397 154.032C104.301 153.915 104.168 153.856 103.997 153.856C103.848 153.856 103.682 153.909 103.501 154.016C103.33 154.123 103.122 154.24 102.877 154.368C102.642 154.496 102.365 154.613 102.045 154.72C101.736 154.827 101.368 154.88 100.941 154.88C100.333 154.88 99.8105 154.747 99.3731 154.48C98.9358 154.203 98.5731 153.845 98.2851 153.408C98.0078 152.971 97.7998 152.48 97.6611 151.936C97.5225 151.392 97.4531 150.848 97.4531 150.304ZM107.194 153.52H112.474L113.21 155.568C113.263 155.717 113.343 155.845 113.45 155.952C113.556 156.048 113.706 156.096 113.898 156.096C114.079 156.096 114.234 156.043 114.362 155.936C114.5 155.829 114.57 155.685 114.57 155.504C114.57 155.408 114.543 155.285 114.49 155.136C114.436 154.987 114.399 154.875 114.378 154.8L110.842 145.376C110.756 145.131 110.634 144.928 110.474 144.768C110.324 144.597 110.111 144.512 109.834 144.512C109.556 144.512 109.338 144.597 109.178 144.768C109.028 144.928 108.911 145.131 108.826 145.376L105.29 154.8C105.268 154.875 105.231 154.987 105.178 155.136C105.124 155.285 105.098 155.408 105.098 155.504C105.098 155.685 105.162 155.829 105.29 155.936C105.428 156.043 105.588 156.096 105.77 156.096C105.962 156.096 106.111 156.048 106.218 155.952C106.324 155.845 106.404 155.717 106.458 155.568L107.194 153.52ZM112.042 152.304H107.626L109.818 146.144H109.85L112.042 152.304ZM117.07 151.008L121.422 155.776C121.508 155.861 121.598 155.936 121.694 156C121.79 156.064 121.913 156.096 122.062 156.096C122.244 156.096 122.393 156.043 122.51 155.936C122.638 155.829 122.702 155.701 122.702 155.552C122.702 155.317 122.612 155.104 122.43 154.912L118.798 150.928L119.406 150.912C119.833 150.891 120.233 150.821 120.606 150.704C120.98 150.576 121.305 150.384 121.582 150.128C121.87 149.872 122.094 149.547 122.254 149.152C122.425 148.747 122.51 148.256 122.51 147.68C122.51 147.211 122.409 146.789 122.206 146.416C122.014 146.043 121.758 145.723 121.438 145.456C121.118 145.179 120.745 144.971 120.318 144.832C119.902 144.683 119.47 144.608 119.022 144.608H116.414C116.148 144.608 115.956 144.683 115.838 144.832C115.721 144.981 115.662 145.163 115.662 145.376V155.344C115.662 155.579 115.726 155.765 115.854 155.904C115.982 156.032 116.153 156.096 116.366 156.096C116.58 156.096 116.75 156.032 116.878 155.904C117.006 155.765 117.07 155.579 117.07 155.344V151.008ZM117.07 145.824H118.958C119.289 145.824 119.582 145.877 119.838 145.984C120.105 146.091 120.329 146.235 120.51 146.416C120.702 146.587 120.846 146.789 120.942 147.024C121.049 147.259 121.102 147.509 121.102 147.776C121.102 148.512 120.932 149.045 120.59 149.376C120.26 149.707 119.726 149.872 118.99 149.872H117.07V145.824ZM125.367 150.96H128.455C128.658 150.96 128.823 150.907 128.951 150.8C129.079 150.693 129.143 150.528 129.143 150.304C129.143 150.08 129.079 149.915 128.951 149.808C128.823 149.701 128.658 149.648 128.455 149.648H125.367V145.92H128.759C128.962 145.92 129.127 145.867 129.255 145.76C129.383 145.653 129.447 145.488 129.447 145.264C129.447 145.04 129.383 144.875 129.255 144.768C129.127 144.661 128.962 144.608 128.759 144.608H124.711C124.445 144.608 124.253 144.683 124.135 144.832C124.018 144.981 123.959 145.163 123.959 145.376V155.232C123.959 155.445 124.018 155.627 124.135 155.776C124.253 155.925 124.445 156 124.711 156H128.759C128.962 156 129.127 155.947 129.255 155.84C129.383 155.733 129.447 155.568 129.447 155.344C129.447 155.12 129.383 154.955 129.255 154.848C129.127 154.741 128.962 154.688 128.759 154.688H125.367V150.96ZM134.397 151.072C134.397 150.773 134.445 150.459 134.541 150.128C134.637 149.797 134.775 149.499 134.957 149.232C135.149 148.955 135.389 148.731 135.677 148.56C135.965 148.379 136.301 148.288 136.685 148.288C137.485 148.288 137.885 148.672 137.885 149.44C137.885 149.664 137.842 149.952 137.757 150.304C137.682 150.645 137.559 150.981 137.389 151.312C137.218 151.643 136.994 151.925 136.717 152.16C136.439 152.395 136.103 152.512 135.709 152.512C135.346 152.512 135.037 152.379 134.781 152.112C134.525 151.845 134.397 151.499 134.397 151.072ZM139.709 148.096C139.762 147.925 139.794 147.803 139.805 147.728C139.826 147.643 139.837 147.573 139.837 147.52C139.837 147.392 139.783 147.301 139.677 147.248C139.57 147.195 139.453 147.168 139.325 147.168C139.154 147.168 139.015 147.2 138.909 147.264C138.813 147.328 138.738 147.451 138.685 147.632L138.477 148.272C138.263 147.835 137.997 147.525 137.677 147.344C137.357 147.163 136.999 147.072 136.605 147.072C136.061 147.072 135.565 147.195 135.117 147.44C134.679 147.675 134.301 147.989 133.981 148.384C133.671 148.779 133.426 149.221 133.245 149.712C133.074 150.203 132.989 150.704 132.989 151.216C132.989 151.557 133.047 151.883 133.165 152.192C133.293 152.491 133.463 152.757 133.677 152.992C133.901 153.216 134.157 153.397 134.445 153.536C134.743 153.664 135.063 153.728 135.405 153.728C135.757 153.728 136.098 153.637 136.429 153.456C136.759 153.275 137.031 153.061 137.245 152.816H137.277C137.383 153.424 137.757 153.728 138.397 153.728C138.749 153.728 139.154 153.643 139.613 153.472C140.071 153.301 140.503 153.035 140.909 152.672C141.325 152.309 141.671 151.851 141.949 151.296C142.226 150.731 142.365 150.059 142.365 149.28C142.365 148.576 142.215 147.931 141.917 147.344C141.618 146.757 141.213 146.256 140.701 145.84C140.189 145.413 139.591 145.088 138.909 144.864C138.237 144.629 137.522 144.512 136.765 144.512C135.933 144.512 135.149 144.661 134.413 144.96C133.687 145.259 133.047 145.669 132.493 146.192C131.949 146.715 131.517 147.328 131.197 148.032C130.877 148.736 130.717 149.493 130.717 150.304C130.717 151.115 130.871 151.877 131.181 152.592C131.501 153.296 131.933 153.909 132.477 154.432C133.031 154.944 133.677 155.349 134.413 155.648C135.159 155.947 135.954 156.096 136.797 156.096C137.33 156.096 137.874 156.011 138.429 155.84C138.994 155.669 139.506 155.461 139.965 155.216C140.423 154.96 140.802 154.693 141.101 154.416C141.399 154.128 141.549 153.872 141.549 153.648C141.549 153.531 141.511 153.44 141.437 153.376C141.362 153.312 141.266 153.28 141.149 153.28C140.925 153.28 140.701 153.371 140.477 153.552C140.263 153.733 140.002 153.936 139.693 154.16C139.394 154.384 139.021 154.587 138.573 154.768C138.135 154.949 137.581 155.04 136.909 155.04C136.205 155.04 135.549 154.923 134.941 154.688C134.333 154.453 133.805 154.128 133.357 153.712C132.909 153.296 132.557 152.8 132.301 152.224C132.055 151.637 131.933 150.997 131.933 150.304C131.933 149.643 132.055 149.024 132.301 148.448C132.546 147.872 132.882 147.371 133.309 146.944C133.746 146.517 134.258 146.181 134.845 145.936C135.431 145.691 136.071 145.568 136.765 145.568C137.341 145.568 137.89 145.659 138.413 145.84C138.946 146.011 139.415 146.261 139.821 146.592C140.226 146.923 140.546 147.333 140.781 147.824C141.026 148.304 141.149 148.853 141.149 149.472C141.149 149.888 141.085 150.288 140.957 150.672C140.839 151.045 140.679 151.381 140.477 151.68C140.274 151.968 140.045 152.203 139.789 152.384C139.543 152.555 139.293 152.64 139.037 152.64C138.877 152.64 138.759 152.597 138.685 152.512C138.621 152.427 138.589 152.315 138.589 152.176C138.589 152.069 138.599 151.963 138.621 151.856C138.653 151.749 138.685 151.637 138.717 151.52L139.709 148.096ZM145.274 145.264C145.274 145.029 145.21 144.848 145.082 144.72C144.954 144.581 144.783 144.512 144.57 144.512C144.356 144.512 144.186 144.581 144.058 144.72C143.93 144.848 143.866 145.029 143.866 145.264V155.344C143.866 155.579 143.93 155.765 144.058 155.904C144.186 156.032 144.356 156.096 144.57 156.096C144.783 156.096 144.954 156.032 145.082 155.904C145.21 155.765 145.274 155.579 145.274 155.344V145.264ZM148.539 147.088H148.571L154.331 155.36C154.523 155.637 154.683 155.829 154.811 155.936C154.939 156.043 155.11 156.096 155.323 156.096C155.75 156.096 155.963 155.819 155.963 155.264V145.264C155.963 145.029 155.899 144.848 155.771 144.72C155.643 144.581 155.472 144.512 155.259 144.512C155.046 144.512 154.875 144.581 154.747 144.72C154.619 144.848 154.555 145.029 154.555 145.264V153.52H154.523L148.763 145.248C148.571 144.971 148.411 144.779 148.283 144.672C148.155 144.565 147.984 144.512 147.771 144.512C147.344 144.512 147.131 144.789 147.131 145.344V155.344C147.131 155.579 147.195 155.765 147.323 155.904C147.451 156.032 147.622 156.096 147.835 156.096C148.048 156.096 148.219 156.032 148.347 155.904C148.475 155.765 148.539 155.579 148.539 155.344V147.088ZM158.075 155.28C158.075 155.504 158.155 155.696 158.315 155.856C158.475 156.016 158.667 156.096 158.891 156.096C159.115 156.096 159.307 156.016 159.467 155.856C159.627 155.696 159.707 155.504 159.707 155.28C159.707 155.056 159.627 154.864 159.467 154.704C159.307 154.544 159.115 154.464 158.891 154.464C158.667 154.464 158.475 154.544 158.315 154.704C158.155 154.864 158.075 155.056 158.075 155.28ZM163.227 147.088H163.259L169.019 155.36C169.211 155.637 169.371 155.829 169.499 155.936C169.627 156.043 169.797 156.096 170.011 156.096C170.437 156.096 170.651 155.819 170.651 155.264V145.264C170.651 145.029 170.587 144.848 170.459 144.72C170.331 144.581 170.16 144.512 169.947 144.512C169.733 144.512 169.563 144.581 169.435 144.72C169.307 144.848 169.243 145.029 169.243 145.264V153.52H169.211L163.451 145.248C163.259 144.971 163.099 144.779 162.971 144.672C162.843 144.565 162.672 144.512 162.459 144.512C162.032 144.512 161.819 144.789 161.819 145.344V155.344C161.819 155.579 161.883 155.765 162.011 155.904C162.139 156.032 162.309 156.096 162.523 156.096C162.736 156.096 162.907 156.032 163.035 155.904C163.163 155.765 163.227 155.579 163.227 155.344V147.088ZM173.914 150.96H177.002C177.205 150.96 177.37 150.907 177.498 150.8C177.626 150.693 177.69 150.528 177.69 150.304C177.69 150.08 177.626 149.915 177.498 149.808C177.37 149.701 177.205 149.648 177.002 149.648H173.914V145.92H177.306C177.509 145.92 177.674 145.867 177.802 145.76C177.93 145.653 177.994 145.488 177.994 145.264C177.994 145.04 177.93 144.875 177.802 144.768C177.674 144.661 177.509 144.608 177.306 144.608H173.258C172.991 144.608 172.799 144.683 172.682 144.832C172.565 144.981 172.506 145.163 172.506 145.376V155.232C172.506 155.445 172.565 155.627 172.682 155.776C172.799 155.925 172.991 156 173.258 156H177.306C177.509 156 177.674 155.947 177.802 155.84C177.93 155.733 177.994 155.568 177.994 155.344C177.994 155.12 177.93 154.955 177.802 154.848C177.674 154.741 177.509 154.688 177.306 154.688H173.914V150.96ZM182.496 144.512C181.973 144.512 181.504 144.603 181.088 144.784C180.672 144.965 180.32 145.2 180.032 145.488C179.744 145.765 179.52 146.08 179.36 146.432C179.21 146.773 179.136 147.109 179.136 147.44C179.136 148.059 179.269 148.555 179.536 148.928C179.802 149.291 180.133 149.589 180.528 149.824C180.933 150.048 181.37 150.235 181.84 150.384C182.309 150.533 182.741 150.693 183.136 150.864C183.541 151.035 183.877 151.248 184.144 151.504C184.41 151.76 184.544 152.112 184.544 152.56C184.544 152.88 184.49 153.179 184.384 153.456C184.277 153.733 184.122 153.979 183.92 154.192C183.717 154.405 183.472 154.576 183.184 154.704C182.896 154.821 182.57 154.88 182.208 154.88C181.845 154.88 181.53 154.837 181.264 154.752C180.997 154.656 180.757 154.555 180.544 154.448C180.341 154.331 180.165 154.229 180.016 154.144C179.866 154.048 179.733 154 179.616 154C179.413 154 179.264 154.075 179.168 154.224C179.072 154.363 179.024 154.528 179.024 154.72C179.024 154.923 179.114 155.109 179.296 155.28C179.488 155.44 179.733 155.584 180.032 155.712C180.341 155.829 180.682 155.925 181.056 156C181.44 156.064 181.818 156.096 182.192 156.096C182.81 156.096 183.36 156 183.84 155.808C184.32 155.605 184.72 155.339 185.04 155.008C185.37 154.677 185.621 154.293 185.792 153.856C185.962 153.419 186.048 152.965 186.048 152.496C186.048 151.856 185.914 151.344 185.648 150.96C185.381 150.565 185.045 150.251 184.64 150.016C184.245 149.771 183.813 149.573 183.344 149.424C182.874 149.275 182.437 149.115 182.032 148.944C181.637 148.773 181.306 148.571 181.039 148.336C180.773 148.091 180.64 147.76 180.64 147.344C180.64 146.864 180.81 146.475 181.152 146.176C181.493 145.877 181.925 145.728 182.448 145.728C182.8 145.728 183.082 145.765 183.296 145.84C183.52 145.915 183.706 146 183.856 146.096C184.016 146.192 184.154 146.277 184.272 146.352C184.389 146.427 184.528 146.464 184.688 146.464C184.869 146.464 185.013 146.405 185.12 146.288C185.237 146.16 185.296 146.011 185.296 145.84C185.296 145.659 185.216 145.488 185.056 145.328C184.896 145.157 184.682 145.013 184.416 144.896C184.16 144.779 183.861 144.688 183.52 144.624C183.189 144.549 182.848 144.512 182.496 144.512ZM189.239 155.344C189.239 155.579 189.303 155.765 189.431 155.904C189.559 156.032 189.729 156.096 189.943 156.096C190.156 156.096 190.327 156.032 190.455 155.904C190.583 155.765 190.647 155.579 190.647 155.344V145.92H192.775C192.977 145.92 193.143 145.867 193.271 145.76C193.399 145.653 193.463 145.488 193.463 145.264C193.463 145.04 193.399 144.875 193.271 144.768C193.143 144.661 192.977 144.608 192.775 144.608H187.111C186.908 144.608 186.743 144.661 186.615 144.768C186.487 144.875 186.423 145.04 186.423 145.264C186.423 145.488 186.487 145.653 186.615 145.76C186.743 145.867 186.908 145.92 187.111 145.92H189.239V155.344ZM195.836 145.264C195.836 145.029 195.772 144.848 195.644 144.72C195.516 144.581 195.345 144.512 195.132 144.512C194.919 144.512 194.748 144.581 194.62 144.72C194.492 144.848 194.428 145.029 194.428 145.264V155.232C194.428 155.445 194.487 155.627 194.604 155.776C194.721 155.925 194.913 156 195.18 156H198.844C199.047 156 199.212 155.947 199.34 155.84C199.468 155.733 199.532 155.568 199.532 155.344C199.532 155.12 199.468 154.955 199.34 154.848C199.212 154.741 199.047 154.688 198.844 154.688H195.836V145.264ZM202.055 150.96H205.143C205.345 150.96 205.511 150.907 205.639 150.8C205.767 150.693 205.831 150.528 205.831 150.304C205.831 150.08 205.767 149.915 205.639 149.808C205.511 149.701 205.345 149.648 205.143 149.648H202.055V145.92H205.447C205.649 145.92 205.815 145.867 205.943 145.76C206.071 145.653 206.135 145.488 206.135 145.264C206.135 145.04 206.071 144.875 205.943 144.768C205.815 144.661 205.649 144.608 205.447 144.608H201.399C201.132 144.608 200.94 144.683 200.823 144.832C200.705 144.981 200.647 145.163 200.647 145.376V155.232C200.647 155.445 200.705 155.627 200.823 155.776C200.94 155.925 201.132 156 201.399 156H205.447C205.649 156 205.815 155.947 205.943 155.84C206.071 155.733 206.135 155.568 206.135 155.344C206.135 155.12 206.071 154.955 205.943 154.848C205.815 154.741 205.649 154.688 205.447 154.688H202.055V150.96ZM208.012 155.28C208.012 155.504 208.092 155.696 208.252 155.856C208.412 156.016 208.604 156.096 208.828 156.096C209.052 156.096 209.244 156.016 209.404 155.856C209.564 155.696 209.644 155.504 209.644 155.28C209.644 155.056 209.564 154.864 209.404 154.704C209.244 154.544 209.052 154.464 208.828 154.464C208.604 154.464 208.412 154.544 208.252 154.704C208.092 154.864 208.012 155.056 208.012 155.28ZM212.828 150.304C212.828 149.76 212.892 149.216 213.02 148.672C213.159 148.128 213.372 147.637 213.66 147.2C213.948 146.763 214.316 146.411 214.764 146.144C215.223 145.867 215.767 145.728 216.396 145.728C216.833 145.728 217.191 145.787 217.468 145.904C217.745 146.021 217.98 146.149 218.172 146.288C218.364 146.427 218.529 146.555 218.668 146.672C218.807 146.789 218.956 146.848 219.116 146.848C219.297 146.848 219.436 146.784 219.532 146.656C219.639 146.517 219.692 146.357 219.692 146.176C219.692 146.027 219.612 145.861 219.452 145.68C219.303 145.488 219.084 145.307 218.796 145.136C218.508 144.955 218.161 144.805 217.756 144.688C217.351 144.571 216.897 144.512 216.396 144.512C215.553 144.512 214.812 144.677 214.172 145.008C213.543 145.328 213.015 145.76 212.588 146.304C212.172 146.837 211.857 147.456 211.644 148.16C211.431 148.853 211.324 149.568 211.324 150.304C211.324 151.04 211.431 151.76 211.644 152.464C211.857 153.157 212.172 153.776 212.588 154.32C213.004 154.853 213.521 155.285 214.14 155.616C214.769 155.936 215.495 156.096 216.316 156.096C216.817 156.096 217.287 156.048 217.724 155.952C218.161 155.856 218.545 155.733 218.876 155.584C219.207 155.424 219.463 155.253 219.644 155.072C219.836 154.88 219.932 154.693 219.932 154.512C219.932 154.309 219.879 154.149 219.772 154.032C219.676 153.915 219.543 153.856 219.372 153.856C219.223 153.856 219.057 153.909 218.876 154.016C218.705 154.123 218.497 154.24 218.252 154.368C218.017 154.496 217.74 154.613 217.42 154.72C217.111 154.827 216.743 154.88 216.316 154.88C215.708 154.88 215.185 154.747 214.748 154.48C214.311 154.203 213.948 153.845 213.66 153.408C213.383 152.971 213.175 152.48 213.036 151.936C212.897 151.392 212.828 150.848 212.828 150.304ZM222.312 150.304C222.312 149.76 222.371 149.216 222.489 148.672C222.617 148.128 222.819 147.637 223.097 147.2C223.374 146.763 223.731 146.411 224.169 146.144C224.617 145.867 225.161 145.728 225.801 145.728C226.441 145.728 226.979 145.867 227.417 146.144C227.865 146.411 228.227 146.763 228.505 147.2C228.782 147.637 228.979 148.128 229.097 148.672C229.225 149.216 229.289 149.76 229.289 150.304C229.289 150.848 229.225 151.392 229.097 151.936C228.979 152.48 228.782 152.971 228.505 153.408C228.227 153.845 227.865 154.203 227.417 154.48C226.979 154.747 226.441 154.88 225.801 154.88C225.161 154.88 224.617 154.747 224.169 154.48C223.731 154.203 223.374 153.845 223.097 153.408C222.819 152.971 222.617 152.48 222.489 151.936C222.371 151.392 222.312 150.848 222.312 150.304ZM220.809 150.304C220.809 151.04 220.915 151.76 221.129 152.464C221.342 153.157 221.657 153.776 222.073 154.32C222.499 154.853 223.022 155.285 223.641 155.616C224.27 155.936 224.99 156.096 225.801 156.096C226.611 156.096 227.326 155.936 227.945 155.616C228.574 155.285 229.097 154.853 229.513 154.32C229.939 153.776 230.259 153.157 230.473 152.464C230.686 151.76 230.793 151.04 230.793 150.304C230.793 149.568 230.686 148.853 230.473 148.16C230.259 147.456 229.939 146.837 229.513 146.304C229.097 145.76 228.574 145.328 227.945 145.008C227.326 144.677 226.611 144.512 225.801 144.512C224.99 144.512 224.27 144.677 223.641 145.008C223.022 145.328 222.499 145.76 222.073 146.304C221.657 146.837 221.342 147.456 221.129 148.16C220.915 148.853 220.809 149.568 220.809 150.304ZM234.481 146.336H234.513L237.233 155.52C237.308 155.755 237.404 155.909 237.521 155.984C237.649 156.059 237.793 156.096 237.953 156.096C238.113 156.096 238.252 156.059 238.369 155.984C238.497 155.909 238.599 155.755 238.673 155.52L241.393 146.336H241.425L242.753 155.488C242.785 155.733 242.871 155.899 243.009 155.984C243.159 156.059 243.324 156.096 243.505 156.096C243.719 156.096 243.879 156.032 243.985 155.904C244.103 155.765 244.161 155.589 244.161 155.376C244.161 155.291 244.151 155.2 244.129 155.104C244.119 154.997 244.103 154.875 244.081 154.736L242.529 145.584C242.455 145.179 242.316 144.901 242.113 144.752C241.911 144.592 241.681 144.512 241.425 144.512C241.148 144.512 240.929 144.571 240.769 144.688C240.609 144.795 240.487 144.981 240.401 145.248L237.969 153.584H237.937L235.505 145.248C235.42 144.981 235.297 144.795 235.137 144.688C234.977 144.571 234.759 144.512 234.481 144.512C234.225 144.512 233.996 144.592 233.793 144.752C233.591 144.901 233.452 145.179 233.377 145.584L231.825 154.736C231.804 154.875 231.783 154.997 231.761 155.104C231.751 155.2 231.745 155.291 231.745 155.376C231.745 155.589 231.799 155.765 231.905 155.904C232.023 156.032 232.188 156.096 232.401 156.096C232.583 156.096 232.743 156.059 232.881 155.984C233.031 155.899 233.121 155.733 233.153 155.488L234.481 146.336Z" fill="#0033A1"/>
<path d="M77.624 196.344C77.624 196.579 77.688 196.765 77.816 196.904C77.944 197.032 78.1147 197.096 78.328 197.096C78.5413 197.096 78.712 197.032 78.84 196.904C78.968 196.765 79.032 196.579 79.032 196.344V185.992C79.032 185.811 78.9947 185.704 78.92 185.672C78.8453 185.629 78.7387 185.608 78.6 185.608H76.152C75.9813 185.608 75.8373 185.667 75.72 185.784C75.6027 185.901 75.544 186.045 75.544 186.216C75.544 186.387 75.6027 186.531 75.72 186.648C75.8373 186.765 75.9813 186.824 76.152 186.824H77.624V196.344ZM82.001 188.12C82.001 188.728 82.1183 189.224 82.353 189.608C82.5983 189.981 82.977 190.328 83.489 190.648C83.1583 190.723 82.865 190.851 82.609 191.032C82.353 191.213 82.1343 191.432 81.953 191.688C81.7823 191.944 81.649 192.227 81.553 192.536C81.4677 192.845 81.425 193.165 81.425 193.496C81.425 193.955 81.4997 194.403 81.649 194.84C81.809 195.277 82.0383 195.661 82.337 195.992C82.6357 196.323 82.9983 196.589 83.425 196.792C83.8623 196.995 84.3583 197.096 84.913 197.096C85.4677 197.096 85.9583 196.995 86.385 196.792C86.8223 196.589 87.1903 196.323 87.489 195.992C87.7877 195.661 88.0117 195.277 88.161 194.84C88.321 194.403 88.401 193.955 88.401 193.496C88.401 193.165 88.353 192.845 88.257 192.536C88.1717 192.227 88.0383 191.944 87.857 191.688C87.6863 191.432 87.473 191.213 87.217 191.032C86.961 190.851 86.6677 190.723 86.337 190.648C86.849 190.328 87.2223 189.981 87.457 189.608C87.7023 189.224 87.825 188.728 87.825 188.12C87.825 187.683 87.7397 187.304 87.569 186.984C87.3983 186.653 87.1743 186.381 86.897 186.168C86.6303 185.944 86.321 185.779 85.969 185.672C85.6277 185.565 85.2757 185.512 84.913 185.512C84.5503 185.512 84.193 185.565 83.841 185.672C83.4997 185.779 83.1903 185.944 82.913 186.168C82.6463 186.381 82.4277 186.653 82.257 186.984C82.0863 187.304 82.001 187.683 82.001 188.12ZM83.313 188.392C83.313 187.912 83.4517 187.517 83.729 187.208C84.0063 186.888 84.401 186.728 84.913 186.728C85.425 186.728 85.8197 186.888 86.097 187.208C86.3743 187.517 86.513 187.912 86.513 188.392C86.513 188.883 86.3743 189.288 86.097 189.608C85.8197 189.917 85.425 190.072 84.913 190.072C84.401 190.072 84.0063 189.917 83.729 189.608C83.4517 189.288 83.313 188.883 83.313 188.392ZM82.929 193.56C82.929 193.272 82.9717 192.989 83.057 192.712C83.1423 192.435 83.265 192.195 83.425 191.992C83.5957 191.779 83.8037 191.608 84.049 191.48C84.2943 191.352 84.5823 191.288 84.913 191.288C85.2437 191.288 85.5317 191.352 85.777 191.48C86.0223 191.608 86.225 191.779 86.385 191.992C86.5557 192.195 86.6837 192.435 86.769 192.712C86.8543 192.989 86.897 193.272 86.897 193.56C86.897 193.923 86.8437 194.248 86.737 194.536C86.6303 194.824 86.4863 195.069 86.305 195.272C86.1237 195.475 85.9103 195.629 85.665 195.736C85.4303 195.832 85.1797 195.88 84.913 195.88C84.6463 195.88 84.3903 195.832 84.145 195.736C83.9103 195.629 83.7023 195.475 83.521 195.272C83.3397 195.069 83.1957 194.824 83.089 194.536C82.9823 194.248 82.929 193.923 82.929 193.56ZM89.7311 191.304C89.7311 192.221 89.8271 193.037 90.0191 193.752C90.2218 194.467 90.4938 195.075 90.8351 195.576C91.1765 196.067 91.5711 196.445 92.0191 196.712C92.4778 196.968 92.9685 197.096 93.4911 197.096C94.0138 197.096 94.4991 196.968 94.9471 196.712C95.4058 196.445 95.8058 196.067 96.1471 195.576C96.4885 195.075 96.7551 194.467 96.9471 193.752C97.1498 193.037 97.2511 192.221 97.2511 191.304C97.2511 190.387 97.1498 189.571 96.9471 188.856C96.7551 188.141 96.4885 187.539 96.1471 187.048C95.8058 186.547 95.4058 186.168 94.9471 185.912C94.4991 185.645 94.0138 185.512 93.4911 185.512C92.9685 185.512 92.4778 185.645 92.0191 185.912C91.5711 186.168 91.1765 186.547 90.8351 187.048C90.4938 187.539 90.2218 188.141 90.0191 188.856C89.8271 189.571 89.7311 190.387 89.7311 191.304ZM91.2351 191.304C91.2351 190.504 91.2938 189.816 91.4111 189.24C91.5285 188.664 91.6885 188.189 91.8911 187.816C92.0938 187.443 92.3338 187.171 92.6111 187C92.8885 186.819 93.1818 186.728 93.4911 186.728C93.8005 186.728 94.0938 186.819 94.3711 187C94.6485 187.171 94.8885 187.443 95.0911 187.816C95.2938 188.189 95.4538 188.664 95.5711 189.24C95.6885 189.816 95.7471 190.504 95.7471 191.304C95.7471 192.104 95.6885 192.792 95.5711 193.368C95.4538 193.944 95.2938 194.419 95.0911 194.792C94.8885 195.165 94.6485 195.443 94.3711 195.624C94.0938 195.795 93.8005 195.88 93.4911 195.88C93.1818 195.88 92.8885 195.795 92.6111 195.624C92.3338 195.443 92.0938 195.165 91.8911 194.792C91.6885 194.419 91.5285 193.944 91.4111 193.368C91.2938 192.792 91.2351 192.104 91.2351 191.304ZM98.3092 191.304C98.3092 192.221 98.4053 193.037 98.5973 193.752C98.7999 194.467 99.0719 195.075 99.4133 195.576C99.7546 196.067 100.149 196.445 100.597 196.712C101.056 196.968 101.547 197.096 102.069 197.096C102.592 197.096 103.077 196.968 103.525 196.712C103.984 196.445 104.384 196.067 104.725 195.576C105.067 195.075 105.333 194.467 105.525 193.752C105.728 193.037 105.829 192.221 105.829 191.304C105.829 190.387 105.728 189.571 105.525 188.856C105.333 188.141 105.067 187.539 104.725 187.048C104.384 186.547 103.984 186.168 103.525 185.912C103.077 185.645 102.592 185.512 102.069 185.512C101.547 185.512 101.056 185.645 100.597 185.912C100.149 186.168 99.7546 186.547 99.4133 187.048C99.0719 187.539 98.7999 188.141 98.5973 188.856C98.4053 189.571 98.3092 190.387 98.3092 191.304ZM99.8133 191.304C99.8133 190.504 99.8719 189.816 99.9893 189.24C100.107 188.664 100.267 188.189 100.469 187.816C100.672 187.443 100.912 187.171 101.189 187C101.467 186.819 101.76 186.728 102.069 186.728C102.379 186.728 102.672 186.819 102.949 187C103.227 187.171 103.467 187.443 103.669 187.816C103.872 188.189 104.032 188.664 104.149 189.24C104.267 189.816 104.325 190.504 104.325 191.304C104.325 192.104 104.267 192.792 104.149 193.368C104.032 193.944 103.872 194.419 103.669 194.792C103.467 195.165 103.227 195.443 102.949 195.624C102.672 195.795 102.379 195.88 102.069 195.88C101.76 195.88 101.467 195.795 101.189 195.624C100.912 195.443 100.672 195.165 100.469 194.792C100.267 194.419 100.107 193.944 99.9893 193.368C99.8719 192.792 99.8133 192.104 99.8133 191.304ZM112.983 196.344C112.983 196.579 113.047 196.765 113.175 196.904C113.303 197.032 113.474 197.096 113.687 197.096C113.901 197.096 114.071 197.032 114.199 196.904C114.327 196.765 114.391 196.579 114.391 196.344V185.992C114.391 185.811 114.354 185.704 114.279 185.672C114.205 185.629 114.098 185.608 113.959 185.608H111.511C111.341 185.608 111.197 185.667 111.079 185.784C110.962 185.901 110.903 186.045 110.903 186.216C110.903 186.387 110.962 186.531 111.079 186.648C111.197 186.765 111.341 186.824 111.511 186.824H112.983V196.344ZM116.512 191.304C116.512 192.221 116.608 193.037 116.8 193.752C117.003 194.467 117.275 195.075 117.616 195.576C117.958 196.067 118.352 196.445 118.8 196.712C119.259 196.968 119.75 197.096 120.272 197.096C120.795 197.096 121.28 196.968 121.728 196.712C122.187 196.445 122.587 196.067 122.928 195.576C123.27 195.075 123.536 194.467 123.728 193.752C123.931 193.037 124.032 192.221 124.032 191.304C124.032 190.387 123.931 189.571 123.728 188.856C123.536 188.141 123.27 187.539 122.928 187.048C122.587 186.547 122.187 186.168 121.728 185.912C121.28 185.645 120.795 185.512 120.272 185.512C119.75 185.512 119.259 185.645 118.8 185.912C118.352 186.168 117.958 186.547 117.616 187.048C117.275 187.539 117.003 188.141 116.8 188.856C116.608 189.571 116.512 190.387 116.512 191.304ZM118.016 191.304C118.016 190.504 118.075 189.816 118.192 189.24C118.31 188.664 118.47 188.189 118.672 187.816C118.875 187.443 119.115 187.171 119.392 187C119.67 186.819 119.963 186.728 120.272 186.728C120.582 186.728 120.875 186.819 121.152 187C121.43 187.171 121.67 187.443 121.872 187.816C122.075 188.189 122.235 188.664 122.352 189.24C122.47 189.816 122.528 190.504 122.528 191.304C122.528 192.104 122.47 192.792 122.352 193.368C122.235 193.944 122.075 194.419 121.872 194.792C121.67 195.165 121.43 195.443 121.152 195.624C120.875 195.795 120.582 195.88 120.272 195.88C119.963 195.88 119.67 195.795 119.392 195.624C119.115 195.443 118.875 195.165 118.672 194.792C118.47 194.419 118.31 193.944 118.192 193.368C118.075 192.792 118.016 192.104 118.016 191.304ZM132.179 193.64C132.179 192.989 132.013 192.413 131.683 191.912C131.352 191.411 130.867 191.064 130.227 190.872C130.675 190.595 131.011 190.243 131.235 189.816C131.459 189.389 131.571 188.936 131.571 188.456C131.571 188.051 131.501 187.672 131.363 187.32C131.224 186.968 131.027 186.659 130.771 186.392C130.515 186.115 130.205 185.901 129.843 185.752C129.48 185.592 129.069 185.512 128.611 185.512C128.141 185.512 127.72 185.592 127.347 185.752C126.973 185.912 126.659 186.125 126.403 186.392C126.147 186.648 125.949 186.952 125.811 187.304C125.683 187.645 125.618 188.008 125.618 188.392C125.618 188.573 125.672 188.728 125.779 188.856C125.896 188.984 126.056 189.048 126.259 189.048C126.323 189.048 126.387 189.043 126.451 189.032C126.525 189.021 126.595 189 126.659 188.968C126.733 188.925 126.792 188.861 126.835 188.776C126.888 188.68 126.92 188.552 126.931 188.392C126.952 188.179 126.995 187.971 127.059 187.768C127.123 187.565 127.219 187.389 127.347 187.24C127.475 187.08 127.635 186.957 127.827 186.872C128.029 186.776 128.269 186.728 128.547 186.728C129.037 186.728 129.427 186.904 129.715 187.256C130.013 187.597 130.163 188.04 130.163 188.584C130.163 189.107 130.04 189.512 129.795 189.8C129.549 190.088 129.139 190.296 128.562 190.424C128.296 190.477 128.104 190.552 127.987 190.648C127.88 190.744 127.827 190.872 127.827 191.032C127.827 191.213 127.901 191.363 128.051 191.48C128.2 191.587 128.413 191.64 128.691 191.64C128.957 191.64 129.208 191.672 129.443 191.736C129.688 191.8 129.901 191.912 130.083 192.072C130.264 192.232 130.408 192.451 130.515 192.728C130.621 192.995 130.675 193.341 130.675 193.768C130.675 194.056 130.621 194.328 130.515 194.584C130.408 194.84 130.259 195.064 130.067 195.256C129.875 195.448 129.645 195.603 129.379 195.72C129.123 195.827 128.835 195.88 128.515 195.88C127.971 195.88 127.549 195.741 127.251 195.464C126.952 195.176 126.733 194.829 126.595 194.424C126.509 194.179 126.408 193.997 126.291 193.88C126.184 193.752 126.024 193.688 125.811 193.688C125.64 193.688 125.496 193.757 125.379 193.896C125.272 194.035 125.219 194.227 125.219 194.472C125.219 194.685 125.277 194.941 125.395 195.24C125.523 195.539 125.72 195.827 125.987 196.104C126.264 196.381 126.611 196.616 127.027 196.808C127.453 197 127.96 197.096 128.547 197.096C129.059 197.096 129.533 197.016 129.971 196.856C130.408 196.696 130.792 196.472 131.123 196.184C131.453 195.885 131.709 195.523 131.891 195.096C132.083 194.669 132.179 194.184 132.179 193.64ZM139.765 196.344C139.765 196.579 139.829 196.765 139.957 196.904C140.085 197.032 140.255 197.096 140.469 197.096C140.682 197.096 140.853 197.032 140.981 196.904C141.109 196.765 141.173 196.579 141.173 196.344V185.992C141.173 185.811 141.135 185.704 141.061 185.672C140.986 185.629 140.879 185.608 140.741 185.608H138.293C138.122 185.608 137.978 185.667 137.861 185.784C137.743 185.901 137.685 186.045 137.685 186.216C137.685 186.387 137.743 186.531 137.861 186.648C137.978 186.765 138.122 186.824 138.293 186.824H139.765V196.344ZM147.086 185.512C146.584 185.512 146.12 185.608 145.694 185.8C145.267 185.992 144.899 186.259 144.59 186.6C144.28 186.931 144.035 187.325 143.854 187.784C143.683 188.232 143.598 188.712 143.598 189.224C143.598 189.715 143.662 190.189 143.79 190.648C143.918 191.096 144.099 191.496 144.334 191.848C144.579 192.189 144.883 192.461 145.246 192.664C145.608 192.867 146.019 192.968 146.478 192.968C146.862 192.968 147.192 192.931 147.47 192.856C147.747 192.771 148.019 192.659 148.286 192.52H148.318C148.104 192.915 147.896 193.267 147.694 193.576C147.502 193.875 147.304 194.147 147.102 194.392C146.91 194.637 146.712 194.867 146.51 195.08C146.307 195.283 146.094 195.485 145.87 195.688C145.667 195.869 145.523 196.013 145.438 196.12C145.352 196.216 145.31 196.323 145.31 196.44C145.31 196.653 145.374 196.819 145.502 196.936C145.64 197.043 145.768 197.096 145.886 197.096C145.982 197.096 146.078 197.069 146.174 197.016C146.27 196.973 146.392 196.893 146.542 196.776C146.979 196.413 147.427 195.981 147.886 195.48C148.355 194.979 148.782 194.419 149.166 193.8C149.56 193.181 149.88 192.509 150.126 191.784C150.382 191.048 150.51 190.264 150.51 189.432C150.51 188.867 150.424 188.344 150.254 187.864C150.083 187.384 149.843 186.973 149.534 186.632C149.235 186.28 148.878 186.008 148.462 185.816C148.046 185.613 147.587 185.512 147.086 185.512ZM149.102 189.288C149.102 189.619 149.059 189.933 148.974 190.232C148.899 190.531 148.782 190.792 148.622 191.016C148.462 191.24 148.254 191.421 147.998 191.56C147.752 191.688 147.454 191.752 147.102 191.752C146.398 191.752 145.886 191.533 145.566 191.096C145.256 190.648 145.102 190.045 145.102 189.288C145.102 188.957 145.139 188.643 145.214 188.344C145.299 188.045 145.422 187.784 145.582 187.56C145.742 187.336 145.944 187.16 146.19 187.032C146.446 186.893 146.75 186.824 147.102 186.824C147.454 186.824 147.752 186.893 147.998 187.032C148.254 187.16 148.462 187.336 148.622 187.56C148.782 187.784 148.899 188.045 148.974 188.344C149.059 188.643 149.102 188.957 149.102 189.288ZM156.688 194.072V196.344C156.688 196.579 156.752 196.765 156.88 196.904C157.008 197.032 157.178 197.096 157.392 197.096C157.605 197.096 157.776 197.032 157.904 196.904C158.032 196.765 158.096 196.579 158.096 196.344V194.072H158.816C158.986 194.072 159.13 194.013 159.248 193.896C159.365 193.779 159.424 193.635 159.424 193.464C159.424 193.293 159.365 193.149 159.248 193.032C159.13 192.915 158.986 192.856 158.816 192.856H158.096V186.68C158.096 186.264 157.994 185.965 157.792 185.784C157.589 185.603 157.333 185.512 157.024 185.512C156.778 185.512 156.57 185.56 156.4 185.656C156.229 185.741 156.069 185.907 155.92 186.152L151.888 192.76C151.781 192.931 151.696 193.085 151.632 193.224C151.568 193.352 151.536 193.469 151.536 193.576C151.536 193.725 151.573 193.848 151.648 193.944C151.733 194.029 151.898 194.072 152.144 194.072H156.688ZM153.296 192.856L156.656 187.016H156.688V192.856H153.296ZM165.778 186.824V186.856L161.794 195.8C161.709 196.013 161.65 196.179 161.618 196.296C161.586 196.413 161.57 196.499 161.57 196.552C161.57 196.733 161.634 196.872 161.762 196.968C161.89 197.053 162.002 197.096 162.098 197.096C162.247 197.096 162.402 197.064 162.562 197C162.722 196.947 162.85 196.808 162.946 196.584L167.202 186.904C167.287 186.701 167.351 186.541 167.394 186.424C167.447 186.296 167.474 186.173 167.474 186.056C167.474 185.885 167.405 185.768 167.266 185.704C167.138 185.64 166.967 185.608 166.754 185.608H160.978C160.807 185.608 160.663 185.667 160.546 185.784C160.429 185.901 160.37 186.045 160.37 186.216C160.37 186.387 160.429 186.531 160.546 186.648C160.663 186.765 160.807 186.824 160.978 186.824H165.778Z" fill="#0033A1"/>
<path d="M53.7344 58.0156V63.6094C53.7344 64.849 53.5208 65.7708 53.0938 66.375C52.6667 66.9792 52.0156 67.2812 51.1406 67.2812C50.2656 67.2812 49.6146 66.9792 49.1875 66.375C48.7604 65.7708 48.5469 64.849 48.5469 63.6094V47.8906C48.5469 46.5052 48.8125 45.5521 49.3438 45.0312C49.875 44.5104 50.8021 44.25 52.125 44.25H56.1562C58.8542 44.25 60.974 44.8906 62.5156 46.1719C64.0573 47.4427 64.8281 49.1719 64.8281 51.3594C64.8281 52.9844 64.3438 54.3438 63.375 55.4375C62.4167 56.5208 61.0885 57.2083 59.3906 57.5L63.4844 62.0469C64.0052 62.6198 64.3906 63.1562 64.6406 63.6562C64.901 64.1458 65.0312 64.599 65.0312 65.0156C65.0312 65.7031 64.7969 66.2812 64.3281 66.75C63.8594 67.2188 63.2708 67.4531 62.5625 67.4531C62.1042 67.4531 61.6615 67.3125 61.2344 67.0312C60.8177 66.75 60.3333 66.2708 59.7812 65.5938L53.7344 58.0156ZM53.7344 54.5469H56.125C57.1771 54.5469 57.9896 54.3021 58.5625 53.8125C59.1354 53.3229 59.4219 52.6302 59.4219 51.7344C59.4219 50.8698 59.1406 50.2031 58.5781 49.7344C58.0156 49.2552 57.2188 49.0156 56.1875 49.0156H53.7344V54.5469ZM77.0781 44.25C78.3073 44.25 79.2292 44.4531 79.8438 44.8594C80.4583 45.2552 80.7656 45.8646 80.7656 46.6875C80.7656 47.4896 80.4583 48.0885 79.8438 48.4844C79.2396 48.8802 78.3177 49.0781 77.0781 49.0781H72.8594V53.1406H76.5C77.7396 53.1406 78.6615 53.3385 79.2656 53.7344C79.8802 54.1302 80.1875 54.7344 80.1875 55.5469C80.1875 56.3594 79.8802 56.9635 79.2656 57.3594C78.6615 57.7448 77.7396 57.9375 76.5 57.9375H72.8594V62.2031H77.2344C78.4844 62.2031 79.4115 62.401 80.0156 62.7969C80.6198 63.1927 80.9219 63.7917 80.9219 64.5938C80.9219 65.4062 80.6198 66.0104 80.0156 66.4062C79.4115 66.8021 78.4844 67 77.2344 67H71.1875C69.8438 67 68.9219 66.7708 68.4219 66.3125C67.9219 65.8542 67.6719 64.9948 67.6719 63.7344V47.8906C67.6719 46.5052 67.9375 45.5521 68.4688 45.0312C69 44.5104 69.9271 44.25 71.25 44.25H77.0781ZM87.5469 62.7188L86.7656 65.0156C86.5156 65.776 86.1771 66.3594 85.75 66.7656C85.3333 67.1615 84.8438 67.3594 84.2812 67.3594C83.5625 67.3594 82.9688 67.125 82.5 66.6562C82.0417 66.1771 81.8125 65.5781 81.8125 64.8594C81.8125 64.5677 81.8333 64.2969 81.875 64.0469C81.9167 63.7969 81.9792 63.5677 82.0625 63.3594L87.9844 47.2812C88.4115 46.125 88.9427 45.276 89.5781 44.7344C90.224 44.1927 91.0156 43.9219 91.9531 43.9219C92.8385 43.9219 93.6042 44.1823 94.25 44.7031C94.9062 45.2135 95.4115 45.9583 95.7656 46.9375L101.531 63.2812C101.646 63.625 101.729 63.9323 101.781 64.2031C101.844 64.474 101.875 64.7135 101.875 64.9219C101.875 65.6406 101.635 66.2292 101.156 66.6875C100.677 67.1354 100.062 67.3594 99.3125 67.3594C98.6458 67.3594 98.0885 67.151 97.6406 66.7344C97.2031 66.3177 96.8542 65.6823 96.5938 64.8281L95.9531 62.7188H87.5469ZM89.0156 57.9375H94.4531L91.8281 49.5L89.0156 57.9375ZM113.844 67.6719C110.5 67.6719 107.807 66.5729 105.766 64.375C103.724 62.1667 102.703 59.2552 102.703 55.6406C102.703 52.1094 103.76 49.224 105.875 46.9844C107.99 44.7344 110.667 43.6094 113.906 43.6094C115.812 43.6094 117.422 43.974 118.734 44.7031C120.057 45.4323 120.719 46.2812 120.719 47.25C120.719 47.875 120.5 48.4219 120.062 48.8906C119.625 49.3594 119.109 49.5938 118.516 49.5938C118.182 49.5938 117.505 49.4479 116.484 49.1562C115.474 48.8542 114.625 48.7031 113.938 48.7031C112.24 48.7031 110.88 49.3438 109.859 50.625C108.849 51.8958 108.344 53.6094 108.344 55.7656C108.344 57.8802 108.859 59.5573 109.891 60.7969C110.932 62.026 112.333 62.6406 114.094 62.6406C114.906 62.6406 115.833 62.4479 116.875 62.0625C117.917 61.6667 118.604 61.4688 118.938 61.4688C119.469 61.4688 119.948 61.6979 120.375 62.1562C120.802 62.6146 121.016 63.1406 121.016 63.7344C121.016 64.8073 120.323 65.7344 118.938 66.5156C117.562 67.2865 115.865 67.6719 113.844 67.6719ZM128.297 57.8125V63.6094C128.297 64.849 128.083 65.7708 127.656 66.375C127.229 66.9792 126.578 67.2812 125.703 67.2812C124.828 67.2812 124.177 66.9792 123.75 66.375C123.323 65.7708 123.109 64.849 123.109 63.6094V47.6406C123.109 46.401 123.323 45.4792 123.75 44.875C124.177 44.2604 124.828 43.9531 125.703 43.9531C126.578 43.9531 127.229 44.2604 127.656 44.875C128.083 45.4792 128.297 46.401 128.297 47.6406V53.0156H137.828V47.6406C137.828 46.401 138.042 45.4792 138.469 44.875C138.896 44.2604 139.547 43.9531 140.422 43.9531C141.297 43.9531 141.948 44.2604 142.375 44.875C142.802 45.4792 143.016 46.401 143.016 47.6406V63.6094C143.016 64.849 142.802 65.7708 142.375 66.375C141.948 66.9792 141.297 67.2812 140.422 67.2812C139.547 67.2812 138.896 66.9792 138.469 66.375C138.042 65.7708 137.828 64.849 137.828 63.6094V57.8125H128.297ZM161.938 55.7031C161.938 57.8281 162.443 59.5312 163.453 60.8125C164.464 62.0833 165.802 62.7188 167.469 62.7188C169.135 62.7188 170.474 62.0833 171.484 60.8125C172.495 59.5312 173 57.8281 173 55.7031C173 53.5052 172.5 51.7604 171.5 50.4688C170.5 49.1771 169.156 48.5312 167.469 48.5312C165.781 48.5312 164.438 49.1771 163.438 50.4688C162.438 51.7604 161.938 53.5052 161.938 55.7031ZM156.297 55.6406C156.297 52.0469 157.323 49.1458 159.375 46.9375C161.438 44.7188 164.135 43.6094 167.469 43.6094C170.812 43.6094 173.516 44.7188 175.578 46.9375C177.641 49.1562 178.672 52.0573 178.672 55.6406C178.672 59.2448 177.641 62.151 175.578 64.3594C173.526 66.5677 170.823 67.6719 167.469 67.6719C164.115 67.6719 161.411 66.5677 159.359 64.3594C157.318 62.151 156.297 59.2448 156.297 55.6406ZM181.578 57.2344V47.6406C181.578 46.401 181.792 45.4792 182.219 44.875C182.646 44.2604 183.297 43.9531 184.172 43.9531C185.047 43.9531 185.698 44.2604 186.125 44.875C186.552 45.4792 186.766 46.401 186.766 47.6406V56.6562C186.766 58.6667 187.146 60.1823 187.906 61.2031C188.677 62.2135 189.823 62.7188 191.344 62.7188C192.854 62.7188 193.995 62.2135 194.766 61.2031C195.536 60.1823 195.922 58.6667 195.922 56.6562V47.6406C195.922 46.401 196.135 45.4792 196.562 44.875C196.99 44.2604 197.635 43.9531 198.5 43.9531C199.375 43.9531 200.026 44.2604 200.453 44.875C200.88 45.4792 201.094 46.401 201.094 47.6406V57.2344C201.094 60.5365 200.234 63.1042 198.516 64.9375C196.797 66.7604 194.406 67.6719 191.344 67.6719C188.271 67.6719 185.875 66.7604 184.156 64.9375C182.438 63.1042 181.578 60.5365 181.578 57.2344ZM208.078 49.0781H206.172C204.922 49.0781 203.995 48.8802 203.391 48.4844C202.786 48.0885 202.484 47.4896 202.484 46.6875C202.484 45.8646 202.786 45.2552 203.391 44.8594C204.005 44.4531 204.932 44.25 206.172 44.25H215.188C216.417 44.25 217.339 44.4531 217.953 44.8594C218.568 45.2552 218.875 45.8646 218.875 46.6875C218.875 47.4896 218.568 48.0885 217.953 48.4844C217.349 48.8802 216.427 49.0781 215.188 49.0781H213.266V63.6094C213.266 64.849 213.052 65.7708 212.625 66.375C212.198 66.9792 211.547 67.2812 210.672 67.2812C209.797 67.2812 209.146 66.9792 208.719 66.375C208.292 65.7708 208.078 64.849 208.078 63.6094V49.0781ZM233.578 49.0781H231.672C230.422 49.0781 229.495 48.8802 228.891 48.4844C228.286 48.0885 227.984 47.4896 227.984 46.6875C227.984 45.8646 228.286 45.2552 228.891 44.8594C229.505 44.4531 230.432 44.25 231.672 44.25H240.688C241.917 44.25 242.839 44.4531 243.453 44.8594C244.068 45.2552 244.375 45.8646 244.375 46.6875C244.375 47.4896 244.068 48.0885 243.453 48.4844C242.849 48.8802 241.927 49.0781 240.688 49.0781H238.766V63.6094C238.766 64.849 238.552 65.7708 238.125 66.375C237.698 66.9792 237.047 67.2812 236.172 67.2812C235.297 67.2812 234.646 66.9792 234.219 66.375C233.792 65.7708 233.578 64.849 233.578 63.6094V49.0781ZM250.281 55.7031C250.281 57.8281 250.786 59.5312 251.797 60.8125C252.807 62.0833 254.146 62.7188 255.812 62.7188C257.479 62.7188 258.818 62.0833 259.828 60.8125C260.839 59.5312 261.344 57.8281 261.344 55.7031C261.344 53.5052 260.844 51.7604 259.844 50.4688C258.844 49.1771 257.5 48.5312 255.812 48.5312C254.125 48.5312 252.781 49.1771 251.781 50.4688C250.781 51.7604 250.281 53.5052 250.281 55.7031ZM244.641 55.6406C244.641 52.0469 245.667 49.1458 247.719 46.9375C249.781 44.7188 252.479 43.6094 255.812 43.6094C259.156 43.6094 261.859 44.7188 263.922 46.9375C265.984 49.1562 267.016 52.0573 267.016 55.6406C267.016 59.2448 265.984 62.151 263.922 64.3594C261.87 66.5677 259.167 67.6719 255.812 67.6719C252.458 67.6719 249.755 66.5677 247.703 64.3594C245.661 62.151 244.641 59.2448 244.641 55.6406ZM280.297 57.2344V47.6406C280.297 46.401 280.51 45.4792 280.938 44.875C281.365 44.2604 282.016 43.9531 282.891 43.9531C283.766 43.9531 284.417 44.2604 284.844 44.875C285.271 45.4792 285.484 46.401 285.484 47.6406V56.6562C285.484 58.6667 285.865 60.1823 286.625 61.2031C287.396 62.2135 288.542 62.7188 290.062 62.7188C291.573 62.7188 292.714 62.2135 293.484 61.2031C294.255 60.1823 294.641 58.6667 294.641 56.6562V47.6406C294.641 46.401 294.854 45.4792 295.281 44.875C295.708 44.2604 296.354 43.9531 297.219 43.9531C298.094 43.9531 298.745 44.2604 299.172 44.875C299.599 45.4792 299.812 46.401 299.812 47.6406V57.2344C299.812 60.5365 298.953 63.1042 297.234 64.9375C295.516 66.7604 293.125 67.6719 290.062 67.6719C286.99 67.6719 284.594 66.7604 282.875 64.9375C281.156 63.1042 280.297 60.5365 280.297 57.2344ZM318.828 59.9531C318.828 62.2344 318.016 64.0833 316.391 65.5C314.776 66.9062 312.646 67.6094 310 67.6094C307.969 67.6094 306.234 67.2448 304.797 66.5156C303.359 65.7865 302.641 64.9323 302.641 63.9531C302.641 63.2552 302.87 62.6927 303.328 62.2656C303.797 61.8385 304.422 61.625 305.203 61.625C305.589 61.625 306.396 61.8177 307.625 62.2031C308.854 62.5885 309.891 62.7812 310.734 62.7812C311.464 62.7812 312.073 62.5573 312.562 62.1094C313.052 61.6615 313.297 61.1042 313.297 60.4375C313.297 59.7188 313.047 59.1406 312.547 58.7031C312.047 58.2656 310.974 57.7969 309.328 57.2969C306.943 56.5885 305.276 55.75 304.328 54.7812C303.38 53.8021 302.906 52.4896 302.906 50.8438C302.906 48.7292 303.667 47 305.188 45.6562C306.719 44.3125 308.708 43.6406 311.156 43.6406C312.958 43.6406 314.443 43.9635 315.609 44.6094C316.776 45.2448 317.359 46.0417 317.359 47C317.359 47.6875 317.151 48.2292 316.734 48.625C316.328 49.0104 315.76 49.2031 315.031 49.2031C314.625 49.2031 313.964 49.0729 313.047 48.8125C312.13 48.5417 311.438 48.4062 310.969 48.4062C310.198 48.4062 309.583 48.5885 309.125 48.9531C308.667 49.3073 308.438 49.776 308.438 50.3594C308.438 51.2865 309.448 52.0677 311.469 52.7031C311.938 52.849 312.302 52.9635 312.562 53.0469C314.74 53.776 316.328 54.6979 317.328 55.8125C318.328 56.9167 318.828 58.2969 318.828 59.9531Z" fill="#0033A1"/>
<g clip-path="url(#clip0_144_601)">
<path d="M41.853 181.019L41.8534 181.019C42.1131 180.948 42.3813 181.07 42.4997 181.305L42.5183 181.349L44.0808 185.099L44.081 185.1C44.1763 185.328 44.111 185.591 43.9179 185.749C43.9179 185.749 43.9179 185.749 43.9179 185.749L41.9921 187.323L41.3867 187.818L41.721 188.525C43.1207 191.484 45.5156 193.879 48.4748 195.279L49.1808 195.613L49.6758 195.009L51.2539 193.083L51.2539 193.083L51.2574 193.079C51.4093 192.891 51.6733 192.823 51.904 192.919L51.9044 192.919L55.6544 194.482L55.6566 194.482C55.9159 194.59 56.0554 194.873 55.9807 195.147L55.9805 195.147L55.0438 198.582C55.0437 198.582 55.0436 198.582 55.0436 198.583C54.9745 198.831 54.7495 199 54.5 199C45.3882 199 38 191.612 38 182.5C38 182.25 38.1685 182.025 38.4172 181.956C38.4176 181.956 38.4179 181.956 38.4183 181.956L41.853 181.019Z" stroke="#0033A1" stroke-width="2"/>
</g>
<g clip-path="url(#clip1_144_601)">
<path d="M55 103.875C55 104.547 54.7337 105.455 54.2048 106.551C53.6856 107.627 52.9582 108.794 52.1397 109.956C50.5042 112.277 48.5653 114.494 47.3739 115.799C47.1933 115.995 46.8056 115.995 46.6254 115.798L45.8891 116.475L46.6275 115.801C45.4362 114.496 43.4964 112.278 41.8603 109.956C41.0418 108.794 40.3144 107.627 39.7952 106.551C39.2663 105.455 39 104.547 39 103.875C39 100.201 42.4539 97 47 97C51.5461 97 55 100.201 55 103.875Z" stroke="#0033A1" stroke-width="2"/>
</g>
<path d="M37.7012 142.446C37.3298 142.446 37.0259 142.776 37.0259 143.178V144.19L44.3064 150.669C45.18 151.446 46.4336 151.446 47.3072 150.669L54.5835 144.19V143.178C54.5835 142.776 54.2796 142.446 53.9082 142.446H37.7012ZM37.0259 147.031V154.892C37.0259 155.295 37.3298 155.624 37.7012 155.624H53.9082C54.2796 155.624 54.5835 155.295 54.5835 154.892V147.031L48.5903 152.366C46.9696 153.808 44.6356 153.808 43.0191 152.366L37.0259 147.031ZM35 143.178C35 141.563 36.2113 140.25 37.7012 140.25H53.9082C55.3981 140.25 56.6094 141.563 56.6094 143.178V154.892C56.6094 156.507 55.3981 157.82 53.9082 157.82H37.7012C36.2113 157.82 35 156.507 35 154.892V143.178Z" fill="#0033A1"/>
<defs>
<filter id="filter0_d_144_601" x="0" y="0" width="363" height="237" filterUnits="userSpaceOnUse" color-interpolation-filters="sRGB">
<feFlood flood-opacity="0" result="BackgroundImageFix"/>
<feColorMatrix in="SourceAlpha" type="matrix" values="0 0 0 0 0 0 0 0 0 0 0 0 0 0 0 0 0 0 127 0" result="hardAlpha"/>
<feOffset dy="1"/>
<feGaussianBlur stdDeviation="2"/>
<feComposite in2="hardAlpha" operator="out"/>
<feColorMatrix type="matrix" values="0 0 0 0 0 0 0 0 0 0 0 0 0 0 0 0 0 0 0.25 0"/>
<feBlend mode="normal" in2="BackgroundImageFix" result="effect1_dropShadow_144_601"/>
<feBlend mode="normal" in="SourceGraphic" in2="effect1_dropShadow_144_601" result="shape"/>
</filter>
<clipPath id="clip0_144_601">
<rect width="20" height="20" fill="white" transform="translate(37 180)"/>
</clipPath>
<clipPath id="clip1_144_601">
<rect width="18" height="21" fill="white" transform="translate(38 96)"/>
</clipPath>
</defs>
</svg>
