<svg width="153" height="51" viewBox="0 0 153 51" fill="none" xmlns="http://www.w3.org/2000/svg">
<g filter="url(#filter0_d_144_600)">
<rect x="4" y="3" width="145" height="43" rx="21.5" fill="url(#paint0_linear_144_600)"/>
<rect x="4.5" y="3.5" width="144" height="42" rx="21" stroke="#D69300"/>
</g>
<path d="M28.6111 25.488C28.5211 24.741 28.2871 24.264 27.6391 24.03C28.4671 23.787 28.8901 23.265 28.8901 22.482C28.8901 21.384 28.1071 20.943 27.2071 20.835C26.8741 20.799 26.6221 20.79 26.2351 20.79H23.7691V27H25.3891V24.642H25.7491C25.9291 24.642 26.0821 24.642 26.2621 24.651C26.6761 24.678 26.9461 25.074 27.0271 25.758C27.0811 26.199 27.1711 26.559 27.3151 27H29.0791C28.8361 26.631 28.6921 26.19 28.6111 25.488ZM25.3891 23.472V22.05H26.0191C26.1901 22.05 26.3341 22.05 26.4511 22.059C26.8651 22.095 27.1981 22.239 27.1981 22.761C27.1981 23.283 26.8201 23.427 26.4061 23.463C26.2891 23.472 26.1451 23.472 25.9741 23.472H25.3891ZM34.4488 25.74H31.3078V24.516H34.1788V23.256H31.3078V22.05H34.3588V20.79H29.6878V27H34.4488V25.74ZM40.2779 22.05V20.79H34.6259V22.05H36.6419V27H38.2619V22.05H40.2779ZM46.0904 20.79H44.4704V24.57C44.4704 24.741 44.4704 24.831 44.4614 24.939C44.4164 25.587 44.0474 25.938 43.3364 25.938C42.6254 25.938 42.2564 25.587 42.2114 24.939C42.2024 24.831 42.2024 24.741 42.2024 24.57V20.79H40.5824V24.273C40.5824 24.588 40.5824 24.777 40.6094 25.146C40.6814 26.19 41.4194 27.126 43.3364 27.126C45.2534 27.126 45.9914 26.19 46.0634 25.146C46.0904 24.777 46.0904 24.588 46.0904 24.273V20.79ZM51.7764 25.488C51.6864 24.741 51.4524 24.264 50.8044 24.03C51.6324 23.787 52.0554 23.265 52.0554 22.482C52.0554 21.384 51.2724 20.943 50.3724 20.835C50.0394 20.799 49.7874 20.79 49.4004 20.79H46.9344V27H48.5544V24.642H48.9144C49.0944 24.642 49.2474 24.642 49.4274 24.651C49.8414 24.678 50.1114 25.074 50.1924 25.758C50.2464 26.199 50.3364 26.559 50.4804 27H52.2444C52.0014 26.631 51.8574 26.19 51.7764 25.488ZM48.5544 23.472V22.05H49.1844C49.3554 22.05 49.4994 22.05 49.6164 22.059C50.0304 22.095 50.3634 22.239 50.3634 22.761C50.3634 23.283 49.9854 23.427 49.5714 23.463C49.4544 23.472 49.3104 23.472 49.1394 23.472H48.5544ZM58.7931 27V20.79H57.1731V23.445C57.1731 23.805 57.1821 24.444 57.2271 25.074L54.8691 20.79H52.8531V27H54.4731V24.435C54.4731 24.075 54.4731 23.526 54.4191 22.896L56.6781 27H58.7931ZM66.2067 22.05V20.79H60.5547V22.05H62.5707V27H64.1907V22.05H66.2067ZM69.36 20.664C67.425 20.664 66.183 21.897 66.183 23.895C66.183 25.884 67.425 27.126 69.36 27.126C71.295 27.126 72.537 25.884 72.537 23.895C72.537 21.897 71.295 20.664 69.36 20.664ZM69.36 25.938C68.424 25.938 67.839 25.209 67.839 23.895C67.839 22.572 68.424 21.852 69.36 21.852C70.296 21.852 70.881 22.572 70.881 23.895C70.881 25.209 70.296 25.938 69.36 25.938ZM79.4209 25.74H76.2799V24.516H79.1509V23.256H76.2799V22.05H79.3309V20.79H74.6599V27H79.4209V25.74ZM84.0619 27H85.9519L83.7649 23.841L85.9339 20.79H84.0709L82.8109 22.86L81.6409 20.79H79.7509L81.8209 23.868L79.5979 27H81.5509L82.7569 24.903L84.0619 27ZM89.7391 20.835C89.4061 20.799 89.1541 20.79 88.7671 20.79H86.4271V27H88.0471V24.822H88.7671C89.1541 24.822 89.4061 24.813 89.7391 24.777C90.6391 24.669 91.4581 24.03 91.4581 22.806C91.4581 21.582 90.6391 20.943 89.7391 20.835ZM89.1091 23.553C88.9921 23.562 88.8481 23.562 88.6771 23.562H88.0471V22.05H88.6771C88.8481 22.05 88.9921 22.05 89.1091 22.059C89.5231 22.095 89.7661 22.338 89.7661 22.806C89.7661 23.274 89.5231 23.517 89.1091 23.553ZM96.7641 25.74H93.6231V24.516H96.4941V23.256H93.6231V22.05H96.6741V20.79H92.0031V27H96.7641V25.74ZM102.377 25.488C102.287 24.741 102.053 24.264 101.405 24.03C102.233 23.787 102.656 23.265 102.656 22.482C102.656 21.384 101.873 20.943 100.973 20.835C100.64 20.799 100.388 20.79 100.001 20.79H97.5351V27H99.1551V24.642H99.5151C99.6951 24.642 99.8481 24.642 100.028 24.651C100.442 24.678 100.712 25.074 100.793 25.758C100.847 26.199 100.937 26.559 101.081 27H102.845C102.602 26.631 102.458 26.19 102.377 25.488ZM99.1551 23.472V22.05H99.7851C99.9561 22.05 100.1 22.05 100.217 22.059C100.631 22.095 100.964 22.239 100.964 22.761C100.964 23.283 100.586 23.427 100.172 23.463C100.055 23.472 99.9111 23.472 99.7401 23.472H99.1551ZM105.074 27V20.79H103.454V27H105.074ZM110.829 25.74H107.688V24.516H110.559V23.256H107.688V22.05H110.739V20.79H106.068V27H110.829V25.74ZM117.54 27V20.79H115.92V23.445C115.92 23.805 115.929 24.444 115.974 25.074L113.616 20.79H111.6V27H113.22V24.435C113.22 24.075 113.22 23.526 113.166 22.896L115.425 27H117.54ZM121.365 20.664C119.682 20.664 118.296 21.78 118.296 23.94C118.296 26.046 119.637 27.126 121.302 27.126C122.859 27.126 124.002 26.361 124.155 24.867L124.164 24.777H122.544L122.526 24.867C122.391 25.551 121.986 25.938 121.356 25.938C120.636 25.938 119.988 25.407 119.988 23.841C119.988 22.5 120.573 21.852 121.347 21.852C122.004 21.852 122.409 22.167 122.544 22.833L122.562 22.923H124.182L124.173 22.833C124.047 21.609 123.138 20.664 121.365 20.664ZM129.684 25.74H126.543V24.516H129.414V23.256H126.543V22.05H129.594V20.79H124.923V27H129.684V25.74Z" fill="white"/>
<defs>
<filter id="filter0_d_144_600" x="0" y="0" width="153" height="51" filterUnits="userSpaceOnUse" color-interpolation-filters="sRGB">
<feFlood flood-opacity="0" result="BackgroundImageFix"/>
<feColorMatrix in="SourceAlpha" type="matrix" values="0 0 0 0 0 0 0 0 0 0 0 0 0 0 0 0 0 0 127 0" result="hardAlpha"/>
<feOffset dy="1"/>
<feGaussianBlur stdDeviation="2"/>
<feComposite in2="hardAlpha" operator="out"/>
<feColorMatrix type="matrix" values="0 0 0 0 0 0 0 0 0 0 0 0 0 0 0 0 0 0 0.25 0"/>
<feBlend mode="normal" in2="BackgroundImageFix" result="effect1_dropShadow_144_600"/>
<feBlend mode="normal" in="SourceGraphic" in2="effect1_dropShadow_144_600" result="shape"/>
</filter>
<linearGradient id="paint0_linear_144_600" x1="4" y1="24.0784" x2="149" y2="24.0784" gradientUnits="userSpaceOnUse">
<stop stop-color="#D2A444"/>
<stop offset="0.298728" stop-color="#D4A13D"/>
<stop offset="0.739583" stop-color="#EBBE4A"/>
<stop offset="1" stop-color="#CB9C45"/>
</linearGradient>
</defs>
</svg>
