<svg width="267" height="260" viewBox="0 0 267 260" fill="none" xmlns="http://www.w3.org/2000/svg">
<path d="M122.673 20.8644C122.673 20.8644 132.723 11.2382 142.912 21.2972" stroke="#FEDD94"/>
<path d="M129.535 31.7717C129.535 31.7717 132.532 32.7153 135.616 31.7717C135.616 31.7717 136.658 32.3863 135.703 33.1568C134.747 33.9272 131.403 33.5723 131.273 33.5896C131.142 33.6069 129.188 32.8971 129.188 32.8971C129.188 32.8971 128.554 31.9795 129.535 31.7717Z" stroke="#FEDD94"/>
<path d="M127.016 19.5659C127.016 19.5659 133.435 17.1767 138.309 19.739" stroke="#FEDD94"/>
<path d="M106.082 35.2344L106.256 18.2674L118.851 18.0943L118.764 16.7958" stroke="#FEDD94"/>
<path d="M158.895 35.4941L159.069 18.7002L146.474 18.4405L146.387 16.8823" stroke="#FEDD94"/>
<path d="M146.352 251.321C136.102 251.321 125.852 251.321 115.602 251.321C115.298 251.208 114.977 251.217 114.664 251.191C111.633 251.001 108.592 250.975 105.561 250.905C100.384 250.784 95.2239 250.473 90.0555 250.196C86.0423 249.979 82.0379 249.754 78.0247 249.503C75.4536 249.339 72.9084 249.01 70.3546 248.707C66.9669 248.3 63.5966 247.806 60.2089 247.408C57.9765 247.14 55.8396 246.594 53.8244 245.582C52.8254 245.08 52.0436 244.413 51.7309 243.296C51.6875 243.132 51.5659 242.993 51.4877 242.846C51.4877 241.695 51.4877 240.535 51.4877 239.383C51.8525 238.873 51.9915 238.189 52.5822 237.851C53.086 237.566 53.2076 237.15 53.1729 236.622C53.1468 236.31 53.1729 235.99 53.1729 235.67C53.1729 174.675 53.1729 113.672 53.1729 52.6775C53.1729 52.3052 53.1642 51.9243 53.1729 51.5521C53.1902 50.6085 53.3813 50.3921 54.3282 50.3055C55.1881 50.2276 56.0568 50.1584 56.9254 50.1324C60.426 50.0112 63.9267 49.89 67.4273 49.8035C71.1885 49.7082 74.9497 49.7255 78.7197 49.6303C84.305 49.4918 89.8904 49.5351 95.4845 49.4832C112.744 49.3273 129.996 49.3966 147.256 49.3966C151.104 49.3966 154.952 49.3879 158.809 49.5351C163.143 49.6996 167.486 49.7861 171.83 49.8987C175.877 50.0112 179.934 50.1237 183.982 50.2363C188.438 50.3575 192.894 50.4614 197.35 50.5999C200.851 50.7124 204.352 50.7643 207.852 50.8336C207.965 50.8336 208.087 50.8422 208.2 50.8509C209.946 50.9548 209.946 50.9548 209.954 52.738C210.041 81.5646 209.972 110.391 210.076 139.218C210.189 171.619 210.154 204.021 210.171 236.432C210.171 237.167 210.163 237.869 210.858 238.362C211.005 238.466 211.066 238.7 211.162 238.873C211.162 240.491 211.162 242.102 211.162 243.72C210.84 244.681 210.137 245.305 209.259 245.755C208.043 246.387 206.732 246.742 205.411 247.062C201.181 248.092 196.829 248.308 192.521 248.785C190.019 249.062 187.509 249.261 185.016 249.546C182.001 249.884 178.978 250.196 175.938 250.317C173.48 250.412 171.022 250.55 168.572 250.646C164.411 250.81 160.251 251.035 156.081 251.053C153.162 251.061 150.235 251.156 147.316 251.217C146.978 251.217 146.656 251.217 146.352 251.321ZM208.564 145.805C208.425 126.389 208.538 106.972 208.399 87.555C208.321 76.4745 208.365 65.394 208.356 54.3136C208.356 53.9413 208.365 53.5604 208.339 53.1882C208.295 52.6082 208.182 52.4697 207.609 52.4351C206.714 52.3745 205.82 52.3139 204.925 52.2966C200.964 52.236 196.994 52.0715 193.033 51.9676C188.603 51.8551 184.182 51.7252 179.752 51.6127C175.73 51.5088 171.708 51.3876 167.686 51.2751C163.169 51.1539 158.661 50.9375 154.144 50.9202C136.719 50.8596 119.285 50.7903 101.86 50.9894C94.5637 51.076 87.2671 50.9808 79.9792 51.1625C74.5936 51.2924 69.208 51.327 63.8311 51.4136C61.894 51.4482 59.957 51.5261 58.0199 51.604C57.1513 51.6387 56.2826 51.6993 55.4227 51.7685C54.8494 51.8118 54.7191 51.959 54.6843 52.513C54.6582 52.8852 54.6756 53.2661 54.6756 53.6383C54.6756 114.745 54.6756 175.861 54.6756 236.968C54.6756 237.375 54.6756 237.773 54.6669 238.18C54.6582 238.63 54.4932 238.985 54.0155 239.072C53.4943 239.167 53.3205 239.531 53.2163 239.972C53.0426 240.743 53.0599 241.513 53.2076 242.292C53.3727 243.123 53.807 243.677 54.5714 244.058C56.5606 245.062 58.6714 245.608 60.869 245.876C64.6911 246.343 68.5044 246.811 72.3178 247.33C76.0182 247.841 79.7447 248.057 83.4624 248.291C86.0858 248.456 88.7264 248.525 91.3497 248.707C92.505 248.785 93.6603 248.785 94.8156 248.88C97.7864 249.122 100.766 249.209 103.745 249.321C107.046 249.451 110.338 249.486 113.639 249.564C113.752 249.564 113.874 249.572 113.987 249.581C117.4 249.702 120.814 249.867 124.228 249.841C125.383 249.832 126.538 249.771 127.702 249.763C135.312 249.676 142.93 249.763 150.539 249.572C156.498 249.425 162.457 249.373 168.416 249.044C172.716 248.802 177.033 248.785 181.324 248.317C183.799 248.049 186.275 247.824 188.751 247.564C191.278 247.304 193.806 247.01 196.343 246.776C198.879 246.542 201.407 246.248 203.9 245.703C205.481 245.357 207.053 244.95 208.512 244.205C209.32 243.798 209.72 243.149 209.728 242.266C209.737 241.548 209.711 240.82 209.702 240.102C209.694 239.773 209.65 239.435 209.338 239.271C208.695 238.916 208.66 238.353 208.651 237.713C208.617 229.55 208.608 221.386 208.59 213.214C208.53 190.759 208.564 168.278 208.564 145.805Z" fill="#FEDD94"/>
<path d="M48.8036 50.747C48.8036 48.6954 48.8036 46.6524 48.8036 44.6008C48.821 44.3584 48.8557 44.1161 48.8557 43.8737C48.8818 41.9865 48.8383 40.0907 48.9339 38.2036C48.9513 37.8054 49.1337 37.6236 49.5072 37.5976C49.8112 37.5803 50.1152 37.5717 50.4193 37.5543C51.7309 37.4937 53.0513 37.4331 54.3629 37.3639C57.1339 37.2254 59.9135 37.0782 62.6845 36.9397C63.9875 36.8791 65.2817 36.8185 66.5847 36.7579C69.3904 36.6194 72.1875 36.4723 74.9932 36.3424C76.4091 36.2732 77.825 36.2212 79.2408 36.152C82.0726 36.0135 84.9044 35.8663 87.7362 35.7364C90.0207 35.6326 92.3052 35.5633 94.5898 35.4594C97.9427 35.3036 101.296 35.1218 104.649 35.1218C110.686 35.1305 116.723 35.0959 122.76 35.1911C126.46 35.2517 130.169 35.2084 133.878 35.2776C137.075 35.3296 140.272 35.3382 143.477 35.3729C147.082 35.4162 150.687 35.4767 154.283 35.5373C158.913 35.6066 163.543 35.6845 168.173 35.8057C171.221 35.8836 174.279 35.9182 177.328 36.0221C178.353 36.0567 179.378 36.0654 180.412 36.1087C183.964 36.2472 187.526 36.377 191.079 36.5155C193.12 36.5935 195.153 36.68 197.194 36.8012C199.982 36.9657 202.762 37.1215 205.55 37.3725C207.652 37.5543 209.754 37.7534 211.839 38.0737C212.23 38.1343 212.413 38.3161 212.413 38.7316C212.404 42.6964 212.404 46.6698 212.413 50.6345C212.413 50.8509 212.386 51.0327 212.204 51.1712C208.877 51.1712 205.542 51.1712 202.215 51.1712C202.041 51.1539 201.867 51.1279 201.693 51.1279C198.262 51.0933 194.831 51.1279 191.4 51.05C188.073 50.9721 184.746 51.0414 181.411 50.9634C178.058 50.8855 174.696 50.9548 171.334 50.8769C167.981 50.799 164.62 50.8682 161.258 50.7903C158.044 50.7211 154.83 50.7817 151.616 50.7037C148.463 50.6258 145.31 50.6951 142.148 50.6172C139.142 50.5393 136.128 50.5912 133.114 50.5306C129.249 50.4527 125.383 50.4614 121.518 50.4181C119.711 50.4008 117.895 50.3748 116.089 50.3575C111.65 50.3142 107.202 50.2103 102.764 50.1757C98.959 50.1497 95.1544 50.2536 91.3497 50.3055C87.2237 50.3661 83.0976 50.4267 78.9803 50.4873C75.5665 50.5393 72.1527 50.5999 68.7389 50.6518C65.7161 50.6951 62.6932 50.7297 59.6616 50.773C59.5053 50.773 59.3402 50.7817 59.1839 50.7817C55.9004 50.8596 52.6169 50.9461 49.3335 50.9461C49.125 50.9634 48.9339 50.9288 48.8036 50.747ZM157.775 49.6736C157.775 49.7342 157.775 49.7861 157.775 49.8467C158.73 49.8467 159.686 49.8381 160.641 49.8467C164.003 49.8727 167.356 49.8467 170.718 49.9246C174.062 50.0026 177.406 49.9333 180.75 50.0112C184.051 50.0891 187.352 50.0372 190.653 50.0891C194.605 50.1584 198.558 50.1237 202.51 50.193C205.307 50.2363 208.095 50.2276 210.892 50.2536C211.474 50.2623 211.474 50.2796 211.474 49.6996C211.474 46.436 211.474 43.1811 211.474 39.9176C211.474 39.0433 211.474 39.0433 210.588 38.9307C207.131 38.4633 203.657 38.2122 200.182 37.9872C197.481 37.8054 194.779 37.6755 192.078 37.5543C189.133 37.4158 186.179 37.312 183.235 37.2081C180.368 37.1042 177.51 37.0263 174.644 36.9484C170.97 36.8532 167.295 36.7493 163.621 36.6887C160.494 36.6367 157.367 36.5761 154.248 36.5155C150.096 36.4376 145.944 36.3857 141.783 36.3338C139.195 36.2991 136.597 36.3164 134.009 36.2558C130.534 36.1779 127.06 36.2212 123.585 36.1693C117.939 36.0914 112.293 36.152 106.647 36.0827C103.25 36.0394 99.8451 36.2299 96.4487 36.3857C93.0696 36.5415 89.6819 36.68 86.3029 36.8272C83.2366 36.9657 80.179 37.1128 77.1127 37.2514C74.1072 37.3899 71.1017 37.537 68.0962 37.6842C65.1601 37.8227 62.2328 37.9699 59.2968 38.117C56.3174 38.2642 53.3466 38.42 50.3671 38.5498C49.9849 38.5672 49.8807 38.7057 49.872 39.0692C49.846 42.4713 49.8025 45.8733 49.7591 49.2841C49.7504 49.9333 49.7765 49.9679 50.4453 49.9506C53.8417 49.89 57.2468 49.8381 60.6432 49.7775C64.0309 49.7169 67.4186 49.6649 70.7976 49.6043C74.6718 49.5438 78.5546 49.4832 82.4288 49.4226C86.1466 49.3706 89.8644 49.2841 93.5908 49.2754C97.3347 49.2581 101.087 49.1282 104.831 49.2235C108.479 49.3187 112.128 49.3533 115.776 49.3966C118.486 49.4312 121.188 49.4139 123.898 49.4745C126.895 49.5438 129.891 49.4918 132.888 49.5611C135.781 49.6303 138.682 49.613 141.575 49.639C146.978 49.7082 152.372 49.6736 157.775 49.6736Z" fill="#FEDD94"/>
<path d="M210.05 52.1927C207.001 52.1927 203.961 52.1927 200.912 52.1927C200.712 52.1148 200.512 52.1407 200.312 52.1407C198.167 52.0715 196.021 52.0109 193.876 51.933C191.105 51.8378 188.342 51.7166 185.571 51.6213C183.426 51.5434 181.28 51.4915 179.135 51.4136C175.599 51.2837 172.064 51.1452 168.529 51.0154C166.253 50.9288 163.986 50.8336 161.71 50.7643C159.252 50.6864 156.785 50.6258 154.318 50.5826C149.896 50.5133 145.475 50.6951 141.053 50.4873C138.899 50.3834 136.736 50.3834 134.582 50.3748C128.91 50.3488 123.246 50.4267 117.574 50.3315C113.474 50.2623 109.365 50.4181 105.265 50.47C100.592 50.5306 95.9275 50.6258 91.2629 50.747C89.3345 50.799 87.4061 50.8249 85.4777 50.9028C81.8468 51.05 78.2158 50.9548 74.5849 51.3184C72.0659 51.5694 69.5207 51.5002 66.9843 51.5261C64.7345 51.5521 62.4847 51.5261 60.2436 51.5261C57.4205 51.5261 54.5888 51.4655 51.7657 51.3443C50.9318 51.3097 50.0805 51.2924 49.2727 51.0327C48.5343 50.799 48.2824 50.496 48.2998 49.7515C48.3258 48.3665 48.1869 46.9814 48.2042 45.5877C48.2216 43.7784 48.0652 41.9779 48.1174 40.1686C48.1174 40.0388 48.0826 39.9089 48.0652 39.7877C48.0652 39.4415 48.0652 39.0952 48.0652 38.7489C48.1869 38.3161 48.239 37.8573 48.5864 37.5284C48.847 37.286 48.9078 37.0003 48.9078 36.6714C48.8991 32.6114 48.8991 28.5514 48.8991 24.4828C48.8991 23.6864 48.9252 22.89 48.9078 22.0936C48.8644 20.7778 49.9328 19.1417 51.4095 18.8387C51.7657 18.7695 52.1044 18.6396 52.4606 18.5877C53.6506 18.3972 54.8493 18.328 56.0394 18.2154C58.2631 17.999 60.4868 17.8865 62.7106 17.7307C64.5608 17.6008 66.411 17.4796 68.2612 17.3931C71.4144 17.2286 74.5675 17.0987 77.7207 16.9516C79.5101 16.865 81.3082 16.7784 83.0976 16.7005C86.0684 16.5793 89.0304 16.4495 92.0012 16.3456C94.0599 16.2764 96.1186 16.2417 98.1773 16.1811C100.653 16.1032 103.129 16.0773 105.613 15.9993C107.628 15.9388 109.643 15.9214 111.659 15.9214C121.127 15.9214 130.604 15.8002 140.072 15.982C142.826 16.034 145.579 16.0167 148.341 16.0599C151.573 16.1119 154.804 16.1465 158.044 16.2331C162.222 16.3456 166.392 16.3976 170.57 16.5187C172.464 16.5707 174.366 16.7005 176.26 16.8044C178.492 16.9256 180.716 17.0728 182.939 17.2026C184.738 17.3065 186.527 17.3931 188.325 17.4883C191.218 17.6528 194.11 17.8259 197.003 17.9904C198.158 18.0596 199.322 18.0596 200.477 18.1895C202.249 18.3972 204.03 18.5531 205.811 18.5617C207.409 18.5704 208.964 18.7262 210.484 19.2023C211.709 19.5918 212.586 20.3017 212.743 21.6521C212.838 22.4572 212.942 23.2623 212.942 24.0673C212.951 24.959 212.76 25.8592 212.803 26.7422C212.873 28.0926 212.664 29.4171 212.664 30.7675C212.664 32.8624 212.569 34.9573 212.534 37.0523C212.525 37.4678 212.473 37.9352 212.699 38.2815C213.116 38.9221 213.142 39.5973 213.142 40.3158C213.142 41.2074 213.116 42.1077 213.177 42.9993C213.212 43.5361 213.047 44.0901 213.055 44.6355C213.09 46.4274 212.977 48.2193 212.951 50.0112C212.934 51.1366 212.317 51.8551 211.214 52.0715C210.832 52.1321 210.441 52.1494 210.05 52.1927ZM49.3943 43.865C49.3769 46.0811 49.5419 47.7086 49.4811 49.3447C49.4724 49.6736 49.6114 49.864 49.9415 49.9073C50.3845 49.9679 50.8275 50.0372 51.2792 50.0718C53.6854 50.2363 56.0915 50.2796 58.4976 50.2623C64.2481 50.2276 70.0072 50.4354 75.7489 49.916C77.5036 49.7602 79.2843 49.7861 81.0563 49.7429C83.0108 49.6909 84.9739 49.639 86.9283 49.587C91.1499 49.4918 95.3629 49.3879 99.5845 49.3014C101.556 49.2581 103.528 49.2754 105.5 49.2408C108.227 49.1888 110.955 49.1023 113.683 49.1196C117.617 49.1455 121.544 49.1109 125.479 49.1282C130.96 49.1542 136.441 49.0417 141.922 49.3014C145.397 49.4658 148.88 49.2754 152.363 49.336C153.293 49.3533 154.222 49.3187 155.143 49.3447C159.764 49.4918 164.394 49.587 169.015 49.8121C171.404 49.9246 173.793 49.9939 176.19 50.0718C179.786 50.193 183.374 50.3142 186.97 50.4267C188.942 50.496 190.914 50.5566 192.885 50.6258C195.83 50.7297 198.766 50.8163 201.711 50.9548C203.448 51.0327 205.194 50.8509 206.923 50.9548C208.174 51.0327 209.407 50.9548 210.649 50.8682C211.483 50.8163 211.744 50.5479 211.761 49.6909C211.822 47.4142 211.839 45.1289 211.943 42.8522C211.987 41.9173 211.943 40.9737 211.952 40.0301C211.961 39.6839 211.891 39.3636 211.7 39.0866C211.414 38.671 211.344 38.2209 211.335 37.7275C211.292 35.3123 211.431 32.8971 211.44 30.4905C211.448 29.192 211.526 27.8935 211.579 26.6037C211.648 25.0282 211.726 23.4614 211.518 21.8945C211.44 21.3405 211.205 20.9163 210.675 20.6739C209.676 20.2065 208.625 19.9727 207.539 19.8602C206.21 19.7217 204.873 19.8429 203.544 19.7044C202.362 19.5832 201.181 19.5053 199.991 19.4274C198.375 19.3235 196.751 19.2456 195.127 19.1504C192.39 18.9859 189.663 18.8214 186.927 18.6569C185.12 18.5531 183.304 18.4751 181.497 18.3713C178.284 18.1808 175.078 17.9557 171.864 17.7999C169.189 17.6701 166.505 17.5835 163.821 17.5402C159.938 17.4796 156.046 17.3844 152.163 17.3065C149.123 17.2372 146.074 17.2459 143.034 17.2372C141.132 17.2286 139.238 17.1161 137.336 17.1161C127.92 17.1074 118.512 17.0468 109.096 17.194C107.811 17.2113 106.516 17.2113 105.231 17.2459C102.607 17.3152 99.984 17.3584 97.3607 17.445C95.4758 17.5143 93.5908 17.5489 91.7146 17.5922C89.3432 17.6528 86.9631 17.748 84.5917 17.8692C82.7588 17.9644 80.9173 18.0423 79.0758 18.1289C76.4004 18.2501 73.7163 18.3626 71.0409 18.4838C69.7639 18.5444 68.4957 18.605 67.2188 18.6742C65.3947 18.7781 63.5792 18.9599 61.7551 19.0032C61.1296 19.0205 60.5129 19.0638 59.8875 19.1071C58.2457 19.2369 56.5953 19.3668 54.9536 19.5226C53.7983 19.6351 52.643 19.7304 51.5398 20.1199C50.7233 20.4056 50.315 21.0288 50.1934 21.8339C50.1066 22.4139 50.1066 23.0112 50.1066 23.6085C50.0979 28.1013 50.0979 32.6027 50.1066 37.0955C50.1066 37.4678 50.0979 37.8487 49.7938 38.0997C49.3682 38.4633 49.3161 38.9134 49.3074 39.4242C49.2813 41.0949 49.3682 42.7743 49.3943 43.865Z" fill="#FEDD94"/>
<path d="M149.789 25.6539C149.706 25.8646 149.622 26.0753 149.539 26.2859C148.957 27.652 147.663 28.1819 146.074 28.3479C145.521 28.4053 144.969 28.4053 144.417 28.3606C143.637 28.2904 143.357 28.4628 143.183 29.1075C143.115 29.3565 142.949 29.465 142.669 29.4842C142.321 29.5097 141.965 29.5544 141.617 29.548C141.299 29.5416 141.186 29.6693 141.095 29.9055C140.807 30.6971 140.482 31.4823 140.194 32.2739C140.081 32.5867 139.877 32.7207 139.483 32.7016C138.931 32.6761 138.371 32.6888 137.818 32.6952C137.531 32.6952 137.38 32.5931 137.349 32.3441C137.281 31.7632 137.213 31.1823 136.994 30.6205C136.706 29.8736 136.184 29.4331 135.216 29.3757C133.664 29.2799 132.121 29.2927 130.57 29.3246C130.169 29.331 129.76 29.3693 129.359 29.3629C129.079 29.3565 128.958 29.4523 128.897 29.6757C128.633 30.6141 128.345 31.5525 128.065 32.4909C127.936 32.9123 127.884 32.9506 127.361 32.9442C126.832 32.9378 126.302 32.9314 125.772 32.9186C125.424 32.9123 125.235 32.7718 125.152 32.4718C124.917 31.6227 124.645 30.7801 124.41 29.931C124.335 29.6565 124.206 29.5353 123.851 29.548C123.434 29.5672 123.018 29.5353 122.602 29.5161C122.33 29.5033 122.178 29.3948 122.118 29.1522C121.921 28.3989 121.747 28.284 120.794 28.284C118.887 28.2777 117.245 27.7542 115.921 26.5604C115.641 26.3051 115.452 26.0306 115.429 25.6922C115.399 25.2007 115.353 24.6836 115.505 24.1857C115.769 23.3047 116.458 22.7366 117.419 22.3791C117.805 22.2386 118.213 22.1876 118.614 22.0854C122.98 22.0854 127.339 22.0854 131.705 22.0854C131.864 22.1429 132.03 22.1237 132.189 22.1237C136.759 22.1493 141.329 22.1046 145.9 22.1876C147.602 22.2195 149.252 23.209 149.789 24.5751C149.789 24.9326 149.789 25.2964 149.789 25.6539ZM120.181 22.8068C119.189 22.7621 118.213 22.8323 117.343 23.2856C116.011 23.9686 115.898 25.6986 117.116 26.4838C118.342 27.2754 119.757 27.6074 121.285 27.6074C122.14 27.6074 122.617 27.8882 122.89 28.5841C122.958 28.7692 123.064 28.8394 123.291 28.833C123.684 28.8267 124.07 28.8458 124.463 28.8586C124.857 28.8713 125.076 29.0309 125.167 29.3629C125.371 30.097 125.591 30.8312 125.818 31.5589C126.052 32.3186 125.871 32.1781 126.786 32.2228C127.112 32.2356 127.225 32.1271 127.293 31.8781C127.543 30.9907 127.815 30.1034 128.08 29.2161C128.209 28.782 128.36 28.6607 128.89 28.6479C130.978 28.6032 133.074 28.5266 135.163 28.6288C136.721 28.7054 137.425 29.2544 137.887 30.4928C138 30.7928 138.045 31.1184 138.106 31.4312C138.227 32.0121 138.22 31.9994 138.916 32.0121C139.203 32.0185 139.339 31.9355 139.423 31.6993C139.703 30.9269 140.005 30.1609 140.308 29.3948C140.489 28.9352 140.626 28.8522 141.208 28.8267C141.496 28.8139 141.783 28.782 142.071 28.7692C142.207 28.7628 142.29 28.7245 142.358 28.6096C142.835 27.767 143.365 27.5116 144.507 27.6329C144.992 27.684 145.461 27.6776 145.937 27.6137C147.33 27.4286 148.404 26.9243 148.813 25.6795C149.032 25.0092 148.904 24.4091 148.336 23.9367C147.564 23.2983 146.618 22.8834 145.506 22.8706C141.549 22.8387 137.591 22.8579 133.627 22.8132C129.155 22.7749 124.668 22.8068 120.181 22.8068Z" fill="#FEDD94"/>
<path d="M146.863 27.9758V35.5432" stroke="#FEDD94"/>
<path d="M119.039 27.9758V35.5432" stroke="#FEDD94"/>
<path d="M118.938 18.1808L119.039 22.09" stroke="#FEDD94"/>
<path d="M146.441 22.5104V18.7267" stroke="#FEDD94"/>
<path d="M74.2896 112.451L74.7239 81.9801L105.908 111.586L106.516 80.8547" stroke="#FEDD94" stroke-width="3" stroke-miterlimit="10"/>
<path d="M155.238 112.451L155.673 81.9801L186.857 111.586L187.465 80.8547" stroke="#FEDD94" stroke-width="3" stroke-miterlimit="10"/>
<path d="M114.681 112.711L131.012 81.5473L146.734 112.971" stroke="#FEDD94" stroke-width="3" stroke-miterlimit="10"/>
<path d="M120.154 102.756L141.088 103.016" stroke="#FEDD94" stroke-width="2" stroke-miterlimit="10"/>
<path d="M30 2H2V30" stroke="#FEDD94" stroke-width="3"/>
<path d="M237 258L265 258L265 230" stroke="#FEDD94" stroke-width="3"/>
<path d="M237 2H265V30" stroke="#FEDD94" stroke-width="3"/>
<path d="M30 258L2 258L2 230" stroke="#FEDD94" stroke-width="3"/>
</svg>
