<svg width="259" height="60" viewBox="0 0 259 60" fill="none" xmlns="http://www.w3.org/2000/svg">
<g filter="url(#filter0_b_0_794)">
<rect width="259" height="60" rx="12" fill="#D9D9D9" fill-opacity="0.2"/>
</g>
<g filter="url(#filter1_d_0_794)">
<path d="M29.0908 11.9V8.82H15.2748V11.9H20.2028V24H24.1628V11.9H29.0908ZM36.1033 24H39.9753C39.7993 22.702 39.7553 21.91 39.7553 21.03V17.73C39.7553 17.004 39.7333 16.322 39.6893 15.728C39.5133 13.594 38.2373 11.944 34.5193 11.944C31.5493 11.944 29.1073 13.506 29.0853 16.256L32.8253 16.234C32.8913 15.222 33.4193 14.628 34.3433 14.628C35.2013 14.628 35.6853 15.156 35.7513 15.75C35.7953 16.124 35.7953 16.366 35.7953 16.608V16.784H35.0473C31.0653 16.784 28.6893 18.324 28.6893 20.832C28.6893 23.098 30.5153 24.308 32.4513 24.308C33.5293 24.308 34.5193 24.044 35.3553 23.516L35.8393 22.284L36.1033 24ZM34.0793 21.624C33.2873 21.624 32.7373 21.228 32.7373 20.524C32.7373 19.358 34.0133 18.896 35.7953 19.028V19.798C35.7953 21.03 34.8713 21.624 34.0793 21.624ZM49.9614 11.944C48.7734 11.944 47.6294 12.186 46.9694 12.67L46.0894 13.968V12.252H42.1294V28.312H46.0894V22.482L46.8594 23.736C47.4534 24.088 48.5974 24.308 49.5654 24.308C52.5794 24.308 55.1314 22.042 55.1314 17.862C55.1314 14.386 53.1514 11.944 49.9614 11.944ZM48.4874 21.624C47.2994 21.624 46.0894 20.832 46.0894 18.478V17.972C46.0894 15.508 47.1454 14.628 48.5974 14.628C49.9834 14.628 51.0834 15.86 51.0834 18.06C51.0834 20.458 50.0274 21.624 48.4874 21.624ZM72.5274 15.134C72.2194 13.088 70.7894 11.944 68.3694 11.944C67.2914 11.944 66.4554 12.186 65.7294 12.626L64.6734 14.078V7.72H60.7134V24H64.6734V18.456C64.6734 15.794 65.5314 14.628 66.7414 14.628C67.9294 14.628 68.5454 15.288 68.6334 16.41C68.6774 17.004 68.6774 17.642 68.6774 18.016V24H72.6374V17.356C72.6374 16.41 72.6154 15.728 72.5274 15.134ZM86.3776 17.972C86.3776 14.936 84.3976 11.944 80.4816 11.944C76.5656 11.944 74.2116 14.738 74.2116 18.17C74.2116 22.306 76.8956 24.308 80.2616 24.308C83.2756 24.308 85.4756 22.812 86.1576 20.15H82.2636C82.1096 21.052 81.4276 21.624 80.3056 21.624C79.1836 21.624 78.3256 21.074 78.1276 19.116H86.3116C86.3556 18.72 86.3776 18.324 86.3776 17.972ZM80.2836 14.628C81.3396 14.628 82.0216 15.31 82.2416 16.696H78.2596C78.5236 15.244 79.2496 14.628 80.2836 14.628ZM95.1905 11.944C94.4425 11.944 93.5185 12.274 92.8805 12.978L92.0445 14.628V12.252H88.0845V24H92.0445V19.688C92.0445 16.146 93.1225 15.046 96.0925 15.244V12.01C95.8065 11.966 95.5645 11.944 95.1905 11.944ZM108.829 17.972C108.829 14.936 106.849 11.944 102.933 11.944C99.0168 11.944 96.6628 14.738 96.6628 18.17C96.6628 22.306 99.3468 24.308 102.713 24.308C105.727 24.308 107.927 22.812 108.609 20.15H104.715C104.561 21.052 103.879 21.624 102.757 21.624C101.635 21.624 100.777 21.074 100.579 19.116H108.763C108.807 18.72 108.829 18.324 108.829 17.972ZM102.735 14.628C103.791 14.628 104.473 15.31 104.693 16.696H100.711C100.975 15.244 101.701 14.628 102.735 14.628ZM123.022 14.804H125.618V12.34H123.022V9.304H119.062V12.34H117.192V14.804H119.062V19.71C119.062 20.37 119.062 20.92 119.106 21.602C119.238 23.406 120.118 24.308 123.044 24.308C123.88 24.308 124.606 24.242 125.376 24.11V21.646C123.506 21.734 123.132 21.47 123.044 20.282C123.022 19.974 123.022 19.534 123.022 19.138V14.804ZM132.604 11.944C128.754 11.944 126.29 14.342 126.29 18.126C126.29 21.888 128.754 24.308 132.604 24.308C136.454 24.308 138.918 21.888 138.918 18.126C138.918 14.342 136.454 11.944 132.604 11.944ZM132.604 21.624C131.196 21.624 130.338 20.458 130.338 18.126C130.338 15.772 131.196 14.628 132.604 14.628C134.012 14.628 134.87 15.772 134.87 18.126C134.87 20.458 134.012 21.624 132.604 21.624ZM152.334 11.944C151.146 11.944 150.002 12.186 149.342 12.67L148.462 13.968V12.252H144.502V28.312H148.462V22.482L149.232 23.736C149.826 24.088 150.97 24.308 151.938 24.308C154.952 24.308 157.504 22.042 157.504 17.862C157.504 14.386 155.524 11.944 152.334 11.944ZM150.86 21.624C149.672 21.624 148.462 20.832 148.462 18.478V17.972C148.462 15.508 149.518 14.628 150.97 14.628C152.356 14.628 153.456 15.86 153.456 18.06C153.456 20.458 152.4 21.624 150.86 21.624ZM163.091 7.83H159.131V19.842C159.131 20.722 159.131 21.316 159.175 21.932C159.263 23.494 160.297 24.22 162.123 24.22C163.003 24.22 163.707 24.176 164.433 24.11V21.426C163.399 21.47 163.201 21.316 163.135 20.854C163.091 20.568 163.091 20.326 163.091 19.776V7.83ZM173.023 24H176.895C176.719 22.702 176.675 21.91 176.675 21.03V17.73C176.675 17.004 176.653 16.322 176.609 15.728C176.433 13.594 175.157 11.944 171.439 11.944C168.469 11.944 166.027 13.506 166.005 16.256L169.745 16.234C169.811 15.222 170.339 14.628 171.263 14.628C172.121 14.628 172.605 15.156 172.671 15.75C172.715 16.124 172.715 16.366 172.715 16.608V16.784H171.967C167.985 16.784 165.609 18.324 165.609 20.832C165.609 23.098 167.435 24.308 169.371 24.308C170.449 24.308 171.439 24.044 172.275 23.516L172.759 22.284L173.023 24ZM170.999 21.624C170.207 21.624 169.657 21.228 169.657 20.524C169.657 19.358 170.933 18.896 172.715 19.028V19.798C172.715 21.03 171.791 21.624 170.999 21.624ZM184.571 11.944C181.117 11.944 178.389 14.21 178.389 18.258C178.389 22.13 180.941 24.308 184.307 24.308C187.497 24.308 189.851 22.724 190.291 19.688H186.397C186.177 20.964 185.429 21.624 184.527 21.624C183.185 21.624 182.437 20.524 182.437 18.016C182.437 15.75 183.163 14.628 184.483 14.628C185.473 14.628 186.243 15.2 186.419 16.74H190.247C190.137 14.1 188.025 11.944 184.571 11.944ZM203.467 17.972C203.467 14.936 201.487 11.944 197.571 11.944C193.655 11.944 191.301 14.738 191.301 18.17C191.301 22.306 193.985 24.308 197.351 24.308C200.365 24.308 202.565 22.812 203.247 20.15H199.353C199.199 21.052 198.517 21.624 197.395 21.624C196.273 21.624 195.415 21.074 195.217 19.116H203.401C203.445 18.72 203.467 18.324 203.467 17.972ZM197.373 14.628C198.429 14.628 199.111 15.31 199.331 16.696H195.349C195.613 15.244 196.339 14.628 197.373 14.628ZM213.794 14.804H216.39V12.34H213.794V9.304H209.834V12.34H207.964V14.804H209.834V19.71C209.834 20.37 209.834 20.92 209.878 21.602C210.01 23.406 210.89 24.308 213.816 24.308C214.652 24.308 215.378 24.242 216.148 24.11V21.646C214.278 21.734 213.904 21.47 213.816 20.282C213.794 19.974 213.794 19.534 213.794 19.138V14.804ZM229.664 15.134C229.356 13.088 227.926 11.944 225.506 11.944C224.428 11.944 223.592 12.186 222.866 12.626L221.81 14.078V7.72H217.85V24H221.81V18.456C221.81 15.794 222.668 14.628 223.878 14.628C225.066 14.628 225.682 15.288 225.77 16.41C225.814 17.004 225.814 17.642 225.814 18.016V24H229.774V17.356C229.774 16.41 229.752 15.728 229.664 15.134ZM243.514 17.972C243.514 14.936 241.534 11.944 237.618 11.944C233.702 11.944 231.348 14.738 231.348 18.17C231.348 22.306 234.032 24.308 237.398 24.308C240.412 24.308 242.612 22.812 243.294 20.15H239.4C239.246 21.052 238.564 21.624 237.442 21.624C236.32 21.624 235.462 21.074 235.264 19.116H243.448C243.492 18.72 243.514 18.324 243.514 17.972ZM237.42 14.628C238.476 14.628 239.158 15.31 239.378 16.696H235.396C235.66 15.244 236.386 14.628 237.42 14.628ZM112.415 34.93C111.601 34.842 110.985 34.82 110.039 34.82H104.319V50H108.279V44.676H110.039C110.985 44.676 111.601 44.654 112.415 44.566C114.615 44.302 116.617 42.74 116.617 39.748C116.617 36.756 114.615 35.194 112.415 34.93ZM110.875 41.574C110.589 41.596 110.237 41.596 109.819 41.596H108.279V37.9H109.819C110.237 37.9 110.589 37.9 110.875 37.922C111.887 38.01 112.481 38.604 112.481 39.748C112.481 40.892 111.887 41.486 110.875 41.574ZM124.791 50H128.663C128.487 48.702 128.443 47.91 128.443 47.03V43.73C128.443 43.004 128.421 42.322 128.377 41.728C128.201 39.594 126.925 37.944 123.207 37.944C120.237 37.944 117.795 39.506 117.773 42.256L121.513 42.234C121.579 41.222 122.107 40.628 123.031 40.628C123.889 40.628 124.373 41.156 124.439 41.75C124.483 42.124 124.483 42.366 124.483 42.608V42.784H123.735C119.753 42.784 117.377 44.324 117.377 46.832C117.377 49.098 119.203 50.308 121.139 50.308C122.217 50.308 123.207 50.044 124.043 49.516L124.527 48.284L124.791 50ZM122.767 47.624C121.975 47.624 121.425 47.228 121.425 46.524C121.425 45.358 122.701 44.896 124.483 45.028V45.798C124.483 47.03 123.559 47.624 122.767 47.624ZM136.339 37.944C132.885 37.944 130.157 40.21 130.157 44.258C130.157 48.13 132.709 50.308 136.075 50.308C139.265 50.308 141.619 48.724 142.059 45.688H138.165C137.945 46.964 137.197 47.624 136.295 47.624C134.953 47.624 134.205 46.524 134.205 44.016C134.205 41.75 134.931 40.628 136.251 40.628C137.241 40.628 138.011 41.2 138.187 42.74H142.015C141.905 40.1 139.793 37.944 136.339 37.944ZM148.525 45.644L151.671 50H156.533L151.495 43.642L156.467 38.252H151.825L147.689 43.18V33.83H143.729V50H147.689V46.568L148.525 45.644Z" fill="url(#paint0_linear_0_794)"/>
</g>
<defs>
<filter id="filter0_b_0_794" x="-18" y="-18" width="295" height="96" filterUnits="userSpaceOnUse" color-interpolation-filters="sRGB">
<feFlood flood-opacity="0" result="BackgroundImageFix"/>
<feGaussianBlur in="BackgroundImageFix" stdDeviation="9"/>
<feComposite in2="SourceAlpha" operator="in" result="effect1_backgroundBlur_0_794"/>
<feBlend mode="normal" in="SourceGraphic" in2="effect1_backgroundBlur_0_794" result="shape"/>
</filter>
<filter id="filter1_d_0_794" x="13.2748" y="7.72" width="232.24" height="46.588" filterUnits="userSpaceOnUse" color-interpolation-filters="sRGB">
<feFlood flood-opacity="0" result="BackgroundImageFix"/>
<feColorMatrix in="SourceAlpha" type="matrix" values="0 0 0 0 0 0 0 0 0 0 0 0 0 0 0 0 0 0 127 0" result="hardAlpha"/>
<feOffset dy="2"/>
<feGaussianBlur stdDeviation="1"/>
<feComposite in2="hardAlpha" operator="out"/>
<feColorMatrix type="matrix" values="0 0 0 0 0 0 0 0 0 0 0 0 0 0 0 0 0 0 0.25 0"/>
<feBlend mode="normal" in2="BackgroundImageFix" result="effect1_dropShadow_0_794"/>
<feBlend mode="normal" in="SourceGraphic" in2="effect1_dropShadow_0_794" result="shape"/>
</filter>
<linearGradient id="paint0_linear_0_794" x1="51.1359" y1="29" x2="212.845" y2="29" gradientUnits="userSpaceOnUse">
<stop stop-color="#FFCC66"/>
<stop offset="1" stop-color="#FFCC99"/>
</linearGradient>
</defs>
</svg>
