<svg width="290" height="145" viewBox="0 0 290 145" fill="none" xmlns="http://www.w3.org/2000/svg">
<path d="M50 1.5H288.5V95C288.5 121.786 266.786 143.5 240 143.5H1.5V50C1.5 23.2142 23.2142 1.5 50 1.5Z" fill="#FFEAC6" stroke="#976925" stroke-width="3"/>
<path d="M95.9668 112.184C95.804 112.828 95.5241 113.323 95.127 113.668C94.7298 114.007 94.2285 114.176 93.623 114.176C93.0046 114.176 92.5228 114.013 92.1777 113.688C91.8392 113.362 91.582 112.812 91.4062 112.037L89.043 101.754C89.0299 101.676 89.0202 101.591 89.0137 101.5C89.0072 101.402 89.0039 101.249 89.0039 101.041C89.0039 100.598 89.1536 100.243 89.4531 99.9766C89.7591 99.7096 90.1562 99.5762 90.6445 99.5762C91.0612 99.5762 91.4062 99.6999 91.6797 99.9473C91.9531 100.195 92.1289 100.546 92.207 101.002L93.9062 110.035L96.2695 100.963C96.3867 100.507 96.5951 100.165 96.8945 99.9375C97.2005 99.7096 97.5911 99.5957 98.0664 99.5957C98.5286 99.5957 98.9062 99.7129 99.1992 99.9473C99.4987 100.182 99.707 100.533 99.8242 101.002L102.148 110.035L103.848 101.217C103.958 100.644 104.141 100.23 104.395 99.9766C104.655 99.7227 105.02 99.5957 105.488 99.5957C105.957 99.5957 106.341 99.7389 106.641 100.025C106.94 100.305 107.09 100.663 107.09 101.1C107.09 101.243 107.077 101.399 107.051 101.568C107.031 101.731 107.002 101.894 106.963 102.057L104.482 112.037C104.274 112.896 104.01 113.469 103.691 113.756C103.372 114.036 102.891 114.176 102.246 114.176C101.66 114.176 101.191 114.029 100.84 113.736C100.495 113.443 100.244 112.984 100.088 112.359L97.9688 104.244L95.9668 112.184ZM114.307 113.043C113.988 113.434 113.6 113.733 113.145 113.941C112.695 114.143 112.204 114.244 111.67 114.244C110.322 114.244 109.186 113.714 108.262 112.652C107.344 111.591 106.885 110.266 106.885 108.678C106.885 107.109 107.36 105.787 108.311 104.713C109.261 103.639 110.42 103.102 111.787 103.102C112.321 103.102 112.793 103.193 113.203 103.375C113.62 103.557 113.988 103.84 114.307 104.225C114.489 103.893 114.707 103.642 114.961 103.473C115.215 103.303 115.498 103.219 115.811 103.219C116.338 103.219 116.729 103.404 116.982 103.775C117.236 104.146 117.363 104.723 117.363 105.504V111.842C117.363 112.617 117.233 113.193 116.973 113.57C116.719 113.948 116.331 114.137 115.811 114.137C115.459 114.137 115.163 114.049 114.922 113.873C114.681 113.697 114.476 113.421 114.307 113.043ZM110.146 108.639C110.146 109.413 110.335 110.038 110.713 110.514C111.09 110.982 111.582 111.217 112.188 111.217C112.78 111.217 113.265 110.979 113.643 110.504C114.02 110.022 114.209 109.4 114.209 108.639C114.209 107.896 114.017 107.291 113.633 106.822C113.255 106.354 112.773 106.119 112.188 106.119C111.589 106.119 111.097 106.354 110.713 106.822C110.335 107.285 110.146 107.89 110.146 108.639ZM120.195 106.256H120.078C119.525 106.256 119.089 106.135 118.77 105.895C118.457 105.647 118.301 105.315 118.301 104.898C118.301 104.469 118.457 104.137 118.77 103.902C119.089 103.668 119.564 103.535 120.195 103.502V102.115C120.195 101.34 120.326 100.764 120.586 100.387C120.846 100.009 121.243 99.8203 121.777 99.8203C122.305 99.8203 122.695 100.009 122.949 100.387C123.21 100.764 123.34 101.34 123.34 102.115V103.502H123.613C124.238 103.502 124.723 103.626 125.068 103.873C125.42 104.12 125.596 104.462 125.596 104.898C125.596 105.348 125.426 105.686 125.088 105.914C124.756 106.142 124.258 106.256 123.594 106.256H123.34V111.842C123.34 112.623 123.213 113.202 122.959 113.58C122.705 113.951 122.311 114.137 121.777 114.137C121.243 114.137 120.846 113.948 120.586 113.57C120.326 113.193 120.195 112.617 120.195 111.842V106.256ZM125.596 108.678C125.596 107.018 126.094 105.67 127.09 104.635C128.086 103.6 129.395 103.082 131.016 103.082C132.064 103.082 132.913 103.271 133.564 103.648C134.215 104.02 134.541 104.505 134.541 105.104C134.541 105.488 134.417 105.807 134.17 106.061C133.923 106.314 133.61 106.441 133.232 106.441C133.07 106.441 132.741 106.363 132.246 106.207C131.751 106.044 131.341 105.963 131.016 105.963C130.365 105.963 129.837 106.207 129.434 106.695C129.036 107.184 128.838 107.825 128.838 108.619C128.838 109.446 129.043 110.097 129.453 110.572C129.863 111.041 130.423 111.275 131.133 111.275C131.478 111.275 131.888 111.197 132.363 111.041C132.845 110.878 133.158 110.797 133.301 110.797C133.646 110.797 133.936 110.93 134.17 111.197C134.404 111.458 134.521 111.78 134.521 112.164C134.521 112.743 134.167 113.238 133.457 113.648C132.747 114.059 131.868 114.264 130.82 114.264C129.271 114.264 128.011 113.749 127.041 112.721C126.077 111.686 125.596 110.338 125.596 108.678ZM138.887 104.156C139.225 103.805 139.603 103.551 140.02 103.395C140.436 103.238 140.96 103.16 141.592 103.16C142.835 103.16 143.786 103.515 144.443 104.225C145.101 104.934 145.43 105.966 145.43 107.32V111.842C145.43 112.617 145.299 113.193 145.039 113.57C144.779 113.948 144.382 114.137 143.848 114.137C143.314 114.137 142.917 113.948 142.656 113.57C142.396 113.193 142.266 112.617 142.266 111.842V108.277C142.266 107.398 142.132 106.773 141.865 106.402C141.605 106.025 141.172 105.836 140.566 105.836C139.993 105.836 139.57 106.031 139.297 106.422C139.023 106.806 138.887 107.411 138.887 108.238V111.842C138.887 112.617 138.757 113.193 138.496 113.57C138.236 113.948 137.839 114.137 137.305 114.137C136.771 114.137 136.374 113.948 136.113 113.57C135.859 113.193 135.732 112.617 135.732 111.842V101.041C135.732 100.26 135.859 99.6803 136.113 99.3027C136.374 98.9251 136.771 98.7363 137.305 98.7363C137.839 98.7363 138.236 98.9284 138.496 99.3125C138.757 99.6966 138.887 100.273 138.887 101.041V104.156ZM153.848 100.562C153.848 100.061 154.027 99.6315 154.385 99.2734C154.743 98.9154 155.173 98.7363 155.674 98.7363C156.169 98.7363 156.592 98.9154 156.943 99.2734C157.295 99.6315 157.471 100.061 157.471 100.562C157.471 101.07 157.295 101.5 156.943 101.852C156.598 102.203 156.175 102.379 155.674 102.379C155.16 102.379 154.727 102.203 154.375 101.852C154.023 101.5 153.848 101.07 153.848 100.562ZM157.227 111.842C157.227 112.623 157.1 113.202 156.846 113.58C156.592 113.951 156.201 114.137 155.674 114.137C155.14 114.137 154.743 113.948 154.482 113.57C154.222 113.193 154.092 112.617 154.092 111.842V105.504C154.092 104.729 154.219 104.156 154.473 103.785C154.733 103.408 155.133 103.219 155.674 103.219C156.201 103.219 156.592 103.408 156.846 103.785C157.1 104.156 157.227 104.729 157.227 105.504V111.842ZM159.502 111.842V105.504C159.502 104.729 159.629 104.156 159.883 103.785C160.143 103.408 160.54 103.219 161.074 103.219C161.393 103.219 161.676 103.303 161.924 103.473C162.171 103.635 162.389 103.886 162.578 104.225C162.917 103.854 163.307 103.583 163.75 103.414C164.193 103.245 164.73 103.16 165.361 103.16C166.605 103.16 167.555 103.515 168.213 104.225C168.87 104.934 169.199 105.966 169.199 107.32V111.842C169.199 112.617 169.069 113.193 168.809 113.57C168.548 113.948 168.151 114.137 167.617 114.137C167.083 114.137 166.686 113.948 166.426 113.57C166.165 113.193 166.035 112.617 166.035 111.842V108.277C166.035 107.398 165.902 106.773 165.635 106.402C165.374 106.025 164.941 105.836 164.336 105.836C163.763 105.836 163.34 106.031 163.066 106.422C162.793 106.806 162.656 107.411 162.656 108.238V111.842C162.656 112.617 162.526 113.193 162.266 113.57C162.005 113.948 161.608 114.137 161.074 114.137C160.54 114.137 160.143 113.948 159.883 113.57C159.629 113.193 159.502 112.617 159.502 111.842ZM180.264 111.324L179.775 112.76C179.619 113.235 179.408 113.6 179.141 113.854C178.88 114.101 178.574 114.225 178.223 114.225C177.773 114.225 177.402 114.078 177.109 113.785C176.823 113.486 176.68 113.111 176.68 112.662C176.68 112.48 176.693 112.311 176.719 112.154C176.745 111.998 176.784 111.855 176.836 111.725L180.537 101.676C180.804 100.953 181.136 100.423 181.533 100.084C181.937 99.7454 182.432 99.5762 183.018 99.5762C183.571 99.5762 184.049 99.7389 184.453 100.064C184.863 100.383 185.179 100.849 185.4 101.461L189.004 111.676C189.076 111.891 189.128 112.083 189.16 112.252C189.199 112.421 189.219 112.571 189.219 112.701C189.219 113.15 189.069 113.518 188.77 113.805C188.47 114.085 188.086 114.225 187.617 114.225C187.201 114.225 186.852 114.094 186.572 113.834C186.299 113.574 186.081 113.176 185.918 112.643L185.518 111.324H180.264ZM181.182 108.336H184.58L182.939 103.062L181.182 108.336ZM193.682 108.385V111.881C193.682 112.656 193.548 113.232 193.281 113.609C193.014 113.987 192.607 114.176 192.061 114.176C191.514 114.176 191.107 113.987 190.84 113.609C190.573 113.232 190.439 112.656 190.439 111.881V102.057C190.439 101.191 190.605 100.595 190.938 100.27C191.27 99.944 191.849 99.7812 192.676 99.7812H195.195C196.882 99.7812 198.206 100.182 199.17 100.982C200.133 101.777 200.615 102.857 200.615 104.225C200.615 105.24 200.312 106.09 199.707 106.773C199.108 107.451 198.278 107.88 197.217 108.062L199.775 110.904C200.101 111.262 200.342 111.598 200.498 111.91C200.661 112.216 200.742 112.499 200.742 112.76C200.742 113.189 200.596 113.551 200.303 113.844C200.01 114.137 199.642 114.283 199.199 114.283C198.913 114.283 198.636 114.195 198.369 114.02C198.109 113.844 197.806 113.544 197.461 113.121L193.682 108.385ZM193.682 106.217H195.176C195.833 106.217 196.341 106.064 196.699 105.758C197.057 105.452 197.236 105.019 197.236 104.459C197.236 103.919 197.061 103.502 196.709 103.209C196.357 102.91 195.859 102.76 195.215 102.76H193.682V106.217Z" fill="#0033A1"/>
<path d="M163.8 51.6363C163.8 54.8942 163.78 58.1561 163.814 61.412C163.841 61.7809 163.757 62.1495 163.571 62.4705C163.385 62.7915 163.106 63.0503 162.77 63.2138C157.071 66.4487 151.379 69.6934 145.692 72.948C144.912 73.3965 144.244 73.4084 143.46 72.9579C137.779 69.698 132.086 66.454 126.382 63.2257C125.594 62.7812 125.282 62.1964 125.286 61.3033C125.31 54.8336 125.31 48.3646 125.286 41.8962C125.286 40.9597 125.644 40.3868 126.446 39.9324C132.126 36.7186 137.796 33.4857 143.456 30.2337C144.212 29.7991 144.856 29.7813 145.622 30.2179C151.283 33.466 156.955 36.6969 162.636 39.9106C163.462 40.3789 163.836 40.9597 163.822 41.9318C163.772 45.166 163.8 48.4002 163.8 51.6363ZM159.424 41.4616C159.234 41.3312 159.156 41.264 159.072 41.2225C154.405 38.5553 149.739 35.8849 145.072 33.2111C144.578 32.9266 144.24 33.1084 143.84 33.3375C139.732 35.6873 135.623 38.0324 131.514 40.3729C130.914 40.7088 130.34 41.0565 129.714 41.422C129.796 41.4925 129.881 41.5585 129.97 41.6196C134.657 44.3013 139.349 46.9823 144.048 49.6626C144.198 49.7678 144.377 49.8243 144.561 49.8243C144.745 49.8243 144.924 49.7678 145.074 49.6626C147.228 48.416 149.396 47.193 151.56 45.9582L159.424 41.4616ZM160.888 52.5254C160.888 49.9359 160.888 47.3451 160.888 44.753C160.888 43.9628 160.874 43.9628 160.18 44.3579C155.68 46.9263 151.18 49.4947 146.676 52.0374C146.466 52.1384 146.291 52.3006 146.177 52.5023C146.063 52.704 146.013 52.9354 146.036 53.1655C146.048 58.2726 146.036 63.3818 146.036 68.4889C146.036 69.3523 146.088 69.3819 146.848 68.9492C151.328 66.3986 155.8 63.8381 160.286 61.3033C160.485 61.2071 160.649 61.0531 160.756 60.862C160.863 60.6709 160.909 60.4519 160.886 60.2345C160.88 57.6661 160.89 55.0997 160.89 52.5333L160.888 52.5254ZM143.054 60.8529C143.054 58.2845 143.054 55.7161 143.054 53.1477C143.054 52.6637 142.944 52.3239 142.476 52.0591C137.943 49.4947 133.419 46.9158 128.904 44.3223C128.4 44.0319 128.2 44.022 128.2 44.7076C128.22 49.8694 128.22 55.0306 128.2 60.191C128.2 60.7679 128.426 61.0801 128.914 61.3547C133.358 63.8717 137.796 66.4 142.228 68.9394C143 69.378 143.044 69.3543 143.046 68.4909C143.057 65.9462 143.06 63.4028 143.056 60.8608L143.054 60.8529Z" fill="#0033A1"/>
<path d="M173.298 70.3124C173.298 68.6825 173.298 67.0545 173.298 65.4246C173.298 64.4012 173.824 63.7571 174.662 63.7216C175.5 63.686 176.174 64.3281 176.194 65.3752C176.23 67.2738 176.228 69.1764 176.194 71.0751C176.172 72.9006 176.29 74.7261 176.096 76.5477C175.756 79.7246 173.026 82.5024 169.812 82.7513C166.024 83.0437 162.222 82.8422 158.428 82.8482C157.412 82.8482 156.788 82.1962 156.812 81.3605C156.836 80.5248 157.49 79.9992 158.52 79.9992C161.818 79.9992 165.12 79.9992 168.414 79.9992C170.798 79.9992 172.502 78.8513 173.062 76.8855C173.241 76.1913 173.318 75.4755 173.292 74.7597C173.288 73.274 173.298 71.7922 173.298 70.3124Z" fill="#0033A1"/>
<path d="M115.8 70.429C115.8 72.0333 115.8 73.6375 115.8 75.2418C115.812 78.146 117.63 79.9736 120.566 79.9834C123.938 80.0032 127.312 79.9953 130.684 79.9834C131.352 79.9834 131.844 80.2245 132.138 80.8231C132.396 81.3506 132.276 81.8346 131.938 82.2811C131.791 82.4687 131.599 82.6179 131.38 82.7157C131.162 82.8135 130.922 82.8569 130.682 82.8422C126.838 82.8185 122.986 83.0398 119.148 82.7316C116.082 82.4906 113.326 79.693 113 76.6524C112.746 74.2144 112.93 71.7705 112.886 69.3286C112.862 68.0464 112.874 66.7602 112.886 65.4799C112.886 64.8398 113.044 64.2491 113.686 63.9093C114.666 63.3837 115.772 64.0278 115.788 65.1737C115.816 66.9242 115.788 68.6766 115.788 70.429H115.8Z" fill="#0033A1"/>
<path d="M115.8 32.8555C115.8 34.4834 115.8 36.1134 115.8 37.7414C115.8 38.8102 115.256 39.4701 114.4 39.476C113.544 39.4819 112.92 38.8398 112.912 37.7769C112.886 34.7166 112.912 31.6523 112.894 28.5959C112.869 27.7348 112.94 26.8736 113.104 26.0275C113.842 22.6491 116.698 20.383 120.364 20.3375C123.712 20.2921 127.06 20.3257 130.408 20.3375C130.633 20.3397 130.857 20.3649 131.076 20.4126C131.424 20.4728 131.737 20.656 131.958 20.928C132.179 21.2 132.292 21.5421 132.276 21.8904C132.251 22.2518 132.086 22.5899 131.815 22.834C131.544 23.078 131.189 23.2093 130.822 23.2003C128.074 23.2161 125.326 23.2003 122.578 23.2141C121.63 23.2141 120.678 23.1331 119.734 23.2833C117.3 23.6567 115.84 25.3024 115.8 27.7464C115.786 29.4494 115.8 31.1524 115.8 32.8555Z" fill="#0033A1"/>
<path d="M163.6 23.2023C161.926 23.2023 160.252 23.2023 158.578 23.2023C157.496 23.2023 156.828 22.6649 156.822 21.8193C156.816 20.9737 157.464 20.3573 158.54 20.3494C161.762 20.3237 164.986 20.3494 168.208 20.3336C168.958 20.3189 169.707 20.3852 170.442 20.5312C173.856 21.2681 176.142 24.0874 176.198 27.7108C176.248 31.0181 176.21 34.3254 176.198 37.6327C176.198 37.8318 176.178 38.0304 176.138 38.2254C175.976 39.0157 175.358 39.5313 174.626 39.4839C173.858 39.4345 173.298 38.826 173.294 37.9745C173.284 35.4575 173.294 32.9404 173.294 30.4214C173.294 29.5581 173.306 28.6947 173.294 27.8313C173.238 25.0337 171.452 23.2596 168.622 23.2161C166.948 23.1806 165.274 23.2023 163.6 23.2023Z" fill="#0033A1"/>
</svg>
