<svg width="290" height="145" viewBox="0 0 290 145" fill="none" xmlns="http://www.w3.org/2000/svg">
<path d="M50 1.5H288.5V95C288.5 121.786 266.786 143.5 240 143.5H1.5V50C1.5 23.2142 23.2142 1.5 50 1.5Z" fill="#FFEAC6" stroke="#976925" stroke-width="3"/>
<path d="M93.9453 112.184C93.7826 112.828 93.5026 113.323 93.1055 113.668C92.7083 114.007 92.207 114.176 91.6016 114.176C90.9831 114.176 90.5013 114.013 90.1562 113.688C89.8177 113.362 89.5605 112.812 89.3848 112.037L87.0215 101.754C87.0085 101.676 86.9987 101.591 86.9922 101.5C86.9857 101.402 86.9824 101.249 86.9824 101.041C86.9824 100.598 87.1322 100.243 87.4316 99.9766C87.7376 99.7096 88.1348 99.5762 88.623 99.5762C89.0397 99.5762 89.3848 99.6999 89.6582 99.9473C89.9316 100.195 90.1074 100.546 90.1855 101.002L91.8848 110.035L94.248 100.963C94.3652 100.507 94.5736 100.165 94.873 99.9375C95.179 99.7096 95.5697 99.5957 96.0449 99.5957C96.5072 99.5957 96.8848 99.7129 97.1777 99.9473C97.4772 100.182 97.6855 100.533 97.8027 101.002L100.127 110.035L101.826 101.217C101.937 100.644 102.119 100.23 102.373 99.9766C102.633 99.7227 102.998 99.5957 103.467 99.5957C103.936 99.5957 104.32 99.7389 104.619 100.025C104.919 100.305 105.068 100.663 105.068 101.1C105.068 101.243 105.055 101.399 105.029 101.568C105.01 101.731 104.98 101.894 104.941 102.057L102.461 112.037C102.253 112.896 101.989 113.469 101.67 113.756C101.351 114.036 100.869 114.176 100.225 114.176C99.6387 114.176 99.1699 114.029 98.8184 113.736C98.4733 113.443 98.2227 112.984 98.0664 112.359L95.9473 104.244L93.9453 112.184ZM112.285 113.043C111.966 113.434 111.579 113.733 111.123 113.941C110.674 114.143 110.182 114.244 109.648 114.244C108.301 114.244 107.165 113.714 106.24 112.652C105.322 111.591 104.863 110.266 104.863 108.678C104.863 107.109 105.339 105.787 106.289 104.713C107.24 103.639 108.398 103.102 109.766 103.102C110.299 103.102 110.771 103.193 111.182 103.375C111.598 103.557 111.966 103.84 112.285 104.225C112.467 103.893 112.686 103.642 112.939 103.473C113.193 103.303 113.477 103.219 113.789 103.219C114.316 103.219 114.707 103.404 114.961 103.775C115.215 104.146 115.342 104.723 115.342 105.504V111.842C115.342 112.617 115.212 113.193 114.951 113.57C114.697 113.948 114.31 114.137 113.789 114.137C113.438 114.137 113.141 114.049 112.9 113.873C112.66 113.697 112.454 113.421 112.285 113.043ZM108.125 108.639C108.125 109.413 108.314 110.038 108.691 110.514C109.069 110.982 109.561 111.217 110.166 111.217C110.758 111.217 111.243 110.979 111.621 110.504C111.999 110.022 112.188 109.4 112.188 108.639C112.188 107.896 111.995 107.291 111.611 106.822C111.234 106.354 110.752 106.119 110.166 106.119C109.567 106.119 109.076 106.354 108.691 106.822C108.314 107.285 108.125 107.89 108.125 108.639ZM118.174 106.256H118.057C117.503 106.256 117.067 106.135 116.748 105.895C116.436 105.647 116.279 105.315 116.279 104.898C116.279 104.469 116.436 104.137 116.748 103.902C117.067 103.668 117.542 103.535 118.174 103.502V102.115C118.174 101.34 118.304 100.764 118.564 100.387C118.825 100.009 119.222 99.8203 119.756 99.8203C120.283 99.8203 120.674 100.009 120.928 100.387C121.188 100.764 121.318 101.34 121.318 102.115V103.502H121.592C122.217 103.502 122.702 103.626 123.047 103.873C123.398 104.12 123.574 104.462 123.574 104.898C123.574 105.348 123.405 105.686 123.066 105.914C122.734 106.142 122.236 106.256 121.572 106.256H121.318V111.842C121.318 112.623 121.191 113.202 120.938 113.58C120.684 113.951 120.29 114.137 119.756 114.137C119.222 114.137 118.825 113.948 118.564 113.57C118.304 113.193 118.174 112.617 118.174 111.842V106.256ZM123.574 108.678C123.574 107.018 124.072 105.67 125.068 104.635C126.064 103.6 127.373 103.082 128.994 103.082C130.042 103.082 130.892 103.271 131.543 103.648C132.194 104.02 132.52 104.505 132.52 105.104C132.52 105.488 132.396 105.807 132.148 106.061C131.901 106.314 131.589 106.441 131.211 106.441C131.048 106.441 130.719 106.363 130.225 106.207C129.73 106.044 129.32 105.963 128.994 105.963C128.343 105.963 127.816 106.207 127.412 106.695C127.015 107.184 126.816 107.825 126.816 108.619C126.816 109.446 127.021 110.097 127.432 110.572C127.842 111.041 128.402 111.275 129.111 111.275C129.456 111.275 129.867 111.197 130.342 111.041C130.824 110.878 131.136 110.797 131.279 110.797C131.624 110.797 131.914 110.93 132.148 111.197C132.383 111.458 132.5 111.78 132.5 112.164C132.5 112.743 132.145 113.238 131.436 113.648C130.726 114.059 129.847 114.264 128.799 114.264C127.249 114.264 125.99 113.749 125.02 112.721C124.056 111.686 123.574 110.338 123.574 108.678ZM136.865 104.156C137.204 103.805 137.581 103.551 137.998 103.395C138.415 103.238 138.939 103.16 139.57 103.16C140.814 103.16 141.764 103.515 142.422 104.225C143.079 104.934 143.408 105.966 143.408 107.32V111.842C143.408 112.617 143.278 113.193 143.018 113.57C142.757 113.948 142.36 114.137 141.826 114.137C141.292 114.137 140.895 113.948 140.635 113.57C140.374 113.193 140.244 112.617 140.244 111.842V108.277C140.244 107.398 140.111 106.773 139.844 106.402C139.583 106.025 139.15 105.836 138.545 105.836C137.972 105.836 137.549 106.031 137.275 106.422C137.002 106.806 136.865 107.411 136.865 108.238V111.842C136.865 112.617 136.735 113.193 136.475 113.57C136.214 113.948 135.817 114.137 135.283 114.137C134.749 114.137 134.352 113.948 134.092 113.57C133.838 113.193 133.711 112.617 133.711 111.842V101.041C133.711 100.26 133.838 99.6803 134.092 99.3027C134.352 98.9251 134.749 98.7363 135.283 98.7363C135.817 98.7363 136.214 98.9284 136.475 99.3125C136.735 99.6966 136.865 100.273 136.865 101.041V104.156ZM155.146 113.062L150.811 102.184C150.752 102.047 150.706 101.9 150.674 101.744C150.641 101.581 150.625 101.419 150.625 101.256C150.625 100.794 150.785 100.41 151.104 100.104C151.423 99.7975 151.823 99.6445 152.305 99.6445C152.656 99.6445 152.943 99.752 153.164 99.9668C153.392 100.175 153.6 100.533 153.789 101.041L156.787 109.117L159.57 101.158C159.759 100.592 159.974 100.198 160.215 99.9766C160.456 99.7552 160.775 99.6445 161.172 99.6445C161.66 99.6445 162.044 99.778 162.324 100.045C162.604 100.312 162.744 100.676 162.744 101.139C162.744 101.321 162.725 101.51 162.686 101.705C162.653 101.894 162.601 102.079 162.529 102.262L158.33 112.936C158.141 113.417 157.92 113.762 157.666 113.971C157.412 114.179 157.087 114.283 156.689 114.283C156.318 114.283 156.012 114.189 155.771 114C155.537 113.811 155.329 113.499 155.146 113.062ZM163.721 100.562C163.721 100.061 163.9 99.6315 164.258 99.2734C164.616 98.9154 165.046 98.7363 165.547 98.7363C166.042 98.7363 166.465 98.9154 166.816 99.2734C167.168 99.6315 167.344 100.061 167.344 100.562C167.344 101.07 167.168 101.5 166.816 101.852C166.471 102.203 166.048 102.379 165.547 102.379C165.033 102.379 164.6 102.203 164.248 101.852C163.896 101.5 163.721 101.07 163.721 100.562ZM167.1 111.842C167.1 112.623 166.973 113.202 166.719 113.58C166.465 113.951 166.074 114.137 165.547 114.137C165.013 114.137 164.616 113.948 164.355 113.57C164.095 113.193 163.965 112.617 163.965 111.842V105.504C163.965 104.729 164.092 104.156 164.346 103.785C164.606 103.408 165.007 103.219 165.547 103.219C166.074 103.219 166.465 103.408 166.719 103.785C166.973 104.156 167.1 104.729 167.1 105.504V111.842ZM171.992 108.619C171.992 109.4 172.188 110.035 172.578 110.523C172.969 111.012 173.467 111.256 174.072 111.256C174.678 111.256 175.173 111.015 175.557 110.533C175.941 110.045 176.133 109.407 176.133 108.619C176.133 107.818 175.941 107.174 175.557 106.686C175.179 106.191 174.684 105.943 174.072 105.943C173.46 105.943 172.959 106.191 172.568 106.686C172.184 107.18 171.992 107.825 171.992 108.619ZM176.172 113.121C175.846 113.473 175.465 113.74 175.029 113.922C174.6 114.104 174.128 114.195 173.613 114.195C172.292 114.195 171.149 113.652 170.186 112.564C169.229 111.471 168.75 110.143 168.75 108.58C168.75 107.018 169.222 105.702 170.166 104.635C171.117 103.561 172.266 103.023 173.613 103.023C174.102 103.023 174.548 103.098 174.951 103.248C175.355 103.391 175.736 103.616 176.094 103.922V101.041C176.094 100.26 176.221 99.6803 176.475 99.3027C176.735 98.9251 177.135 98.7363 177.676 98.7363C178.197 98.7363 178.584 98.9284 178.838 99.3125C179.098 99.6901 179.229 100.266 179.229 101.041V111.842C179.229 112.623 179.102 113.202 178.848 113.58C178.594 113.951 178.203 114.137 177.676 114.137C177.363 114.137 177.08 114.052 176.826 113.883C176.572 113.707 176.354 113.453 176.172 113.121ZM184.004 107.496H188.164C188.125 106.962 187.91 106.516 187.52 106.158C187.129 105.8 186.663 105.621 186.123 105.621C185.589 105.621 185.13 105.79 184.746 106.129C184.362 106.467 184.115 106.923 184.004 107.496ZM184.043 109.557C184.115 110.149 184.359 110.611 184.775 110.943C185.192 111.275 185.742 111.441 186.426 111.441C187.018 111.441 187.676 111.272 188.398 110.934C189.128 110.589 189.577 110.416 189.746 110.416C190.117 110.416 190.42 110.53 190.654 110.758C190.889 110.986 191.006 111.279 191.006 111.637C191.006 112.314 190.534 112.926 189.59 113.473C188.646 114.013 187.536 114.283 186.26 114.283C184.704 114.283 183.405 113.753 182.363 112.691C181.322 111.63 180.801 110.299 180.801 108.697C180.801 107.089 181.305 105.748 182.314 104.674C183.33 103.6 184.593 103.062 186.104 103.062C187.562 103.062 188.783 103.567 189.766 104.576C190.749 105.585 191.24 106.819 191.24 108.277C191.24 108.753 191.133 109.085 190.918 109.273C190.703 109.462 190.29 109.557 189.678 109.557H184.043ZM195.273 108.639C195.273 109.446 195.465 110.097 195.85 110.592C196.234 111.08 196.735 111.324 197.354 111.324C197.972 111.324 198.473 111.077 198.857 110.582C199.242 110.087 199.434 109.439 199.434 108.639C199.434 107.864 199.235 107.232 198.838 106.744C198.447 106.249 197.952 106.002 197.354 106.002C196.742 106.002 196.24 106.246 195.85 106.734C195.465 107.223 195.273 107.857 195.273 108.639ZM192.012 108.678C192.012 107.037 192.513 105.689 193.516 104.635C194.525 103.574 195.804 103.043 197.354 103.043C198.91 103.043 200.186 103.57 201.182 104.625C202.178 105.68 202.676 107.031 202.676 108.678C202.676 110.325 202.178 111.679 201.182 112.74C200.186 113.795 198.91 114.322 197.354 114.322C195.804 114.322 194.525 113.792 193.516 112.73C192.513 111.669 192.012 110.318 192.012 108.678Z" fill="#0033A1"/>
<g clip-path="url(#clip0_110_667)">
<path d="M176 51.0555V56.0507C175.85 57.0878 175.768 58.1392 175.538 59.1604C172.812 71.3106 165.399 79.2442 153.299 82.9613C151.428 83.5353 149.485 83.7764 147.543 84H142.457C141.441 83.8573 140.411 83.7732 139.412 83.5623C126.97 80.9288 118.851 73.6433 115.056 61.7056C114.481 59.9057 114.249 58.0345 114 56.1696V50.9366C114.061 50.5259 114.131 50.1167 114.184 49.7044C115.067 42.9522 117.883 37.0706 122.772 32.2688C130.485 24.692 139.874 21.5823 150.578 23.601C163.098 25.9606 171.169 33.5089 174.955 45.4656C175.532 47.2798 175.772 49.1684 176 51.0555ZM117.184 53.5325C117.184 68.6291 129.6 80.8585 144.955 80.8728C160.334 80.8871 172.805 68.6957 172.822 53.6324C172.839 38.4851 160.439 26.2476 145.052 26.2334C129.665 26.2191 117.189 38.4248 117.184 53.5325Z" fill="#0033A1"/>
<path d="M135.634 53.5389C135.634 49.9725 135.645 46.4029 135.626 42.8381C135.626 41.8676 135.908 41.0794 136.803 40.5942C137.697 40.1089 138.538 40.2976 139.357 40.8352C144.792 44.4022 150.228 47.9643 155.664 51.5218C156.746 52.2322 157.127 53.0457 156.891 54.0669C156.73 54.7758 156.233 55.2182 155.645 55.602C151.461 58.3348 147.281 61.0713 143.105 63.8115C141.879 64.6139 140.644 65.3973 139.43 66.2219C138.605 66.7785 137.757 67.0148 136.825 66.5264C135.894 66.0379 135.614 65.234 135.619 64.2413C135.645 60.6733 135.634 57.1069 135.634 53.5389ZM138.863 53.5167C138.863 56.388 138.863 59.2603 138.863 62.1338C138.863 62.2923 138.792 62.4937 138.929 62.5841C139.115 62.7062 139.252 62.5001 139.397 62.4081C143.714 59.5886 148.027 56.7659 152.337 53.9401C152.886 53.5785 152.887 53.5293 152.348 53.1741C148.037 50.3483 143.725 47.5256 139.41 44.7061C139.268 44.6125 139.121 44.4064 138.942 44.5174C138.763 44.6284 138.863 44.8472 138.863 45.0185C138.864 47.8539 138.865 50.6866 138.866 53.5167H138.863Z" fill="#0033A1"/>
</g>
<defs>
<clipPath id="clip0_110_667">
<rect width="62" height="61" fill="white" transform="translate(114 23)"/>
</clipPath>
</defs>
</svg>
